# 3ds Max Wavefront OBJ Exporter v0.97b - (c)2007 guruware
# File Created: 04.02.2021 23:42:44

#
# object Box244
#

v  2.0206 0.0000 2.0585
v  2.0206 0.5951 2.0585
v  -2.0207 0.5951 2.0585
v  -2.0207 0.0000 2.0585
v  2.0206 0.0000 -2.0585
v  -2.0207 0.0000 -2.0585
v  -2.0207 0.5951 -2.0585
v  2.0206 0.5951 -2.0585
# 8 vertices

vn 0.5773 -0.5774 0.5774
vn 0.5773 0.5774 0.5774
vn -0.5774 0.5773 0.5773
vn -0.5774 -0.5773 0.5773
vn 0.5774 -0.5773 -0.5773
vn -0.5773 -0.5774 -0.5774
vn -0.5773 0.5774 -0.5774
vn 0.5774 0.5773 -0.5773
# 8 vertex normals

vt 0.9249 -0.0000 0.0000
vt 0.9249 1.0000 0.0000
vt 0.5217 1.0000 0.0000
vt 0.5217 0.0000 0.0000
vt 0.0000 0.0751 0.0000
vt 1.0000 0.0751 0.0000
vt 1.0000 0.4783 0.0000
vt 0.0000 0.4783 0.0000
vt 0.2953 0.3068 0.0000
vt 0.4060 0.3068 0.0000
vt 0.4060 0.0718 0.0000
vt 0.2953 0.0718 0.0000
vt -0.0000 0.4783 0.0000
vt -0.0000 0.0751 0.0000
vt 0.0751 0.0000 0.0000
vt 0.4783 0.0000 0.0000
vt 0.4783 1.0000 0.0000
vt 0.0751 1.0000 0.0000
vt 0.9398 0.0000 0.0000
vt 0.9398 1.0000 0.0000
vt 0.9723 1.0000 0.0000
vt 0.9723 0.0000 0.0000
# 22 texture coords

o Box244
g Box244
s 64
f 1/1/1 2/2/2 3/3/3 4/4/4 
s 2
f 5/5/5 1/6/1 4/7/4 6/8/6 
s 1
f 3/9/3 7/10/7 6/11/6 4/12/4 
s 4
f 3/13/3 2/14/2 8/6/8 7/7/7 
s 16
f 5/15/5 6/16/6 7/17/7 8/18/8 
s 1
f 5/19/5 8/20/8 2/21/2 1/22/1 
# 6 polygons

