# 3ds Max Wavefront OBJ Exporter v0.97b - (c)2007 guruware
# File Created: 11.02.2021 13:21:52

#
# object Box102
#

v  2.498765 5.473238 -2.974473
v  2.498765 0.475708 -2.974473
v  2.498765 0.475708 -2.498765
v  2.498765 5.473238 -2.498765
v  -2.498765 5.473238 -2.498765
v  -2.498765 0.475708 -2.498765
v  -2.498765 0.475708 -2.974473
v  -2.498765 5.473238 -2.974473
v  2.498765 5.473238 2.498765
v  2.498765 0.475708 2.498765
v  2.498765 0.475708 2.974473
v  2.498765 5.473238 2.974473
v  -2.498765 5.473238 2.974473
v  -2.498765 0.475708 2.974473
v  -2.498765 0.475708 2.498765
v  -2.498765 5.473238 2.498765
v  2.974473 5.473238 2.498765
v  2.974473 0.475708 2.498765
v  2.974473 0.475708 -2.498765
v  2.974473 5.473238 -2.498765
v  -2.974473 0.475708 -2.498765
v  -2.974473 5.473238 -2.498765
v  -2.974473 0.475708 2.498765
v  -2.974473 5.473238 2.498765
v  -2.468333 5.948946 2.468333
v  -2.974473 5.948946 2.974473
v  2.974473 5.948946 2.974473
v  -2.468333 5.948946 -2.468333
v  -2.974473 5.948946 -2.974473
v  2.468333 5.948946 -2.468333
v  2.974473 5.948946 -2.974473
v  2.468333 5.948946 2.468333
v  2.468333 0.000000 2.468333
v  2.974473 0.000000 2.974473
v  -2.974473 0.000000 2.974473
v  2.468333 0.000000 -2.468333
v  2.974473 0.000000 -2.974473
v  -2.468333 0.000000 -2.468333
v  -2.974473 0.000000 -2.974473
v  -2.468333 0.000000 2.468333
v  2.468333 0.475708 -2.468333
v  -2.468333 0.475708 -2.468333
v  2.468333 0.475708 2.468333
v  -2.468333 0.475708 2.468333
v  2.468333 5.473238 -2.468333
v  2.468333 5.473238 2.468333
v  -2.468333 5.473238 -2.468333
v  -2.468333 5.473238 2.468333
v  -2.562942 0.401360 2.562942
v  -2.562942 0.401360 -2.562942
v  2.562942 0.401360 -2.562942
v  2.562942 0.401360 2.562942
v  -2.562942 5.527244 2.562942
v  2.562942 5.527244 2.562942
v  2.562942 5.527244 -2.562942
v  -2.562942 5.527244 -2.562942
# 56 vertices

vn -1.000000 0.000000 -0.000000
vn 1.000000 0.000000 -0.000000
vn 0.000000 0.000000 -1.000000
vn 0.000000 0.000000 1.000000
vn 0.000000 1.000000 -0.000000
vn 0.000000 -1.000000 -0.000000
vn -1.000000 0.000000 0.000000
vn -1.000000 -0.000001 0.000000
vn -1.000000 -0.000000 0.000000
vn 1.000000 -0.000001 -0.000000
vn 1.000000 -0.000000 -0.000000
# 11 vertex normals

vt 0.262200 0.965579 0.000000
vt 0.262200 0.874268 0.000000
vt 0.270892 0.874268 0.000000
vt 0.270892 0.965579 0.000000
vt 0.242461 0.965579 0.000000
vt 0.242461 0.874268 0.000000
vt 0.251153 0.874268 0.000000
vt 0.251153 0.965579 0.000000
vt 0.281939 0.965579 0.000000
vt 0.281939 0.874268 0.000000
vt 0.290631 0.874268 0.000000
vt 0.290631 0.965579 0.000000
vt 0.008883 0.977898 0.000000
vt 0.100194 0.977898 0.000000
vt 0.100194 0.986589 0.000000
vt 0.008883 0.986589 0.000000
vt 0.261022 0.965579 0.000000
vt 0.252331 0.965579 0.000000
vt 0.252331 0.874268 0.000000
vt 0.261022 0.874268 0.000000
vt 0.241283 0.874268 0.000000
vt 0.241283 0.965579 0.000000
vt 0.232592 0.965579 0.000000
vt 0.232592 0.874268 0.000000
vt 0.339511 0.647269 0.000000
vt 0.348203 0.647269 0.000000
vt 0.348203 0.738581 0.000000
vt 0.339511 0.738581 0.000000
vt 0.280761 0.874268 0.000000
vt 0.280761 0.965579 0.000000
vt 0.272070 0.965579 0.000000
vt 0.272070 0.874268 0.000000
vt 0.018131 0.876936 0.000000
vt 0.008883 0.867688 0.000000
vt 0.117578 0.867688 0.000000
vt 0.018131 0.967135 0.000000
vt 0.008883 0.976383 0.000000
vt 0.108330 0.967135 0.000000
vt 0.117578 0.976383 0.000000
vt 0.108330 0.876936 0.000000
vt 0.128340 0.860215 0.000000
vt 0.119092 0.869463 0.000000
vt 0.119092 0.760769 0.000000
vt 0.218539 0.860215 0.000000
vt 0.227787 0.869463 0.000000
vt 0.218539 0.770016 0.000000
vt 0.227787 0.760769 0.000000
vt 0.128340 0.770016 0.000000
vt 0.330109 0.874268 0.000000
vt 0.330109 0.964467 0.000000
vt 0.321417 0.964467 0.000000
vt 0.321417 0.874268 0.000000
vt 0.348203 0.742675 0.000000
vt 0.348203 0.832874 0.000000
vt 0.339511 0.832874 0.000000
vt 0.339511 0.742675 0.000000
vt 0.235882 0.966383 0.000000
vt 0.326081 0.966383 0.000000
vt 0.326081 0.975075 0.000000
vt 0.235882 0.975075 0.000000
vt 0.331287 0.952953 0.000000
vt 0.331287 0.862753 0.000000
vt 0.339978 0.862753 0.000000
vt 0.339978 0.952953 0.000000
vt 0.331015 0.984945 0.000000
vt 0.240816 0.984945 0.000000
vt 0.240816 0.976253 0.000000
vt 0.331015 0.976253 0.000000
vt 0.300500 0.964467 0.000000
vt 0.291809 0.964467 0.000000
vt 0.291809 0.874268 0.000000
vt 0.300500 0.874268 0.000000
vt 0.311548 0.964467 0.000000
vt 0.311548 0.874268 0.000000
vt 0.320239 0.874268 0.000000
vt 0.320239 0.964467 0.000000
vt 0.310370 0.964467 0.000000
vt 0.301678 0.964467 0.000000
vt 0.301678 0.874268 0.000000
vt 0.310370 0.874268 0.000000
vt 0.231077 0.870978 0.000000
vt 0.222385 0.970981 0.000000
vt 0.222385 0.879670 0.000000
vt 0.122382 0.870978 0.000000
vt 0.131074 0.879670 0.000000
vt 0.131074 0.970981 0.000000
vt 0.231077 0.979673 0.000000
vt 0.122382 0.979673 0.000000
vt 0.119092 0.647269 0.000000
vt 0.219095 0.655961 0.000000
vt 0.127784 0.655961 0.000000
vt 0.119092 0.755964 0.000000
vt 0.127784 0.747272 0.000000
vt 0.219095 0.747272 0.000000
vt 0.227787 0.647269 0.000000
vt 0.227787 0.755964 0.000000
vt 0.229302 0.647269 0.000000
vt 0.237994 0.655961 0.000000
vt 0.237994 0.747272 0.000000
vt 0.229302 0.755964 0.000000
vt 0.329305 0.747272 0.000000
vt 0.329305 0.655961 0.000000
vt 0.337996 0.647269 0.000000
vt 0.337996 0.755964 0.000000
vt 0.008883 0.755964 0.000000
vt 0.017575 0.747272 0.000000
vt 0.108886 0.747272 0.000000
vt 0.117578 0.755964 0.000000
vt 0.108886 0.655961 0.000000
vt 0.017575 0.655961 0.000000
vt 0.008883 0.647269 0.000000
vt 0.117578 0.647269 0.000000
vt 0.108886 0.866173 0.000000
vt 0.017575 0.866173 0.000000
vt 0.017575 0.857482 0.000000
vt 0.008883 0.857482 0.000000
vt 0.008883 0.766171 0.000000
vt 0.017575 0.766171 0.000000
vt 0.017575 0.757479 0.000000
vt 0.108886 0.757479 0.000000
vt 0.108886 0.766171 0.000000
vt 0.108330 0.766727 0.000000
vt 0.018131 0.766727 0.000000
vt 0.018131 0.856926 0.000000
vt 0.108330 0.856926 0.000000
vt 0.108886 0.857482 0.000000
vt 0.117578 0.766171 0.000000
vt 0.117578 0.857482 0.000000
vt 0.238550 0.770016 0.000000
vt 0.329305 0.760769 0.000000
vt 0.329305 0.769460 0.000000
vt 0.328749 0.770016 0.000000
vt 0.328749 0.860215 0.000000
vt 0.337996 0.769460 0.000000
vt 0.337996 0.860772 0.000000
vt 0.329305 0.860772 0.000000
vt 0.329305 0.869463 0.000000
vt 0.237994 0.869463 0.000000
vt 0.238550 0.860215 0.000000
vt 0.237994 0.860772 0.000000
vt 0.229302 0.860771 0.000000
vt 0.229302 0.769460 0.000000
vt 0.237994 0.769460 0.000000
vt 0.237994 0.760769 0.000000
vt 0.771345 0.228655 0.000000
vt 0.771345 0.025379 0.000000
vt 0.974621 0.025379 0.000000
vt 0.974621 0.228655 0.000000
vt 0.566697 0.025379 0.000000
vt 0.769973 0.025379 0.000000
vt 0.769973 0.228655 0.000000
vt 0.566697 0.228655 0.000000
vt 0.362049 0.434675 0.000000
vt 0.565325 0.434675 0.000000
vt 0.565325 0.637951 0.000000
vt 0.362049 0.637951 0.000000
vt 0.566697 0.235019 0.000000
vt 0.769973 0.235019 0.000000
vt 0.769973 0.438295 0.000000
vt 0.566697 0.438295 0.000000
vt 0.362049 0.230027 0.000000
vt 0.565325 0.230027 0.000000
vt 0.565325 0.433303 0.000000
vt 0.362049 0.433303 0.000000
vt 0.362049 0.025379 0.000000
vt 0.565325 0.025379 0.000000
vt 0.565325 0.228655 0.000000
vt 0.362049 0.228655 0.000000
# 168 texture coords

o Box102
g Box102
f 1/1/1 2/2/1 3/3/1 
f 3/3/1 4/4/1 1/1/1 
f 5/5/2 6/6/2 7/7/2 
f 7/7/2 8/8/2 5/5/2 
f 9/9/1 10/10/1 11/11/1 
f 11/11/1 12/12/1 9/9/1 
f 13/13/2 14/14/2 15/15/2 
f 15/15/2 16/16/2 13/13/2 
f 9/17/3 17/18/3 18/19/3 
f 18/19/3 10/20/3 9/17/3 
f 19/21/4 20/22/4 4/23/4 
f 4/23/4 3/24/4 19/21/4 
f 21/25/4 6/26/4 5/27/4 
f 5/27/4 22/28/4 21/25/4 
f 23/29/3 24/30/3 16/31/3 
f 16/31/3 15/32/3 23/29/3 
f 25/33/5 26/34/5 27/35/5 
f 26/34/5 25/33/5 28/36/5 
f 29/37/5 26/34/5 28/36/5 
f 29/37/5 28/36/5 30/38/5 
f 31/39/5 29/37/5 30/38/5 
f 31/39/5 30/38/5 32/40/5 
f 27/35/5 31/39/5 32/40/5 
f 25/33/5 27/35/5 32/40/5 
f 33/41/6 34/42/6 35/43/6 
f 34/42/6 33/41/6 36/44/6 
f 37/45/6 34/42/6 36/44/6 
f 37/45/6 36/44/6 38/46/6 
f 39/47/6 37/45/6 38/46/6 
f 39/47/6 38/46/6 40/48/6 
f 35/43/6 39/47/6 40/48/6 
f 33/41/6 35/43/6 40/48/6 
f 38/49/4 36/50/4 41/51/4 
f 41/51/4 42/52/4 38/49/4 
f 36/53/7 33/54/1 43/55/7 
f 43/55/7 41/56/7 36/53/7 
f 33/57/3 40/58/3 44/59/3 
f 44/59/3 43/60/3 33/57/3 
f 42/61/2 44/62/2 40/63/2 
f 40/63/2 38/64/2 42/61/2 
f 32/65/8 30/66/1 45/67/9 
f 45/67/9 46/68/8 32/65/8 
f 45/69/4 30/70/4 28/71/4 
f 28/71/4 47/72/4 45/69/4 
f 28/73/10 25/74/2 48/75/11 
f 48/75/11 47/76/10 28/73/10 
f 48/77/3 25/78/3 32/79/3 
f 32/79/3 46/80/3 48/77/3 
f 34/81/2 19/82/2 18/83/2 
f 27/84/2 34/81/2 18/83/2 
f 27/84/2 18/83/2 17/85/2 
f 27/84/2 17/85/2 20/86/2 
f 19/82/2 34/81/2 37/87/2 
f 20/86/2 19/82/2 37/87/2 
f 20/86/2 37/87/2 31/88/2 
f 27/84/2 20/86/2 31/88/2 
f 39/89/1 23/90/1 21/91/1 
f 29/92/1 39/89/1 21/91/1 
f 29/92/1 21/91/1 22/93/1 
f 29/92/1 22/93/1 24/94/1 
f 23/90/1 39/89/1 35/95/1 
f 24/94/1 23/90/1 35/95/1 
f 24/94/1 35/95/1 26/96/1 
f 29/92/1 24/94/1 26/96/1 
f 35/97/4 14/98/4 13/99/4 
f 26/100/4 35/97/4 13/99/4 
f 26/100/4 13/99/4 12/101/4 
f 11/102/4 14/98/4 35/97/4 
f 11/102/4 35/97/4 34/103/4 
f 12/101/4 11/102/4 34/103/4 
f 12/101/4 34/103/4 27/104/4 
f 26/100/4 12/101/4 27/104/4 
f 37/105/3 2/106/3 1/107/3 
f 31/108/3 37/105/3 1/107/3 
f 31/108/3 1/107/3 8/109/3 
f 7/110/3 2/106/3 37/105/3 
f 7/110/3 37/105/3 39/111/3 
f 8/109/3 7/110/3 39/111/3 
f 8/109/3 39/111/3 29/112/3 
f 31/108/3 8/109/3 29/112/3 
f 20/113/6 17/114/6 9/115/6 
f 12/116/6 13/117/6 16/118/6 
f 9/115/6 12/116/6 16/118/6 
f 24/119/6 22/120/6 5/121/6 
f 16/118/6 24/119/6 5/121/6 
f 5/121/6 47/122/6 48/123/6 
f 16/118/6 5/121/6 48/123/6 
f 16/118/6 48/123/6 46/124/6 
f 9/115/6 16/118/6 46/124/6 
f 20/113/6 9/115/6 46/124/6 
f 20/113/6 46/124/6 45/125/6 
f 4/126/6 20/113/6 45/125/6 
f 45/125/6 47/122/6 5/121/6 
f 45/125/6 5/121/6 8/127/6 
f 4/126/6 45/125/6 8/127/6 
f 4/126/6 8/127/6 1/128/6 
f 43/129/5 19/130/5 3/131/5 
f 41/132/5 43/129/5 3/131/5 
f 42/133/5 41/132/5 3/131/5 
f 3/131/5 2/134/5 7/135/5 
f 3/131/5 7/135/5 6/136/5 
f 42/133/5 3/131/5 6/136/5 
f 6/136/5 21/137/5 23/138/5 
f 42/133/5 6/136/5 23/138/5 
f 44/139/5 42/133/5 23/138/5 
f 44/139/5 23/138/5 15/140/5 
f 15/140/5 14/141/5 11/142/5 
f 15/140/5 11/142/5 10/143/5 
f 44/139/5 15/140/5 10/143/5 
f 43/129/5 44/139/5 10/143/5 
f 19/130/5 43/129/5 10/143/5 
f 19/130/5 10/143/5 18/144/5 
f 49/145/6 50/146/6 51/147/6 
f 51/147/6 52/148/6 49/145/6 
f 53/149/5 54/150/5 55/151/5 
f 55/151/5 56/152/5 53/149/5 
f 49/153/4 52/154/4 54/155/4 
f 54/155/4 53/156/4 49/153/4 
f 52/157/2 51/158/2 55/159/2 
f 55/159/2 54/160/2 52/157/2 
f 51/161/3 50/162/3 56/163/3 
f 56/163/3 55/164/3 51/161/3 
f 50/165/1 49/166/1 53/167/1 
f 53/167/1 56/168/1 50/165/1 
# 124 faces

