# 3ds Max Wavefront OBJ Exporter v0.97b - (c)2007 guruware
# File Created: 04.02.2021 03:34:22

#
# object Box002
#

v  -2.5464 15.8982 -0.0214
v  6.3870 15.8982 -0.0214
v  6.3870 15.8927 -0.6119
v  -2.5464 15.8927 -0.6119
v  6.3870 13.9518 -0.0033
v  -2.5464 13.9518 -0.0033
v  -2.5464 13.9463 -0.5937
v  6.3870 13.9463 -0.5937
v  -2.5464 12.0053 0.0148
v  -2.5464 11.9998 -0.5756
v  6.3870 11.9998 -0.5756
v  6.3870 12.0053 0.0148
v  2.3838 -0.0054 0.6675
v  0.8895 0.0085 0.6674
v  0.8895 0.0021 -0.0194
v  2.3838 -0.0118 -0.0193
v  2.5376 16.4936 0.5137
v  2.5376 16.4872 -0.1731
v  1.7950 16.9795 -0.1777
v  1.7950 16.9859 0.5091
v  1.0433 16.5011 -0.1732
v  1.0433 16.5075 0.5136
# 22 vertices

vn -0.5774 0.5827 0.5719
vn 0.5774 0.5827 0.5719
vn 0.5774 0.5719 -0.5827
vn -0.5774 0.5719 -0.5827
vn -0.0000 0.0093 1.0000
vn -0.7071 0.0066 0.7071
vn -0.7071 -0.0066 -0.7071
vn 0.0000 -0.0093 -1.0000
vn -0.5774 -0.5719 0.5827
vn -0.5774 -0.5827 -0.5719
vn 0.5774 -0.5827 -0.5719
vn 0.5774 -0.5719 0.5827
vn 0.5719 -0.5774 0.5827
vn -0.5826 -0.5665 0.5828
vn -0.5827 -0.5772 -0.5720
vn 0.5721 -0.5881 -0.5718
vn 0.6973 0.3758 0.6103
vn 0.6972 0.3645 -0.6173
vn 0.0074 0.7923 -0.6100
vn 0.0074 0.8036 0.5952
vn -0.6902 0.3774 -0.6174
vn -0.6903 0.3888 0.6102
# 22 vertex normals

vt 0.2922 0.2317 0.0000
vt 0.8149 0.2317 0.0000
vt 0.8149 0.2662 0.0000
vt 0.2922 0.2662 0.0000
vt 0.8111 0.1149 0.0000
vt 0.8111 0.2288 0.0000
vt 0.2884 0.2288 0.0000
vt 0.2884 0.1149 0.0000
vt 0.4507 0.8543 0.0000
vt 0.4507 0.7404 0.0000
vt 0.9734 0.7404 0.0000
vt 0.9734 0.8543 0.0000
vt 0.4061 0.5380 0.0000
vt 0.5200 0.5380 0.0000
vt 0.5200 0.5726 0.0000
vt 0.4061 0.5726 0.0000
vt 0.8149 0.5002 0.0000
vt 0.8149 0.5347 0.0000
vt 0.2922 0.5347 0.0000
vt 0.2922 0.5002 0.0000
vt 0.2884 0.0010 0.0000
vt 0.8111 0.0010 0.0000
vt 0.9734 0.9682 0.0000
vt 0.4507 0.9682 0.0000
vt 0.2922 0.5726 0.0000
vt 0.2922 0.5380 0.0000
vt 0.5200 0.5758 0.0000
vt 0.5200 0.6104 0.0000
vt 0.2922 0.6104 0.0000
vt 0.2922 0.5758 0.0000
vt 0.9048 0.0010 0.0000
vt 0.9923 0.0010 0.0000
vt 0.9923 0.0412 0.0000
vt 0.9048 0.0412 0.0000
vt 0.9015 0.0010 0.0000
vt 0.9015 0.0412 0.0000
vt 0.8581 0.0412 0.0000
vt 0.8581 0.0010 0.0000
vt 0.2832 0.9891 0.0000
vt 0.2430 0.9891 0.0000
vt 0.2430 0.0237 0.0000
vt 0.2832 0.0237 0.0000
vt 0.0100 0.0048 0.0000
vt 0.0974 0.0056 0.0000
vt 0.0884 0.9710 0.0000
vt 0.0445 0.9990 0.0000
vt 0.0010 0.9702 0.0000
vt 0.1977 0.0237 0.0000
vt 0.2378 0.0237 0.0000
vt 0.2378 0.9891 0.0000
vt 0.1977 0.9891 0.0000
vt 0.1958 0.9982 0.0000
vt 0.1083 0.9990 0.0000
vt 0.0993 0.0336 0.0000
vt 0.1428 0.0048 0.0000
vt 0.1868 0.0328 0.0000
vt 0.8141 0.0412 0.0000
vt 0.8141 0.0010 0.0000
# 58 texture coords

o Box002
g Box002
s 16
f 1/1/1 2/2/2 3/3/3 4/4/4 
s 2
f 5/5/5 2/6/2 1/7/1 6/8/6 
s 4
f 7/9/7 4/10/4 3/11/3 8/12/8 
s 8
f 6/13/6 1/14/1 4/15/4 7/16/7 
s 16
f 9/17/9 10/18/10 11/19/11 12/20/12 
s 2
f 5/5/5 6/8/6 9/21/9 12/22/12 
s 4
f 7/9/7 8/12/8 11/23/11 10/24/10 
s 8
f 6/13/6 7/16/7 10/25/10 9/26/9 
s off
f 12/27/12 11/28/11 3/29/3 2/30/2 
s 2
f 13/31/13 14/32/14 15/33/15 16/34/16 
s 4
f 17/35/17 18/36/18 19/37/19 20/38/20 
s 8
f 13/39/13 16/40/16 18/41/18 17/42/17 
s 16
f 16/43/16 15/44/15 21/45/21 19/46/19 18/47/18 
s 32
f 15/48/15 14/49/14 22/50/22 21/51/21 
s 64
f 14/52/14 13/53/13 17/54/17 20/55/20 22/56/22 
s 4
f 19/37/19 21/57/21 22/58/22 20/38/20 
# 16 polygons

