# 3ds Max Wavefront OBJ Exporter v0.97b - (c)2007 guruware
# File Created: 17.02.2021 00:49:22

mtllib flecha.mtl

#
# object Cylinder019
#

v  0.034360 2.780926 -5.035329
v  -0.098035 2.804271 -5.035329
v  -0.184450 2.907256 -5.035329
v  -0.184450 3.041693 -5.035329
v  -0.098035 3.144678 -5.035329
v  0.034359 3.168022 -5.035329
v  0.150785 3.100804 -5.035329
v  0.196766 2.974474 -5.035329
v  0.150785 2.848145 -5.035329
v  0.150785 3.100803 3.892655
v  0.196766 2.974474 3.892655
v  0.034359 3.168022 3.892655
v  -0.098035 3.144677 3.892655
v  -0.184450 3.041692 3.892655
v  -0.184450 2.907255 3.892655
v  -0.098035 2.804270 3.892655
v  0.034359 2.780926 3.892655
v  0.150785 2.848144 3.892655
v  0.010595 2.974474 4.902195
v  0.008171 2.981135 4.902195
v  0.002031 2.984680 4.902195
v  -0.004950 2.983449 4.902195
v  -0.009507 2.978018 4.902195
v  -0.009507 2.970929 4.902195
v  -0.004950 2.965499 4.902195
v  0.002031 2.964268 4.902195
v  0.008171 2.967812 4.902195
v  0.117892 3.073202 3.956597
v  0.153826 2.974474 3.956597
v  0.026903 3.125735 3.956597
v  -0.076565 3.107490 3.956597
v  -0.144100 3.027006 3.956597
v  -0.144100 2.921941 3.956597
v  -0.076565 2.841457 3.956597
v  0.026903 2.823213 3.956597
v  0.117892 2.875745 3.956597
v  0.177106 3.122889 4.111398
v  0.231125 2.974474 4.111398
v  0.040326 3.201859 4.111398
v  -0.115215 3.174433 4.111398
v  -0.216737 3.053444 4.111398
v  -0.216737 2.895504 4.111398
v  -0.115215 2.774514 4.111398
v  0.040326 2.747088 4.111398
v  0.177106 2.826058 4.111398
v  0.078419 3.040081 4.744028
v  0.102298 2.974474 4.744028
v  0.017955 3.074989 4.744028
v  -0.050801 3.062865 4.744028
v  -0.095679 3.009382 4.744028
v  -0.095679 2.939565 4.744028
v  -0.050801 2.886082 4.744028
v  0.017955 2.873958 4.744028
v  0.078419 2.908867 4.744028
v  0.159720 2.974845 -2.933419
v  0.478586 3.113491 -3.507980
v  0.478586 3.113491 -4.764162
v  0.159720 2.974845 -4.189601
v  0.159720 2.934506 -2.933419
v  0.159720 2.934506 -4.189601
v  0.478586 3.073153 -4.764162
v  0.478586 3.073153 -3.507980
v  -0.159720 2.974845 -2.933419
v  -0.159720 2.974845 -4.189601
v  -0.478587 3.113491 -4.764162
v  -0.478587 3.113491 -3.507980
v  -0.159720 2.934506 -2.933419
v  -0.478587 3.073153 -3.507980
v  -0.478587 3.073153 -4.764162
v  -0.159720 2.934506 -4.189601
# 70 vertices

vn 0.000000 0.000000 -1.000000
vn 0.939693 0.342020 0.000000
vn 0.500000 0.866025 0.000000
vn -0.173648 0.984808 0.000000
vn -0.766045 0.642787 0.000000
vn -0.766045 0.642788 0.000000
vn -0.766044 0.642788 0.000000
vn -1.000000 -0.000000 0.000000
vn -0.766044 -0.642788 -0.000000
vn -0.173648 -0.984808 -0.000000
vn 0.500000 -0.866025 -0.000000
vn 0.500000 -0.866026 -0.000000
vn 0.939693 -0.342020 -0.000000
vn 0.000000 -0.000000 1.000000
vn 0.908758 0.330761 0.254471
vn 0.483540 0.837516 0.254471
vn -0.167932 0.952388 0.254471
vn -0.740827 0.621627 0.254471
vn -0.967080 -0.000000 0.254471
vn -0.740826 -0.621627 0.254471
vn -0.167932 -0.952388 0.254471
vn 0.483540 -0.837516 0.254471
vn 0.908758 -0.330761 0.254471
vn 0.922206 0.335656 -0.192019
vn 0.490696 0.849910 -0.192019
vn -0.170417 0.966482 -0.192019
vn -0.751789 0.630826 -0.192019
vn -0.981391 -0.000000 -0.192019
vn -0.751789 -0.630826 -0.192019
vn -0.170417 -0.966482 -0.192019
vn 0.490695 -0.849910 -0.192019
vn 0.922206 -0.335656 -0.192019
vn 0.936715 0.340937 0.079539
vn 0.498416 0.863282 0.079539
vn -0.173098 0.981688 0.079539
vn -0.763617 0.640751 0.079539
vn -0.996832 -0.000000 0.079539
vn -0.763617 -0.640751 0.079539
vn -0.173098 -0.981688 0.079539
vn 0.498416 -0.863282 0.079539
vn 0.936715 -0.340937 0.079539
vn 0.916344 0.333522 0.221533
vn 0.916344 0.333523 0.221533
vn 0.487577 0.844507 0.221533
vn -0.169334 0.960338 0.221533
vn -0.169333 0.960338 0.221533
vn -0.747011 0.626816 0.221533
vn -0.975153 -0.000000 0.221533
vn -0.975153 -0.000001 0.221533
vn -0.747010 -0.626816 0.221533
vn -0.169334 -0.960338 0.221533
vn 0.487576 -0.844507 0.221533
vn 0.487577 -0.844507 0.221533
vn 0.916344 -0.333522 0.221533
vn -0.398747 0.917061 0.000000
vn 0.398747 -0.917061 -0.000000
vn -0.974254 0.000000 -0.225455
vn 1.000000 0.000000 -0.000000
vn 0.974254 -0.000000 0.225455
vn 0.398747 0.917061 0.000000
vn -0.398747 -0.917061 -0.000000
vn 0.974254 0.000000 -0.225455
vn -0.974254 -0.000000 0.225455
# 63 vertex normals

vt 0.957620 0.018150 0.000000
vt 0.962903 0.020073 0.000000
vt 0.965715 0.024942 0.000000
vt 0.964738 0.030479 0.000000
vt 0.960431 0.034093 0.000000
vt 0.954809 0.034093 0.000000
vt 0.950502 0.030479 0.000000
vt 0.949526 0.024942 0.000000
vt 0.952337 0.020073 0.000000
vt 0.974866 0.002319 0.000000
vt 0.980488 0.002319 0.000000
vt 0.980488 0.897748 0.000000
vt 0.974866 0.897748 0.000000
vt 0.031913 0.999000 0.000000
vt 0.027044 0.999000 0.000000
vt 0.027044 0.103571 0.000000
vt 0.031913 0.103571 0.000000
vt 0.021507 0.999000 0.000000
vt 0.021507 0.103571 0.000000
vt 0.016480 0.999000 0.000000
vt 0.012174 0.999000 0.000000
vt 0.012174 0.103571 0.000000
vt 0.016481 0.103571 0.000000
vt 0.006551 0.999000 0.000000
vt 0.006551 0.103571 0.000000
vt 0.002244 0.999000 0.000000
vt 0.002244 0.103571 0.000000
vt 0.995332 0.999000 0.000000
vt 0.989796 0.999000 0.000000
vt 0.989796 0.103571 0.000000
vt 0.995332 0.103571 0.000000
vt 0.984927 0.999000 0.000000
vt 0.984927 0.103571 0.000000
vt 0.970559 0.002319 0.000000
vt 0.970559 0.897748 0.000000
vt 0.104702 0.006927 0.000000
vt 0.104475 0.007118 0.000000
vt 0.104178 0.007118 0.000000
vt 0.103951 0.006927 0.000000
vt 0.103900 0.006635 0.000000
vt 0.104048 0.006378 0.000000
vt 0.104327 0.006277 0.000000
vt 0.104605 0.006378 0.000000
vt 0.104754 0.006635 0.000000
vt 0.979874 0.904162 0.000000
vt 0.975480 0.904162 0.000000
vt 0.026732 0.097158 0.000000
vt 0.030537 0.097158 0.000000
vt 0.022405 0.097158 0.000000
vt 0.011559 0.097158 0.000000
vt 0.014925 0.097158 0.000000
vt 0.007166 0.097158 0.000000
vt 0.003800 0.097158 0.000000
vt 0.990107 0.097158 0.000000
vt 0.994435 0.097158 0.000000
vt 0.986302 0.097158 0.000000
vt 0.972114 0.904162 0.000000
vt 0.980980 0.919687 0.000000
vt 0.974374 0.919687 0.000000
vt 0.027293 0.081632 0.000000
vt 0.033014 0.081632 0.000000
vt 0.020788 0.081632 0.000000
vt 0.012665 0.081632 0.000000
vt 0.017725 0.081632 0.000000
vt 0.006060 0.081632 0.000000
vt 0.001000 0.081632 0.000000
vt 0.989546 0.081632 0.000000
vt 0.996051 0.081632 0.000000
vt 0.983826 0.081632 0.000000
vt 0.969314 0.919687 0.000000
vt 0.979137 0.983137 0.000000
vt 0.976217 0.983137 0.000000
vt 0.026358 0.018183 0.000000
vt 0.028886 0.018183 0.000000
vt 0.023482 0.018183 0.000000
vt 0.010822 0.018183 0.000000
vt 0.013059 0.018183 0.000000
vt 0.007903 0.018183 0.000000
vt 0.005666 0.018183 0.000000
vt 0.990482 0.018183 0.000000
vt 0.993357 0.018183 0.000000
vt 0.987953 0.018183 0.000000
vt 0.973980 0.983137 0.000000
vt 0.977825 0.999000 0.000000
vt 0.977529 0.999000 0.000000
vt 0.025692 0.002319 0.000000
vt 0.025949 0.002319 0.000000
vt 0.025400 0.002319 0.000000
vt 0.009511 0.002319 0.000000
vt 0.009738 0.002319 0.000000
vt 0.009214 0.002319 0.000000
vt 0.008987 0.002319 0.000000
vt 0.991148 0.002319 0.000000
vt 0.991440 0.002319 0.000000
vt 0.990891 0.002319 0.000000
vt 0.977302 0.999000 0.000000
vt 0.045997 0.860059 0.000000
vt 0.032662 0.802434 0.000000
vt 0.032662 0.676445 0.000000
vt 0.045997 0.734071 0.000000
vt 0.032662 0.214956 0.000000
vt 0.032662 0.088968 0.000000
vt 0.045997 0.031342 0.000000
vt 0.045997 0.157331 0.000000
vt 0.212408 0.007083 0.000000
vt 0.086496 0.002686 0.000000
vt 0.086555 0.001000 0.000000
vt 0.212467 0.005397 0.000000
vt 0.028704 0.006470 0.000000
vt 0.028763 0.004784 0.000000
vt 0.032662 0.375902 0.000000
vt 0.032662 0.249914 0.000000
vt 0.034349 0.249914 0.000000
vt 0.034348 0.375902 0.000000
vt 0.038460 0.192288 0.000000
vt 0.040147 0.192288 0.000000
vt 0.781984 0.002319 0.000000
vt 0.907972 0.002319 0.000000
vt 0.965598 0.016861 0.000000
vt 0.839609 0.016861 0.000000
vt 0.032662 0.812326 0.000000
vt 0.047203 0.869951 0.000000
vt 0.047203 0.995940 0.000000
vt 0.032662 0.938314 0.000000
vt 0.036987 0.373264 0.000000
vt 0.035300 0.373264 0.000000
vt 0.035300 0.247275 0.000000
vt 0.036987 0.247275 0.000000
vt 0.041098 0.189650 0.000000
vt 0.042785 0.189650 0.000000
vt 0.220382 0.008035 0.000000
vt 0.220323 0.009721 0.000000
vt 0.094412 0.005324 0.000000
vt 0.094471 0.003638 0.000000
vt 0.036619 0.009108 0.000000
vt 0.036678 0.007422 0.000000
# 136 texture coords

o Cylinder019
g Cylinder019
usemtl wire_135059008
f 1/1/1 2/2/1 3/3/1 
f 3/3/1 4/4/1 5/5/1 
f 5/5/1 6/6/1 7/7/1 
f 3/3/1 5/5/1 7/7/1 
f 1/1/1 3/3/1 7/7/1 
f 1/1/1 7/7/1 8/8/1 
f 9/9/1 1/1/1 8/8/1 
f 8/10/2 7/11/2 10/12/2 
f 10/12/2 11/13/2 8/10/2 
f 7/14/3 6/15/3 12/16/3 
f 12/16/3 10/17/3 7/14/3 
f 6/15/4 5/18/4 13/19/4 
f 13/19/4 12/16/4 6/15/4 
f 5/20/5 4/21/6 14/22/5 
f 14/22/5 13/23/7 5/20/5 
f 4/21/8 3/24/8 15/25/8 
f 15/25/8 14/22/8 4/21/8 
f 3/24/9 2/26/9 16/27/9 
f 16/27/9 15/25/9 3/24/9 
f 2/28/10 1/29/10 17/30/10 
f 17/30/10 16/31/10 2/28/10 
f 1/29/11 9/32/11 18/33/12 
f 18/33/12 17/30/12 1/29/11 
f 9/34/13 8/10/13 11/13/13 
f 11/13/13 18/35/13 9/34/13 
f 19/36/14 20/37/14 21/38/14 
f 21/38/14 22/39/14 23/40/14 
f 23/40/14 24/41/14 25/42/14 
f 21/38/14 23/40/14 25/42/14 
f 19/36/14 21/38/14 25/42/14 
f 19/36/14 25/42/14 26/43/14 
f 27/44/14 19/36/14 26/43/14 
f 11/13/15 10/12/15 28/45/15 
f 28/45/15 29/46/15 11/13/15 
f 10/17/16 12/16/16 30/47/16 
f 30/47/16 28/48/16 10/17/16 
f 12/16/17 13/19/17 31/49/17 
f 31/49/17 30/47/17 12/16/17 
f 13/23/18 14/22/18 32/50/18 
f 32/50/18 31/51/18 13/23/18 
f 14/22/19 15/25/19 33/52/19 
f 33/52/19 32/50/19 14/22/19 
f 15/25/20 16/27/20 34/53/20 
f 34/53/20 33/52/20 15/25/20 
f 16/31/21 17/30/21 35/54/21 
f 35/54/21 34/55/21 16/31/21 
f 17/30/22 18/33/22 36/56/22 
f 36/56/22 35/54/22 17/30/22 
f 18/35/23 11/13/23 29/46/23 
f 29/46/23 36/57/23 18/35/23 
f 29/46/24 28/45/24 37/58/24 
f 37/58/24 38/59/24 29/46/24 
f 28/48/25 30/47/25 39/60/25 
f 39/60/25 37/61/25 28/48/25 
f 30/47/26 31/49/26 40/62/26 
f 40/62/26 39/60/26 30/47/26 
f 31/51/27 32/50/27 41/63/27 
f 41/63/27 40/64/27 31/51/27 
f 32/50/28 33/52/28 42/65/28 
f 42/65/28 41/63/28 32/50/28 
f 33/52/29 34/53/29 43/66/29 
f 43/66/29 42/65/29 33/52/29 
f 34/55/30 35/54/30 44/67/30 
f 44/67/30 43/68/30 34/55/30 
f 35/54/31 36/56/31 45/69/31 
f 45/69/31 44/67/31 35/54/31 
f 36/57/32 29/46/32 38/59/32 
f 38/59/32 45/70/32 36/57/32 
f 38/59/33 37/58/33 46/71/33 
f 46/71/33 47/72/33 38/59/33 
f 37/61/34 39/60/34 48/73/34 
f 48/73/34 46/74/34 37/61/34 
f 39/60/35 40/62/35 49/75/35 
f 49/75/35 48/73/35 39/60/35 
f 40/64/36 41/63/36 50/76/36 
f 50/76/36 49/77/36 40/64/36 
f 41/63/37 42/65/37 51/78/37 
f 51/78/37 50/76/37 41/63/37 
f 42/65/38 43/66/38 52/79/38 
f 52/79/38 51/78/38 42/65/38 
f 43/68/39 44/67/39 53/80/39 
f 53/80/39 52/81/39 43/68/39 
f 44/67/40 45/69/40 54/82/40 
f 54/82/40 53/80/40 44/67/40 
f 45/70/41 38/59/41 47/72/41 
f 47/72/41 54/83/41 45/70/41 
f 47/72/42 46/71/42 20/84/43 
f 20/84/43 19/85/43 47/72/42 
f 46/74/44 48/73/44 21/86/44 
f 21/86/44 20/87/44 46/74/44 
f 48/73/45 49/75/45 22/88/46 
f 22/88/46 21/86/46 48/73/45 
f 49/77/47 50/76/47 23/89/47 
f 23/89/47 22/90/47 49/77/47 
f 50/76/48 51/78/48 24/91/49 
f 24/91/49 23/89/49 50/76/48 
f 51/78/50 52/79/50 25/92/50 
f 25/92/50 24/91/50 51/78/50 
f 52/81/51 53/80/51 26/93/51 
f 26/93/51 25/94/51 52/81/51 
f 53/80/52 54/82/52 27/95/53 
f 27/95/53 26/93/53 53/80/52 
f 54/83/54 47/72/54 19/85/54 
f 19/85/54 27/96/54 54/83/54 
f 55/97/55 56/98/55 57/99/55 
f 57/99/55 58/100/55 55/97/55 
f 59/101/56 60/102/56 61/103/56 
f 61/103/56 62/104/56 59/101/56 
f 55/105/8 58/106/8 60/107/8 
f 60/107/8 59/108/8 55/105/8 
f 58/106/57 57/109/57 61/110/57 
f 61/110/57 60/107/57 58/106/57 
f 57/111/58 56/112/58 62/113/58 
f 62/113/58 61/114/58 57/111/58 
f 56/112/59 55/115/59 59/116/59 
f 59/116/59 62/113/59 56/112/59 
f 63/117/60 64/118/60 65/119/60 
f 65/119/60 66/120/60 63/117/60 
f 67/121/61 68/122/61 69/123/61 
f 69/123/61 70/124/61 67/121/61 
f 63/125/58 67/126/58 70/127/58 
f 70/127/58 64/128/58 63/125/58 
f 64/128/62 70/127/62 69/129/62 
f 69/129/62 65/130/62 64/128/62 
f 65/131/8 69/132/8 68/133/8 
f 68/133/8 66/134/8 65/131/8 
f 66/134/63 68/133/63 67/135/63 
f 67/135/63 63/136/63 66/134/63 
# 128 faces

