# 3ds Max Wavefront OBJ Exporter v0.97b - (c)2007 guruware
# File Created: 02.02.2021 18:39:32

#
# object Pocion004
#

v  0.7906 0.0000 0.9516
v  0.0000 0.0000 1.3458
v  -0.7906 0.0000 0.9516
v  -1.1181 0.0000 0.0000
v  -0.7906 0.0000 -0.9516
v  -0.0000 0.0000 -1.3458
v  0.7906 0.0000 -0.9516
v  1.1181 0.0000 0.0000
v  1.2002 0.9540 -1.2002
v  1.6973 0.9540 -0.0000
v  -0.0000 0.9540 -1.6973
v  -1.2002 0.9540 -1.2002
v  -1.6973 0.9540 0.0000
v  -1.2002 0.9540 1.2002
v  0.0000 0.9540 1.6973
v  1.2002 0.9540 1.2002
v  1.1046 1.9205 -1.1704
v  1.5621 1.9205 -0.0000
v  -0.0000 1.9205 -1.6552
v  -1.1046 1.9205 -1.1704
v  -1.5621 1.9205 0.0000
v  -1.1046 1.9205 1.1704
v  0.0000 1.9205 1.6552
v  1.1046 1.9205 1.1704
v  0.5342 2.8645 -0.6430
v  0.7555 2.8645 -0.0000
v  -0.0000 2.8645 -0.9094
v  -0.5342 2.8645 -0.6430
v  -0.7555 2.8645 0.0000
v  -0.5342 2.8645 0.6430
v  0.0000 2.8645 0.9094
v  0.5342 2.8645 0.6430
v  0.5342 3.7817 0.6430
v  0.7555 3.7817 -0.0000
v  0.5342 3.7817 -0.6430
v  -0.0000 3.7817 -0.9094
v  -0.5342 3.7817 -0.6430
v  -0.7555 3.7817 0.0000
v  -0.5342 3.7817 0.6430
v  0.0000 3.7817 0.9094
v  0.5140 5.0285 0.6540
v  0.7391 5.0285 -0.0000
v  0.5140 5.0285 -0.6540
v  -0.0000 5.0285 -0.9103
v  -0.5140 5.0285 -0.6540
v  -0.7391 5.0285 0.0000
v  -0.5140 5.0285 0.6540
v  0.0000 5.0285 0.9103
v  0.6221 3.7817 0.7488
v  0.8797 3.7817 -0.0000
v  0.8797 4.1145 -0.0000
v  0.6221 4.1145 0.7488
v  0.6221 3.7817 -0.7488
v  0.6221 4.1145 -0.7488
v  -0.0000 3.7817 -1.0589
v  -0.0000 4.1145 -1.0589
v  -0.6221 3.7817 -0.7488
v  -0.6221 4.1145 -0.7488
v  -0.8797 3.7817 0.0000
v  -0.8797 4.1145 0.0000
v  -0.6221 3.7817 0.7488
v  -0.6221 4.1145 0.7488
v  0.0000 3.7817 1.0589
v  0.0000 4.1145 1.0589
v  0.5139 4.1145 -0.0000
v  0.3411 4.1145 0.5024
v  0.3411 4.1145 -0.5024
v  -0.0000 4.1145 -0.6725
v  -0.3411 4.1145 -0.5024
v  -0.5139 4.1145 0.0000
v  -0.3411 4.1145 0.5024
v  0.0000 4.1145 0.6725
# 72 vertices

vn 0.4330 -0.8081 0.3992
vn 0.0000 -0.7610 0.6488
vn -0.4330 -0.8081 0.3992
vn -0.5365 -0.8439 0.0000
vn -0.4330 -0.8081 -0.3992
vn -0.0000 -0.7610 -0.6488
vn 0.4330 -0.8081 -0.3992
vn 0.5365 -0.8439 -0.0000
vn 0.7071 -0.1863 -0.6822
vn 0.9792 -0.2028 -0.0000
vn -0.0000 -0.1629 -0.9866
vn -0.7071 -0.1863 -0.6822
vn -0.9792 -0.2028 0.0000
vn -0.7071 -0.1863 0.6822
vn 0.0000 -0.1629 0.9866
vn 0.7071 -0.1863 0.6822
vn 0.6609 0.3861 -0.6435
vn 0.9078 0.4193 -0.0000
vn -0.0000 0.3514 -0.9362
vn -0.6609 0.3861 -0.6435
vn -0.9078 0.4193 0.0000
vn -0.6609 0.3861 0.6435
vn -0.0000 0.3514 0.9362
vn 0.6609 0.3861 0.6435
vn 0.6911 0.3988 -0.6027
vn 0.9149 0.4037 -0.0000
vn -0.0000 0.3945 -0.9189
vn -0.6911 0.3988 -0.6027
vn -0.9149 0.4037 0.0000
vn -0.6911 0.3988 0.6027
vn -0.0000 0.3945 0.9189
vn 0.6911 0.3988 0.6027
vn 0.5833 0.6310 0.5115
vn 0.7677 0.6408 -0.0000
vn 0.5833 0.6310 -0.5115
vn -0.0000 0.6191 -0.7853
vn -0.5833 0.6310 -0.5115
vn -0.7678 0.6407 0.0000
vn -0.5833 0.6310 0.5115
vn -0.0000 0.6191 0.7853
vn 0.6400 0.5249 0.5611
vn 0.8438 0.5366 -0.0000
vn 0.6400 0.5249 -0.5611
vn -0.0000 0.5100 -0.8602
vn -0.6400 0.5249 -0.5611
vn -0.8438 0.5366 -0.0000
vn -0.6400 0.5249 0.5611
vn 0.0000 0.5100 0.8602
vn 0.5833 -0.6310 0.5115
vn 0.7678 -0.6406 -0.0000
vn 0.7678 0.6407 0.0000
vn 0.5833 -0.6310 -0.5115
vn -0.0000 -0.6191 -0.7853
vn -0.5833 -0.6310 -0.5115
vn -0.7678 -0.6407 0.0000
vn -0.5833 -0.6310 0.5115
vn -0.0000 -0.6191 0.7853
vn 0.7153 0.6989 -0.0000
vn 0.5254 0.7154 0.4607
vn 0.5254 0.7154 -0.4607
vn 0.0000 0.7373 -0.6756
vn -0.5254 0.7154 -0.4607
vn -0.7153 0.6989 -0.0000
vn -0.5254 0.7154 0.4607
vn 0.0000 0.7373 0.6756
# 65 vertex normals

vt 0.0406 0.5202 0.0000
vt 0.0732 0.5164 0.0000
vt 0.0958 0.5403 0.0000
vt 0.0952 0.5777 0.0000
vt 0.0716 0.6068 0.0000
vt 0.0390 0.6106 0.0000
vt 0.0163 0.5867 0.0000
vt 0.0170 0.5493 0.0000
vt 0.0924 0.2400 0.0000
vt 0.0924 0.0787 0.0000
vt 0.2359 0.0366 0.0000
vt 0.2359 0.2400 0.0000
vt 0.0924 0.3739 0.0000
vt 0.2359 0.4433 0.0000
vt 0.0924 0.1060 0.0000
vt 0.0919 0.4020 0.0000
vt 0.0909 0.2408 0.0000
vt 0.2344 0.2399 0.0000
vt 0.2357 0.4432 0.0000
vt 0.0899 0.0796 0.0000
vt 0.2331 0.0366 0.0000
vt 0.0924 0.4012 0.0000
vt 0.3813 0.0417 0.0000
vt 0.3813 0.2400 0.0000
vt 0.3813 0.4271 0.0000
vt 0.3813 0.0528 0.0000
vt 0.3798 0.2390 0.0000
vt 0.3810 0.4373 0.0000
vt 0.3785 0.0407 0.0000
vt 0.3813 0.4382 0.0000
vt 0.5233 0.1310 0.0000
vt 0.5233 0.2400 0.0000
vt 0.5233 0.3304 0.0000
vt 0.5233 0.1495 0.0000
vt 0.5218 0.2381 0.0000
vt 0.5225 0.3470 0.0000
vt 0.5211 0.1292 0.0000
vt 0.5233 0.3489 0.0000
vt 0.9711 0.5663 0.0000
vt 0.9692 0.6733 0.0000
vt 0.9018 0.7565 0.0000
vt 0.8085 0.7671 0.0000
vt 0.7438 0.6990 0.0000
vt 0.7457 0.5920 0.0000
vt 0.8131 0.5088 0.0000
vt 0.9064 0.4982 0.0000
vt 0.6612 0.1310 0.0000
vt 0.6612 0.2400 0.0000
vt 0.6612 0.3304 0.0000
vt 0.6612 0.1495 0.0000
vt 0.6598 0.2372 0.0000
vt 0.6604 0.3462 0.0000
vt 0.6591 0.1283 0.0000
vt 0.6612 0.3489 0.0000
vt 0.7037 0.5637 0.0000
vt 0.7018 0.6726 0.0000
vt 0.6333 0.7572 0.0000
vt 0.5435 0.7674 0.0000
vt 0.4813 0.7019 0.0000
vt 0.4832 0.5930 0.0000
vt 0.5517 0.5084 0.0000
vt 0.6415 0.4982 0.0000
vt 0.0239 0.9363 0.0000
vt 0.1119 0.9363 0.0000
vt 0.1119 0.9710 0.0000
vt 0.0239 0.9710 0.0000
vt 0.1998 0.9363 0.0000
vt 0.1998 0.9710 0.0000
vt 0.2225 0.6749 0.0000
vt 0.2956 0.6749 0.0000
vt 0.2956 0.7096 0.0000
vt 0.2225 0.7096 0.0000
vt 0.3686 0.6749 0.0000
vt 0.3686 0.7096 0.0000
vt 0.2021 0.6171 0.0000
vt 0.2901 0.6171 0.0000
vt 0.2901 0.6519 0.0000
vt 0.2021 0.6519 0.0000
vt 0.3780 0.6171 0.0000
vt 0.3780 0.6519 0.0000
vt 0.0256 0.8548 0.0000
vt 0.0987 0.8548 0.0000
vt 0.0987 0.8895 0.0000
vt 0.0256 0.8895 0.0000
vt 0.1717 0.8548 0.0000
vt 0.1717 0.8895 0.0000
vt 0.0239 0.7917 0.0000
vt 0.0255 0.6987 0.0000
vt 0.0659 0.7134 0.0000
vt 0.0648 0.7758 0.0000
vt 0.0841 0.6264 0.0000
vt 0.1052 0.6649 0.0000
vt 0.1652 0.6171 0.0000
vt 0.1497 0.6598 0.0000
vt 0.2214 0.6764 0.0000
vt 0.1805 0.6923 0.0000
vt 0.2198 0.7694 0.0000
vt 0.1794 0.7547 0.0000
vt 0.1612 0.8417 0.0000
vt 0.1401 0.8032 0.0000
vt 0.0801 0.8509 0.0000
vt 0.0956 0.8083 0.0000
vt 0.8438 0.9265 0.0000
vt 0.8438 0.8474 0.0000
vt 0.9715 0.8474 0.0000
vt 0.9715 0.9503 0.0000
vt 0.8438 0.7683 0.0000
vt 0.9715 0.7445 0.0000
vt 0.6618 0.7282 0.0000
vt 0.7155 0.7282 0.0000
vt 0.7155 0.8559 0.0000
vt 0.6346 0.8559 0.0000
vt 0.7692 0.7282 0.0000
vt 0.7964 0.8559 0.0000
vt 0.6090 0.7823 0.0000
vt 0.6090 0.8614 0.0000
vt 0.4813 0.8614 0.0000
vt 0.4813 0.7584 0.0000
vt 0.6090 0.9404 0.0000
vt 0.4813 0.9643 0.0000
vt 0.6293 0.8583 0.0000
vt 0.6830 0.8583 0.0000
vt 0.6830 0.9861 0.0000
vt 0.6021 0.9861 0.0000
vt 0.7367 0.8583 0.0000
vt 0.7639 0.9861 0.0000
vt 0.3174 0.9622 0.0000
vt 0.2363 0.9714 0.0000
vt 0.1801 0.9122 0.0000
vt 0.1817 0.8192 0.0000
vt 0.2402 0.7469 0.0000
vt 0.3214 0.7377 0.0000
vt 0.3776 0.7969 0.0000
vt 0.3759 0.8899 0.0000
# 134 texture coords

o Pocion004
g Pocion004
s 1
f 1/1/1 2/2/2 3/3/3 4/4/4 5/5/5 6/6/6 7/7/7 8/8/8 
s 2
f 8/9/8 7/10/7 9/11/9 10/12/10 
s 4
f 7/13/7 6/9/6 11/12/11 9/14/9 
s 2
f 6/9/6 5/15/5 12/11/12 11/12/11 
s 4
f 5/16/5 4/17/4 13/18/13 12/19/12 
s 2
f 4/17/4 3/20/3 14/21/14 13/18/13 
s 4
f 3/13/3 2/9/2 15/12/15 14/14/14 
s 2
f 2/9/2 1/15/1 16/11/16 15/12/15 
s 4
f 1/22/1 8/9/8 10/12/10 16/14/16 
s 1
f 9/11/9 17/23/17 18/24/18 10/12/10 
s 8
f 11/12/11 19/24/19 17/25/17 9/14/9 
s 1
f 12/11/12 20/26/20 19/24/19 11/12/11 
s 8
f 13/18/13 21/27/21 20/28/20 12/19/12 
s 1
f 14/21/14 22/29/22 21/27/21 13/18/13 
s 8
f 15/12/15 23/24/23 22/25/22 14/14/14 
s 1
f 16/11/16 24/26/24 23/24/23 15/12/15 
s 8
f 10/12/10 18/24/18 24/30/24 16/14/16 
s 2
f 17/23/17 25/31/25 26/32/26 18/24/18 
s 4
f 19/24/19 27/32/27 25/33/25 17/25/17 
s 2
f 20/26/20 28/34/28 27/32/27 19/24/19 
s 4
f 21/27/21 29/35/29 28/36/28 20/28/20 
s 2
f 22/29/22 30/37/30 29/35/29 21/27/21 
s 4
f 23/24/23 31/32/31 30/33/30 22/25/22 
s 2
f 24/26/24 32/34/32 31/32/31 23/24/23 
s 4
f 18/24/18 26/32/26 32/38/32 24/30/24 
s 1
f 33/39/33 34/40/34 35/41/35 36/42/36 37/43/37 38/44/38 39/45/39 40/46/40 
s 8
f 26/32/26 25/31/25 35/47/35 34/48/34 
s 16
f 25/33/25 27/32/27 36/48/36 35/49/35 
s 8
f 27/32/27 28/34/28 37/50/37 36/48/36 
s 16
f 28/36/28 29/35/29 38/51/38 37/52/37 
s 8
f 29/35/29 30/37/30 39/53/39 38/51/38 
s 16
f 30/33/30 31/32/31 40/48/40 39/49/39 
s 8
f 31/32/31 32/34/32 33/50/33 40/48/40 
s 16
f 32/38/32 26/32/26 34/48/34 33/54/33 
s 1
f 41/55/41 42/56/42 43/57/43 44/58/44 45/59/45 46/60/46 47/61/47 48/62/48 
f 49/63/49 50/64/50 51/65/51 52/66/33 
s 2
f 50/64/50 53/67/52 54/68/35 51/65/51 
s 1
f 53/69/52 55/70/53 56/71/36 54/72/35 
s 2
f 55/70/53 57/73/54 58/74/37 56/71/36 
s 1
f 57/75/54 59/76/55 60/77/38 58/78/37 
s 2
f 59/76/55 61/79/56 62/80/39 60/77/38 
s 1
f 61/81/56 63/82/57 64/83/40 62/84/39 
s 2
f 63/82/57 49/85/49 52/86/33 64/83/40 
s 4
f 52/87/33 51/88/51 65/89/58 66/90/59 
f 51/88/51 54/91/35 67/92/60 65/89/58 
f 54/91/35 56/93/36 68/94/61 67/92/60 
f 56/93/36 58/95/37 69/96/62 68/94/61 
f 58/95/37 60/97/38 70/98/63 69/96/62 
f 60/97/38 62/99/39 71/100/64 70/98/63 
f 62/99/39 64/101/40 72/102/65 71/100/64 
f 64/101/40 52/87/33 66/90/59 72/102/65 
s 2
f 66/103/59 65/104/58 42/105/42 41/106/41 
s 8
f 65/104/58 67/107/60 43/108/43 42/105/42 
s 2
f 67/109/60 68/110/61 44/111/44 43/112/43 
s 8
f 68/110/61 69/113/62 45/114/45 44/111/44 
s 2
f 69/115/62 70/116/63 46/117/46 45/118/45 
s 8
f 70/116/63 71/119/64 47/120/47 46/117/46 
s 2
f 71/121/64 72/122/65 48/123/48 47/124/47 
s 8
f 72/122/65 66/125/59 41/126/41 48/123/48 
s 4
f 49/127/49 63/128/57 61/129/56 59/130/55 57/131/54 55/132/53 53/133/52 50/134/50 
# 60 polygons

