# 3ds Max Wavefront OBJ Exporter v0.97b - (c)2007 guruware
# File Created: 04.02.2021 03:57:08

#
# object Box087
#

v  -153.6641 3.2936 559.4335
v  -153.6641 3.2936 563.5505
v  -153.6641 -0.0000 563.5505
v  -153.6641 -0.0000 559.4335
v  -237.6393 3.2936 559.4335
v  -237.6393 3.2936 563.5505
v  -237.6393 -0.0000 563.5505
v  -237.6393 -0.0000 559.4335
# 8 vertices

vn 0.5774 0.5774 -0.5774
vn 0.5774 0.5774 0.5774
vn 0.5774 -0.5774 0.5774
vn 0.5774 -0.5774 -0.5774
vn -0.5774 0.5774 -0.5774
vn -0.5774 0.5774 0.5774
vn -0.5774 -0.5774 0.5774
vn -0.5774 -0.5774 -0.5774
# 8 vertex normals

vt 0.4436 0.4835 0.0000
vt 0.6705 0.4835 0.0000
vt 0.6705 0.2832 0.0000
vt 0.4436 0.2832 0.0000
vt -0.0000 0.1858 0.0000
vt 1.0000 0.1858 0.0000
vt 1.0000 0.7801 0.0000
vt -0.0000 0.7801 0.0000
vt 0.1858 1.0000 0.0000
vt 0.1858 -0.0000 0.0000
vt 0.7801 -0.0000 0.0000
vt 0.7801 1.0000 0.0000
vt 0.8142 1.0000 0.0000
vt 0.2199 1.0000 0.0000
vt 0.2199 0.0000 0.0000
vt 0.8142 0.0000 0.0000
vt 0.2025 0.2832 0.0000
vt 0.2025 0.4835 0.0000
vt 0.4294 0.4835 0.0000
vt 0.4294 0.2832 0.0000
# 20 texture coords

o Box087
g Box087
s 1
f 1/1/1 2/2/2 3/3/3 4/4/4 
s 4
f 5/5/5 6/6/6 2/7/2 1/8/1 
s 16
f 6/9/6 7/10/7 3/11/3 2/12/2 
s 64
f 5/13/5 1/14/1 4/15/4 8/16/8 
s 2
f 8/6/8 4/7/4 3/8/3 7/5/7 
s 1
f 7/17/7 6/18/6 5/19/5 8/20/8 
# 6 polygons

