# 3ds Max Wavefront OBJ Exporter v0.97b - (c)2007 guruware
# File Created: 04.02.2021 03:56:56

#
# object Box109
#

v  -153.6641 -0.0000 563.5505
v  -149.5471 -0.0000 563.5505
v  -149.5471 3.2936 563.5505
v  -153.6641 3.2936 563.5505
v  -153.6641 3.2936 464.1523
v  -149.5471 3.2936 464.1523
v  -149.5471 -0.0000 464.1523
v  -153.6641 -0.0000 464.1523
# 8 vertices

vn -0.5774 -0.5774 0.5774
vn 0.5774 -0.5774 0.5774
vn 0.5774 0.5774 0.5774
vn -0.5774 0.5774 0.5774
vn -0.5774 0.5774 -0.5774
vn 0.5774 0.5774 -0.5774
vn 0.5774 -0.5774 -0.5774
vn -0.5774 -0.5774 -0.5774
# 8 vertex normals

vt 0.7047 0.5380 0.0000
vt 0.4343 0.5380 0.0000
vt 0.4343 0.7202 0.0000
vt 0.7047 0.7202 0.0000
vt 1.0000 0.1320 0.0000
vt 1.0000 0.8355 0.0000
vt -0.0000 0.8355 0.0000
vt -0.0000 0.1320 0.0000
vt 0.8680 1.0000 0.0000
vt 0.1645 1.0000 0.0000
vt 0.1645 0.0000 0.0000
vt 0.8680 0.0000 0.0000
vt 0.1320 1.0000 0.0000
vt 0.1320 -0.0000 0.0000
vt 0.8355 -0.0000 0.0000
vt 0.8355 1.0000 0.0000
vt 0.0000 0.1320 0.0000
vt 0.5657 0.5380 0.0000
vt 0.2953 0.5380 0.0000
vt 0.2953 0.7202 0.0000
vt 0.5657 0.7202 0.0000
# 21 texture coords

o Box109
g Box109
s 1
f 1/1/1 2/2/2 3/3/3 4/4/4 
s 4
f 5/5/5 4/6/4 3/7/3 6/8/6 
s 64
f 6/9/6 3/10/3 2/11/2 7/12/7 
s 16
f 5/13/5 8/14/8 1/15/1 4/16/4 
s 2
f 8/17/8 7/5/7 2/6/2 1/7/1 
s 1
f 7/18/7 8/19/8 5/20/5 6/21/6 
# 6 polygons

