# 3ds Max Wavefront OBJ Exporter v0.97b - (c)2007 guruware
# File Created: 04.02.2021 04:34:53

#
# object Box104
#

v  -266.4426 -0.0000 263.2591
v  -266.4426 -0.0000 259.1422
v  -266.4426 3.2936 259.1422
v  -266.4426 3.2936 263.2591
v  -348.9902 -0.0000 259.1422
v  -348.9902 -0.0000 263.2591
v  -348.9902 3.2936 259.1422
v  -348.9902 3.2936 263.2591
# 8 vertices

vn 0.5774 -0.5774 0.5774
vn 0.5774 -0.5774 -0.5774
vn 0.5774 0.5774 -0.5774
vn 0.5774 0.5774 0.5774
vn -0.5774 -0.5774 -0.5774
vn -0.5774 -0.5774 0.5774
vn -0.5774 0.5774 -0.5774
vn -0.5774 0.5774 0.5774
# 8 vertex normals

vt 0.0000 0.0000 0.0000
vt 1.0000 0.0000 0.0000
vt 1.0000 1.0000 0.0000
vt 0.0000 1.0000 0.0000
vt 0.0000 0.8778 0.0000
vt 1.0000 0.8778 0.0000
vt 0.8778 -0.0000 0.0000
vt 0.8778 1.0000 0.0000
vt 0.1222 1.0000 0.0000
vt 0.1222 0.0000 0.0000
vt -0.0000 0.8778 0.0000
vt 0.4943 0.3002 0.0000
vt 0.2036 0.3002 0.0000
vt 0.2036 0.5752 0.0000
vt 0.4943 0.5752 0.0000
# 15 texture coords

o Box104
g Box104
s 8
f 1/1/1 2/2/2 3/3/3 4/4/4 
s 2
f 5/5/5 2/1/2 1/2/1 6/6/6 
s 16
f 3/4/3 2/1/2 5/7/5 7/8/7 
s 64
f 4/3/4 8/9/8 6/10/6 1/2/1 
s 4
f 4/1/4 3/2/3 7/6/7 8/11/8 
s 1
f 5/12/5 6/13/6 8/14/8 7/15/7 
# 6 polygons

#
# object Box106
#

v  -348.9902 -0.0000 341.4283
v  -344.8733 -0.0000 341.4283
v  -344.8733 3.2936 341.4283
v  -348.9902 3.2936 341.4283
v  -344.8733 -0.0000 259.1422
v  -344.8733 3.2936 259.1422
v  -348.9902 -0.0000 259.1422
v  -348.9902 3.2936 259.1422
# 8 vertices

vn -0.5774 -0.5774 0.5774
vn 0.5774 -0.5774 0.5774
vn 0.5774 0.5774 0.5774
vn -0.5774 0.5774 0.5774
vn 0.5774 -0.5774 -0.5774
vn 0.5774 0.5774 -0.5774
vn -0.5774 -0.5774 -0.5774
vn -0.5774 0.5774 -0.5774
# 8 vertex normals

vt 0.6593 0.1487 0.0000
vt 0.4865 0.1487 0.0000
vt 0.4865 0.3268 0.0000
vt 0.6593 0.3268 0.0000
vt 0.9348 -0.0000 0.0000
vt 0.9348 1.0000 0.0000
vt 0.0727 1.0000 0.0000
vt 0.0727 0.0000 0.0000
vt -0.0000 0.9273 0.0000
vt -0.0000 0.0652 0.0000
vt 1.0000 0.0652 0.0000
vt 1.0000 0.9273 0.0000
vt 0.9273 -0.0000 0.0000
vt 0.9273 1.0000 0.0000
vt 0.0652 1.0000 0.0000
vt 0.0652 -0.0000 0.0000
vt 0.4008 0.5751 0.0000
vt 0.6720 0.5751 0.0000
vt 0.6720 0.3002 0.0000
vt 0.4008 0.3002 0.0000
# 20 texture coords

o Box106
g Box106
s 1
f 9/16/9 10/17/10 11/18/11 12/19/12 
s 64
f 13/20/13 14/21/14 11/22/11 10/23/10 
s 2
f 9/24/9 15/25/15 13/26/13 10/27/10 
s 4
f 12/27/12 11/24/11 14/25/14 16/26/16 
s 16
f 9/28/9 12/29/12 16/30/16 15/31/15 
s 1
f 16/32/16 14/33/14 13/34/13 15/35/15 
# 6 polygons

