# 3ds Max Wavefront OBJ Exporter v0.97b - (c)2007 guruware
# File Created: 04.02.2021 03:57:44

#
# object Box112
#

v  -237.6392 -0.0000 468.2693
v  -237.6392 3.2936 468.2693
v  -237.6392 3.2936 464.1523
v  -237.6392 -0.0000 464.1523
v  -216.1201 -0.0000 468.2693
v  -216.1201 3.2936 468.2693
v  -216.1201 -0.0000 464.1523
v  -216.1201 3.2936 464.1523
# 8 vertices

vn -0.5773 -0.5774 0.5774
vn -0.5773 0.5774 0.5774
vn -0.5774 0.5774 -0.5773
vn -0.5774 -0.5774 -0.5773
vn 0.5774 -0.5774 0.5774
vn 0.5774 0.5774 0.5774
vn 0.5774 -0.5774 -0.5774
vn 0.5774 0.5774 -0.5774
# 8 vertex normals

vt 0.2953 0.5380 0.0000
vt 0.2953 0.7202 0.0000
vt 0.5657 0.7202 0.0000
vt 0.5657 0.5380 0.0000
vt 0.1320 1.0000 0.0000
vt 0.1320 -0.0000 0.0000
vt 0.5674 -0.0000 0.0000
vt 0.5674 1.0000 0.0000
vt 0.0000 0.1320 0.0000
vt 1.0000 0.1320 0.0000
vt 1.0000 0.5674 0.0000
vt -0.0000 0.5674 0.0000
vt -0.0000 0.1320 0.0000
vt 0.4326 1.0000 0.0000
vt 0.4326 0.0000 0.0000
vt 0.8680 0.0000 0.0000
vt 0.8680 1.0000 0.0000
vt 0.4163 0.6831 0.0000
vt 0.7091 0.6831 0.0000
vt 0.7091 0.3831 0.0000
vt 0.4163 0.3831 0.0000
# 21 texture coords

o Box112
g Box112
s 1
f 1/1/1 2/2/2 3/3/3 4/4/4 
s 16
f 2/5/2 1/6/1 5/7/5 6/8/6 
s 2
f 1/9/1 4/10/4 7/11/7 5/12/5 
s 4
f 2/10/2 6/11/6 8/12/8 3/13/3 
s 64
f 8/14/8 7/15/7 4/16/4 3/17/3 
s 1
f 8/18/8 6/19/6 5/20/5 7/21/7 
# 6 polygons

#
# object Box273
#

v  -216.1201 -0.0000 452.7620
v  -220.2371 -0.0000 452.7620
v  -220.2371 3.2936 452.7620
v  -216.1201 3.2936 452.7620
v  -216.1201 3.2936 464.1523
v  -216.1201 -0.0000 464.1523
v  -220.2371 -0.0000 464.1523
v  -220.2371 3.2936 464.1523
# 8 vertices

vn 0.5774 -0.5774 -0.5774
vn -0.5774 -0.5774 -0.5774
vn -0.5774 0.5774 -0.5774
vn 0.5774 0.5774 -0.5774
vn 0.5774 0.5774 0.5774
vn 0.5774 -0.5774 0.5774
vn -0.5774 -0.5774 0.5773
vn -0.5774 0.5774 0.5773
# 8 vertex normals

vt 0.0000 0.0000 0.0000
vt 1.0000 0.0000 0.0000
vt 1.0000 1.0000 0.0000
vt 0.0000 1.0000 0.0000
vt 0.0727 1.0000 0.0000
vt 0.0727 0.0000 0.0000
vt 1.0000 0.9273 0.0000
vt -0.0000 0.9273 0.0000
vt 0.9273 -0.0000 0.0000
vt 0.9273 1.0000 0.0000
vt 0.6593 0.1487 0.0000
vt 0.4865 0.1487 0.0000
vt 0.4865 0.3268 0.0000
vt 0.6593 0.3268 0.0000
# 14 texture coords

o Box273
g Box273
s 8
f 9/22/9 10/23/10 11/24/11 12/25/12 
s 64
f 12/24/12 13/26/13 14/27/14 9/23/9 
s 2
f 9/23/9 14/28/14 15/29/15 10/22/10 
s 4
f 12/22/12 11/23/11 16/28/16 13/29/13 
s 16
f 15/30/15 16/31/16 11/25/11 10/22/10 
s 1
f 15/32/15 14/33/14 13/34/13 16/35/16 
# 6 polygons

