# 3ds Max Wavefront OBJ Exporter v0.97b - (c)2007 guruware
# File Created: 04.02.2021 22:07:51

#
# object Box281
#

v  -413.0410 -0.0000 440.8266
v  -413.0410 3.2936 440.8266
v  -413.0410 3.2936 436.7097
v  -413.0410 -0.0000 436.7097
v  -388.5551 -0.0000 440.8266
v  -388.5551 -0.0000 436.7097
v  -388.5551 3.2936 440.8266
v  -388.5551 3.2936 436.7097
# 8 vertices

vn -0.5774 -0.5774 0.5774
vn -0.5774 0.5774 0.5774
vn -0.5774 0.5774 -0.5774
vn -0.5774 -0.5774 -0.5774
vn 0.5774 -0.5774 0.5774
vn 0.5774 -0.5774 -0.5774
vn 0.5774 0.5774 0.5774
vn 0.5774 0.5774 -0.5774
# 8 vertex normals

vt 0.2025 0.2832 0.0000
vt 0.2025 0.4835 0.0000
vt 0.4294 0.4835 0.0000
vt 0.4294 0.2832 0.0000
vt 0.0000 0.3010 0.0000
vt 0.0000 0.1858 0.0000
vt 1.0000 0.1858 0.0000
vt 1.0000 0.3010 0.0000
vt 0.3010 -0.0000 0.0000
vt 0.3010 1.0000 0.0000
vt 0.1858 1.0000 0.0000
vt 0.1858 -0.0000 0.0000
vt -0.0000 0.3010 0.0000
vt -0.0000 0.1858 0.0000
vt 0.6990 1.0000 0.0000
vt 0.6990 0.0000 0.0000
vt 0.8142 0.0000 0.0000
vt 0.8142 1.0000 0.0000
vt 0.2938 -0.0000 0.0000
vt 0.2938 0.1733 0.0000
vt 0.5598 0.1733 0.0000
vt 0.5598 -0.0000 0.0000
# 22 texture coords

o Box281
g Box281
s 1
f 1/1/1 2/2/2 3/3/3 4/4/4 
s 2
f 5/5/5 1/6/1 4/7/4 6/8/6 
s 16
f 5/9/5 7/10/7 2/11/2 1/12/1 
s 4
f 7/8/7 8/13/8 3/14/3 2/7/2 
s 64
f 8/15/8 6/16/6 4/17/4 3/18/3 
s 1
f 6/19/6 8/20/8 7/21/7 5/22/5 
# 6 polygons

