# 3ds Max Wavefront OBJ Exporter v0.97b - (c)2007 guruware
# File Created: 04.02.2021 21:41:51

#
# object Suelo_018
#

v  -266.5575 -1.0066 270.5695
v  -337.4164 -1.0066 270.5695
v  -337.4164 -1.0066 204.8356
v  -266.5575 -1.0066 204.8356
v  -266.5575 0.0000 270.5695
v  -266.5575 0.0000 204.8356
v  -337.4164 0.0000 204.8356
v  -337.4164 0.0000 270.5695
# 8 vertices

vn 0.5774 -0.5774 0.5774
vn -0.5774 -0.5774 0.5774
vn -0.5774 -0.5774 -0.5774
vn 0.5774 -0.5774 -0.5774
vn 0.5774 0.5774 0.5774
vn 0.5774 0.5774 -0.5774
vn -0.5774 0.5774 -0.5774
vn -0.5774 0.5774 0.5774
# 8 vertex normals

vt 1.0000 0.0000 0.0000
vt 1.0000 1.0000 0.0000
vt 0.0000 1.0000 0.0000
vt 0.0000 0.0000 0.0000
# 4 texture coords

o Suelo_018
g Suelo_018
s 2
f 1/1/1 2/2/2 3/3/3 4/4/4 
s 4
f 5/4/5 6/1/6 7/2/7 8/3/8 
s 8
f 1/4/1 4/1/4 6/2/6 5/3/5 
s 16
f 4/4/4 3/1/3 7/2/7 6/3/6 
s 32
f 3/4/3 2/1/2 8/2/8 7/3/7 
s 64
f 2/4/2 1/1/1 5/2/5 8/3/8 
# 6 polygons

#
# object Suelo_019
#

v  -337.5629 -1.0066 270.5695
v  -337.5629 -1.0066 341.4284
v  -403.2968 -1.0066 341.4284
v  -403.2968 -1.0066 270.5695
v  -337.5629 0.0000 270.5695
v  -403.2968 0.0000 270.5695
v  -403.2968 0.0000 341.4284
v  -337.5629 0.0000 341.4284
# 8 vertices

vn 0.5774 -0.5774 -0.5774
vn 0.5774 -0.5774 0.5774
vn -0.5774 -0.5774 0.5774
vn -0.5774 -0.5774 -0.5774
vn 0.5774 0.5774 -0.5774
vn -0.5774 0.5774 -0.5774
vn -0.5774 0.5774 0.5774
vn 0.5774 0.5774 0.5774
# 8 vertex normals

vt 1.0000 0.0000 0.0000
vt 1.0000 1.0000 0.0000
vt 0.0000 1.0000 0.0000
vt 0.0000 0.0000 0.0000
# 4 texture coords

o Suelo_019
g Suelo_019
s 2
f 9/5/9 10/6/10 11/7/11 12/8/12 
s 4
f 13/8/13 14/5/14 15/6/15 16/7/16 
s 8
f 9/8/9 12/5/12 14/6/14 13/7/13 
s 16
f 12/8/12 11/5/11 15/6/15 14/7/14 
s 32
f 11/8/11 10/5/10 16/6/16 15/7/15 
s 64
f 10/8/10 9/5/9 13/6/13 16/7/16 
# 6 polygons

#
# object Suelo_020
#

v  -337.4164 -1.0066 270.5695
v  -403.2967 -1.0066 270.5695
v  -403.1499 -1.0066 234.8215
v  -383.4584 -1.0066 204.8356
v  -337.4164 -1.0066 204.8356
v  -337.4164 0.0000 270.5695
v  -337.4164 0.0000 204.8356
v  -383.4584 -0.0000 204.8356
v  -403.1499 -0.0000 234.8215
v  -403.2967 0.0000 270.5695
# 10 vertices

vn 0.5774 -0.5774 0.5774
vn -0.5782 -0.5772 0.5766
vn -0.7317 -0.6625 -0.1603
vn -0.4311 -0.6033 -0.6710
vn 0.5774 -0.5774 -0.5774
vn 0.5774 0.5774 0.5774
vn 0.5774 0.5774 -0.5774
vn -0.4311 0.6033 -0.6710
vn -0.7317 0.6625 -0.1603
vn -0.5782 0.5772 0.5766
# 10 vertex normals

vt 1.0000 0.0000 0.0000
vt 1.0000 1.0000 0.0000
vt 0.4562 1.0000 0.0000
vt 0.0000 0.3443 0.0000
vt 0.0000 0.0000 0.0000
vt 1.0000 0.3443 0.0000
vt 0.5438 1.0000 0.0000
vt 0.0000 1.0000 0.0000
vt 0.3443 0.0000 0.0000
vt 0.3443 1.0000 0.0000
vt 0.4562 0.0000 0.0000
vt -95.1920 0.0004 0.0000
vt -95.1920 1.0004 0.0000
# 13 texture coords

o Suelo_020
g Suelo_020
s 1
f 17/9/17 18/10/18 19/11/19 20/12/20 21/13/21 
f 22/13/22 23/9/23 24/14/24 25/15/25 26/16/26 
s 2
f 17/13/17 21/9/21 23/10/23 22/16/22 
s 4
f 21/13/21 20/17/20 24/18/24 23/16/23 
s 2
f 19/19/19 18/9/18 26/10/26 25/11/25 
s 4
f 18/13/18 17/9/17 22/10/22 26/16/26 
s 8
f 20/20/20 19/19/19 25/11/25 24/21/24 
# 7 polygons

#
# object Suelo_021
#

v  -324.9489 -1.0066 341.4284
v  -324.9489 -1.0066 440.8267
v  -417.1580 -1.0066 440.8266
v  -417.1580 -1.0066 341.4284
v  -324.9489 0.0000 341.4284
v  -417.1580 0.0000 341.4284
v  -417.1580 0.0000 440.8266
v  -324.9489 0.0000 440.8267
v  -349.4349 -1.0066 440.8267
v  -392.6721 -1.0066 440.8267
v  -349.4349 0.0000 440.8267
v  -392.6721 0.0000 440.8267
# 12 vertices

vn 0.5774 -0.5774 -0.5774
vn 0.5774 -0.5774 0.5774
vn -0.5774 -0.5774 0.5774
vn -0.5774 -0.5774 -0.5774
vn 0.5774 0.5774 -0.5774
vn -0.5774 0.5774 -0.5774
vn -0.5774 0.5774 0.5774
vn 0.5774 0.5774 0.5774
vn -0.7733 0.5470 -0.3206
vn -0.2971 0.6303 0.7173
vn -0.7863 -0.5451 0.2909
vn -0.2675 -0.6367 -0.7232
vn -0.7733 -0.5470 -0.3206
vn -0.2675 0.6367 -0.7232
vn -0.7863 0.5451 0.2909
vn -0.2971 -0.6303 0.7173
# 16 vertex normals

vt 1.0000 0.0000 0.0000
vt 1.0000 1.0000 0.0000
vt 0.0000 1.0000 0.0000
vt 0.0000 0.0000 0.0000
# 4 texture coords

o Suelo_021
g Suelo_021
s 2
f 27/22/27 28/23/28 29/24/29 30/25/30 
s 4
f 31/25/31 32/22/32 33/23/33 34/24/34 
s 8
f 27/25/27 30/22/30 32/23/32 31/24/31 
s 16
f 30/25/30 29/22/29 33/23/33 32/24/32 
s 32
f 29/25/29 28/22/28 34/23/34 33/24/33 
s 64
f 28/25/28 27/22/27 31/23/31 34/24/34 
s 2
f 35/22/35 35/23/36 36/24/37 36/25/38 
s 4
f 37/25/39 38/22/40 38/23/41 37/24/42 
s 8
f 35/25/35 36/22/38 38/23/40 37/24/39 
s 16
f 36/25/38 36/22/37 38/23/41 38/24/40 
s 32
f 36/25/37 35/22/36 37/23/42 38/24/41 
s 64
f 35/25/36 35/22/35 37/23/39 37/24/42 
# 12 polygons

#
# object Suelo_023
#

v  -337.5629 -1.0066 440.8267
v  -337.5629 -1.0066 558.2938
v  -403.2968 -1.0066 558.2938
v  -403.2968 -1.0066 440.8267
v  -337.5629 -0.0000 440.8267
v  -403.2968 -0.0000 440.8267
v  -403.2968 0.0000 558.2938
v  -337.5629 0.0000 558.2938
# 8 vertices

vn 0.5774 -0.5774 -0.5774
vn 0.5774 -0.5774 0.5774
vn -0.5774 -0.5774 0.5774
vn -0.5774 -0.5774 -0.5774
vn 0.5774 0.5774 -0.5774
vn -0.5774 0.5774 -0.5774
vn -0.5774 0.5774 0.5774
vn 0.5774 0.5774 0.5774
# 8 vertex normals

vt 1.0000 0.0000 0.0000
vt 1.0000 1.0000 0.0000
vt 0.0000 1.0000 0.0000
vt 0.0000 0.0000 0.0000
# 4 texture coords

o Suelo_023
g Suelo_023
s 2
f 39/26/43 40/27/44 41/28/45 42/29/46 
s 4
f 43/29/47 44/26/48 45/27/49 46/28/50 
s 8
f 39/29/43 42/26/46 44/27/48 43/28/47 
s 16
f 42/29/46 41/26/45 45/27/49 44/28/48 
s 32
f 41/29/45 40/26/44 46/27/50 45/28/49 
s 64
f 40/29/44 39/26/43 43/27/47 46/28/50 
# 6 polygons

