# 3ds Max Wavefront OBJ Exporter v0.97b - (c)2007 guruware
# File Created: 04.02.2021 22:07:22

#
# object Box115
#

v  -413.0410 -0.0000 345.5453
v  -413.0410 3.2936 345.5453
v  -413.0410 3.2936 341.4284
v  -413.0410 -0.0000 341.4284
v  -388.7518 -0.0000 345.5454
v  -388.7518 3.2936 345.5454
v  -388.7518 3.2936 341.4284
v  -388.7518 -0.0000 341.4284
# 8 vertices

vn -0.5774 -0.5773 0.5774
vn -0.5774 0.5773 0.5774
vn -0.5773 0.5774 -0.5774
vn -0.5773 -0.5774 -0.5774
vn 0.5773 -0.5774 0.5774
vn 0.5773 0.5774 0.5774
vn 0.5774 0.5773 -0.5773
vn 0.5774 -0.5773 -0.5773
# 8 vertex normals

vt 0.2953 0.5380 0.0000
vt 0.2953 0.7202 0.0000
vt 0.5657 0.7202 0.0000
vt 0.5657 0.5380 0.0000
vt 0.1320 0.0000 0.0000
vt 0.7502 -0.0000 0.0000
vt 0.7502 1.0000 0.0000
vt 0.1320 1.0000 0.0000
vt 1.0000 0.1320 0.0000
vt 1.0000 0.7502 0.0000
vt -0.0000 0.7502 0.0000
vt -0.0000 0.1320 0.0000
vt 0.8680 1.0000 0.0000
vt 0.2498 1.0000 0.0000
vt 0.2498 0.0000 0.0000
vt 0.8680 0.0000 0.0000
vt 0.0000 0.1320 0.0000
vt 0.0000 0.7502 0.0000
vt 0.2321 0.4182 0.0000
vt 0.2321 0.7866 0.0000
vt 0.6032 0.7866 0.0000
vt 0.6032 0.4182 0.0000
# 22 texture coords

o Box115
g Box115
s 1
f 1/1/1 2/2/2 3/3/3 4/4/4 
s 16
f 1/5/1 5/6/5 6/7/6 2/8/2 
s 4
f 2/9/2 6/10/6 7/11/7 3/12/3 
s 64
f 3/13/3 7/14/7 8/15/8 4/16/4 
s 2
f 1/17/1 4/9/4 8/10/8 5/18/5 
s 1
f 8/19/8 7/20/7 6/21/6 5/22/5 
# 6 polygons

