# 3ds Max Wavefront OBJ Exporter v0.97b - (c)2007 guruware
# File Created: 05.02.2021 00:01:23

#
# object Box285
#

v  -353.5518 -0.0000 440.8266
v  -353.5518 -0.0000 436.7096
v  -353.5518 3.2936 436.7096
v  -353.5518 3.2936 440.8266
v  -388.5551 -0.0000 436.7096
v  -388.5551 -0.0000 440.8266
v  -388.5551 3.2936 436.7096
v  -388.5551 3.2936 440.8266
# 8 vertices

vn 0.5774 -0.5774 0.5774
vn 0.5774 -0.5774 -0.5774
vn 0.5774 0.5774 -0.5774
vn 0.5774 0.5774 0.5774
vn -0.5774 -0.5774 -0.5774
vn -0.5774 -0.5774 0.5774
vn -0.5774 0.5774 -0.5774
vn -0.5774 0.5774 0.5774
# 8 vertex normals

vt 0.6705 0.2832 0.0000
vt 0.4436 0.2832 0.0000
vt 0.4436 0.4835 0.0000
vt 0.6705 0.4835 0.0000
vt 1.0000 0.6572 0.0000
vt 1.0000 0.7801 0.0000
vt 0.0000 0.7801 0.0000
vt -0.0000 0.6572 0.0000
vt -0.0000 0.7801 0.0000
vt 0.6572 1.0000 0.0000
vt 0.6572 -0.0000 0.0000
vt 0.7801 -0.0000 0.0000
vt 0.7801 1.0000 0.0000
vt 0.3428 1.0000 0.0000
vt 0.2199 1.0000 0.0000
vt 0.2199 0.0000 0.0000
vt 0.3428 0.0000 0.0000
vt 0.7062 0.1733 0.0000
vt 0.7062 -0.0000 0.0000
vt 0.4402 -0.0000 0.0000
vt 0.4402 0.1733 0.0000
# 21 texture coords

o Box285
g Box285
s 1
f 1/1/1 2/2/2 3/3/3 4/4/4 
s 2
f 5/5/5 2/6/2 1/7/1 6/8/6 
s 4
f 7/8/7 8/5/8 4/6/4 3/9/3 
s 16
f 8/10/8 6/11/6 1/12/1 4/13/4 
s 64
f 7/14/7 3/15/3 2/16/2 5/17/5 
s 1
f 7/18/7 5/19/5 6/20/6 8/21/8 
# 6 polygons

