# 3ds Max Wavefront OBJ Exporter v0.97b - (c)2007 guruware
# File Created: 03.02.2021 17:19:44

#
# object Box261
#

v  -388.5551 -0.0000 562.4107
v  -388.5551 -0.0000 558.2938
v  -388.5551 3.2936 558.2938
v  -388.5551 3.2936 562.4107
v  -435.9913 -0.0000 558.2938
v  -435.9913 3.2936 558.2938
v  -435.9913 -0.0000 562.4107
v  -435.9913 3.2936 562.4107
# 8 vertices

vn 0.5774 -0.5774 0.5774
vn 0.5774 -0.5774 -0.5774
vn 0.5774 0.5774 -0.5774
vn 0.5774 0.5774 0.5774
vn -0.5774 -0.5774 -0.5773
vn -0.5774 0.5774 -0.5773
vn -0.5773 -0.5773 0.5774
vn -0.5773 0.5773 0.5774
# 8 vertex normals

vt 0.6593 0.1487 0.0000
vt 0.4865 0.1487 0.0000
vt 0.4865 0.3268 0.0000
vt 0.6593 0.3268 0.0000
vt 0.9348 -0.0000 0.0000
vt 0.9348 1.0000 0.0000
vt 0.0727 1.0000 0.0000
vt 0.0727 0.0000 0.0000
vt -0.0000 0.9273 0.0000
vt -0.0000 0.0652 0.0000
vt 1.0000 0.0652 0.0000
vt 1.0000 0.9273 0.0000
vt 0.9273 -0.0000 0.0000
vt 0.9273 1.0000 0.0000
vt 0.0652 1.0000 0.0000
vt 0.0652 -0.0000 0.0000
vt 0.4008 0.5751 0.0000
vt 0.6720 0.5751 0.0000
vt 0.6720 0.3002 0.0000
vt 0.4008 0.3002 0.0000
# 20 texture coords

o Box261
g Box261
s 1
f 1/1/1 2/2/2 3/3/3 4/4/4 
s 64
f 5/5/5 6/6/6 3/7/3 2/8/2 
s 2
f 1/9/1 7/10/7 5/11/5 2/12/2 
s 4
f 4/12/4 3/9/3 6/10/6 8/11/8 
s 16
f 1/13/1 4/14/4 8/15/8 7/16/7 
s 1
f 8/17/8 6/18/6 5/19/5 7/20/7 
# 6 polygons

