# 3ds Max Wavefront OBJ Exporter v0.97b - (c)2007 guruware
# File Created: 02.02.2021 13:34:40

#
# object Box179
#

v  21.3529 0.0000 135.0256
v  18.2073 -0.0000 167.1414
v  22.3047 -0.0000 167.5427
v  25.5307 0.0000 135.6351
v  21.3529 3.2936 135.0256
v  25.5307 3.2936 135.6351
v  22.3047 3.2936 167.5427
v  18.2073 3.2936 167.1414
# 8 vertices

vn -0.4698 -0.5695 -0.6745
vn -0.6309 -0.5774 0.5183
vn 0.5180 -0.5774 0.6311
vn 0.6651 -0.5861 -0.4628
vn -0.4699 0.5695 -0.6744
vn 0.6650 0.5861 -0.4629
vn 0.5180 0.5774 0.6311
vn -0.6309 0.5774 0.5183
# 8 vertex normals

vt 1.0000 0.0000 0.0000
vt 1.0000 1.0000 0.0000
vt 0.0000 1.0000 0.0000
vt 0.0000 0.0000 0.0000
# 4 texture coords

o Box179
g Box179
s 2
f 4/4/4 3/3/3 2/2/2 1/1/1 
s 4
f 8/3/8 7/2/7 6/1/6 5/4/5 
s 8
f 5/3/5 6/2/6 4/1/4 1/4/1 
s 16
f 6/3/6 7/2/7 3/1/3 4/4/4 
s 32
f 7/3/7 8/2/8 2/1/2 3/4/3 
s 64
f 8/3/8 5/2/5 1/1/1 2/4/2 
# 6 polygons

