# 3ds Max Wavefront OBJ Exporter v0.97b - (c)2007 guruware
# File Created: 02.02.2021 12:25:44

#
# object Box176
#

v  17.9899 0.0000 41.2438
v  23.2638 0.0000 73.0793
v  19.2022 0.0000 73.7521
v  13.6916 0.0000 42.7806
v  17.9899 3.2936 41.2438
v  13.6916 3.2936 42.7806
v  19.2022 3.2936 73.7521
v  23.2638 3.2936 73.0793
# 8 vertices

vn 0.2824 -0.5538 -0.7833
vn 0.6639 -0.5774 0.4752
vn -0.4740 -0.5775 0.6647
vn -0.7447 -0.6117 -0.2670
vn 0.2824 0.5538 -0.7833
vn -0.7447 0.6117 -0.2670
vn -0.4740 0.5775 0.6647
vn 0.6639 0.5774 0.4752
# 8 vertex normals

vt 1.0000 0.0000 0.0000
vt 1.0000 1.0000 0.0000
vt 0.0000 1.0000 0.0000
vt 0.0000 0.0000 0.0000
# 4 texture coords

o Box176
g Box176
s 2
f 1/1/1 2/2/2 3/3/3 4/4/4 
s 4
f 5/4/5 6/1/6 7/2/7 8/3/8 
s 8
f 1/4/1 4/1/4 6/2/6 5/3/5 
s 16
f 4/4/4 3/1/3 7/2/7 6/3/6 
s 32
f 3/4/3 2/1/2 8/2/8 7/3/7 
s 64
f 2/4/2 1/1/1 5/2/5 8/3/8 
# 6 polygons

