# 3ds Max Wavefront OBJ Exporter v0.97b - (c)2007 guruware
# File Created: 02.02.2021 12:30:43

#
# object Box177
#

v  19.0860 0.0000 72.4698
v  15.9405 -0.0000 104.5856
v  20.0378 -0.0000 104.9869
v  23.2638 0.0000 73.0793
v  19.0860 3.2936 72.4698
v  23.2638 3.2936 73.0793
v  20.0378 3.2936 104.9869
v  15.9405 3.2936 104.5856
# 8 vertices

vn -0.4698 -0.5695 -0.6745
vn -0.6309 -0.5774 0.5183
vn 0.5180 -0.5774 0.6311
vn 0.6651 -0.5861 -0.4628
vn -0.4699 0.5695 -0.6744
vn 0.6650 0.5861 -0.4629
vn 0.5180 0.5774 0.6311
vn -0.6309 0.5774 0.5183
# 8 vertex normals

vt 1.0000 0.0000 0.0000
vt 1.0000 1.0000 0.0000
vt 0.0000 1.0000 0.0000
vt 0.0000 0.0000 0.0000
# 4 texture coords

o Box177
g Box177
s 2
f 4/4/4 3/3/3 2/2/2 1/1/1 
s 4
f 8/3/8 7/2/7 6/1/6 5/4/5 
s 8
f 5/3/5 6/2/6 4/1/4 1/4/1 
s 16
f 6/3/6 7/2/7 3/1/3 4/4/4 
s 32
f 7/3/7 8/2/8 2/1/2 3/4/3 
s 64
f 8/3/8 5/2/5 1/1/1 2/4/2 
# 6 polygons

