# 3ds Max Wavefront OBJ Exporter v0.97b - (c)2007 guruware
# File Created: 02.02.2021 13:32:21

#
# object Box178
#

v  20.0378 0.0000 104.9869
v  25.5307 0.0000 135.6351
v  21.4690 0.0000 136.3079
v  15.9404 0.0000 104.5855
v  20.0378 3.2936 104.9869
v  15.9405 3.2936 104.5856
v  21.4690 3.2936 136.3079
v  25.5307 3.2936 135.6351
# 8 vertices

vn 0.6506 -0.6267 -0.4290
vn 0.6650 -0.5771 0.4740
vn -0.4744 -0.5775 0.6645
vn -0.4601 -0.5481 -0.6985
vn 0.6506 0.6267 -0.4290
vn -0.4598 0.5481 -0.6987
vn -0.4744 0.5775 0.6645
vn 0.6650 0.5771 0.4740
# 8 vertex normals

vt 1.0000 0.0000 0.0000
vt 1.0000 1.0000 0.0000
vt 0.0000 1.0000 0.0000
vt 0.0000 0.0000 0.0000
# 4 texture coords

o Box178
g Box178
s 2
f 1/1/1 2/2/2 3/3/3 4/4/4 
s 4
f 5/4/5 6/1/6 7/2/7 8/3/8 
s 8
f 1/4/1 4/1/4 6/2/6 5/3/5 
s 16
f 4/4/4 3/1/3 7/2/7 6/3/6 
s 32
f 3/4/3 2/1/2 8/2/8 7/3/7 
s 64
f 2/4/2 1/1/1 5/2/5 8/3/8 
# 6 polygons

