# 3ds Max Wavefront OBJ Exporter v0.97b - (c)2007 guruware
# File Created: 02.02.2021 18:18:45

#
# object Box197
#

v  52.9713 0.0000 259.1422
v  52.9713 3.2936 259.1422
v  48.8544 3.2936 259.1422
v  48.8544 0.0000 259.1422
v  48.8544 0.0000 253.5215
v  52.9713 0.0000 253.5215
v  48.8544 3.2936 253.5215
v  52.9713 3.2936 253.5215
# 8 vertices

vn 0.5774 -0.5774 0.5774
vn 0.5774 0.5774 0.5774
vn -0.5774 0.5774 0.5774
vn -0.5774 -0.5774 0.5774
vn -0.5774 -0.5773 -0.5774
vn 0.5774 -0.5774 -0.5774
vn -0.5774 0.5773 -0.5774
vn 0.5774 0.5774 -0.5774
# 8 vertex normals

vt 0.1220 0.5565 0.0000
vt 0.1220 0.8456 0.0000
vt 0.5090 0.8456 0.0000
vt 0.5090 0.5565 0.0000
vt 1.0000 0.7995 0.0000
vt -0.0000 0.7995 0.0000
vt 0.0000 0.4098 0.0000
vt 1.0000 0.4098 0.0000
vt 0.4098 1.0000 0.0000
vt 0.4098 0.0000 0.0000
vt 0.7995 0.0000 0.0000
vt 0.7995 1.0000 0.0000
vt -0.0000 0.4098 0.0000
vt 0.2005 0.0000 0.0000
vt 0.5902 0.0000 0.0000
vt 0.5902 1.0000 0.0000
vt 0.2005 1.0000 0.0000
vt 0.5962 0.3047 0.0000
vt 0.3724 0.3047 0.0000
vt 0.3724 0.6709 0.0000
vt 0.5962 0.6709 0.0000
# 21 texture coords

o Box197
g Box197
s 1
f 1/1/1 2/2/2 3/3/3 4/4/4 
s 2
f 1/5/1 4/6/4 5/7/5 6/8/6 
s 16
f 7/9/7 5/10/5 4/11/4 3/12/3 
s 4
f 2/6/2 8/13/8 7/8/7 3/5/3 
s 64
f 1/14/1 6/15/6 8/16/8 2/17/2 
s 1
f 6/18/6 5/19/5 7/20/7 8/21/8 
# 6 polygons

