# 3ds Max Wavefront OBJ Exporter v0.97b - (c)2007 guruware
# File Created: 03.02.2021 11:33:53

#
# object Box189
#

v  75.5374 0.0000 226.5232
v  107.6531 -0.0000 229.6687
v  108.0545 -0.0000 225.5714
v  76.1469 0.0000 222.3454
v  75.5374 3.2936 226.5232
v  76.1469 3.2936 222.3454
v  108.0545 3.2936 225.5714
v  107.6531 3.2936 229.6687
# 8 vertices

vn -0.6745 -0.5695 0.4698
vn 0.5183 -0.5774 0.6309
vn 0.6311 -0.5774 -0.5180
vn -0.4628 -0.5861 -0.6651
vn -0.6744 0.5695 0.4699
vn -0.4629 0.5861 -0.6650
vn 0.6311 0.5774 -0.5180
vn 0.5183 0.5774 0.6309
# 8 vertex normals

vt 1.0000 0.0000 0.0000
vt 1.0000 1.0000 0.0000
vt 0.0000 1.0000 0.0000
vt 0.0000 0.0000 0.0000
# 4 texture coords

o Box189
g Box189
s 2
f 4/4/4 3/3/3 2/2/2 1/1/1 
s 4
f 8/3/8 7/2/7 6/1/6 5/4/5 
s 8
f 5/3/5 6/2/6 4/1/4 1/4/1 
s 16
f 6/3/6 7/2/7 3/1/3 4/4/4 
s 32
f 7/3/7 8/2/8 2/1/2 3/4/3 
s 64
f 8/3/8 5/2/5 1/1/1 2/4/2 
# 6 polygons

