# 3ds Max Wavefront OBJ Exporter v0.97b - (c)2007 guruware
# File Created: 03.02.2021 11:33:42

#
# object Box190
#

v  76.8197 0.0000 226.4070
v  76.1469 0.0000 222.3454
v  76.1469 3.2936 222.3454
v  76.8197 3.2936 226.4070
v  52.9713 0.0000 226.1846
v  52.9713 0.0000 230.6502
v  52.9713 3.2936 226.1846
v  52.9713 3.2936 230.6502
# 8 vertices

vn 0.6647 -0.5775 0.4740
vn 0.4752 -0.5774 -0.6639
vn 0.4752 0.5774 -0.6639
vn 0.6647 0.5775 0.4740
vn -0.5072 -0.6091 -0.6097
vn -0.6386 -0.5550 0.5331
vn -0.5072 0.6091 -0.6097
vn -0.6386 0.5550 0.5331
# 8 vertex normals

vt 0.0000 0.0000 0.0000
vt 1.0000 0.0000 0.0000
vt 1.0000 1.0000 0.0000
vt 0.0000 1.0000 0.0000
vt 0.9768 0.2785 0.0000
vt 0.9146 1.0237 0.0000
vt 0.0000 0.2300 0.0000
vt 0.0232 0.2785 0.0000
vt 1.0000 0.2300 0.0000
vt 0.0854 1.0237 0.0000
vt 0.2300 -0.0000 0.0000
vt 0.2300 1.0000 0.0000
vt 0.7280 1.0000 0.0000
vt 0.7280 0.0000 0.0000
vt 0.8938 0.3456 0.0000
vt 0.8938 0.0000 0.0000
vt 0.4172 0.0000 0.0000
vt 0.4172 0.3456 0.0000
# 18 texture coords

o Box190
g Box190
s 32
f 1/1/1 2/2/2 3/3/3 4/4/4 
s 2
f 5/5/5 2/6/2 1/4/1 6/7/6 
s 4
f 7/8/7 8/9/8 4/3/4 3/10/3 
s 16
f 6/11/6 1/2/1 4/3/4 8/12/8 
s 64
f 7/13/7 3/4/3 2/1/2 5/14/5 
s 1
f 7/15/7 5/16/5 6/17/6 8/18/8 
# 6 polygons

