# 3ds Max Wavefront OBJ Exporter v0.97b - (c)2007 guruware
# File Created: 03.02.2021 11:32:47

#
# object Box192
#

v  138.0932 0.0000 259.9154
v  170.2090 -0.0000 256.7699
v  170.6103 -0.0000 260.8672
v  138.7027 0.0000 264.0932
v  138.0932 3.2936 259.9154
v  138.7027 3.2936 264.0932
v  170.6103 3.2936 260.8672
v  170.2090 3.2936 256.7699
# 8 vertices

vn -0.6745 -0.5695 -0.4698
vn 0.5183 -0.5774 -0.6309
vn 0.6311 -0.5774 0.5180
vn -0.4628 -0.5861 0.6651
vn -0.6744 0.5695 -0.4699
vn -0.4629 0.5861 0.6650
vn 0.6311 0.5774 0.5180
vn 0.5183 0.5774 -0.6309
# 8 vertex normals

vt 1.0000 0.0000 0.0000
vt 1.0000 1.0000 0.0000
vt 0.0000 1.0000 0.0000
vt 0.0000 0.0000 0.0000
# 4 texture coords

o Box192
g Box192
s 2
f 1/1/1 2/2/2 3/3/3 4/4/4 
s 4
f 5/4/5 6/1/6 7/2/7 8/3/8 
s 8
f 1/4/1 4/1/4 6/2/6 5/3/5 
s 16
f 4/4/4 3/1/3 7/2/7 6/3/6 
s 32
f 3/4/3 2/1/2 8/2/8 7/3/7 
s 64
f 2/4/2 1/1/1 5/2/5 8/3/8 
# 6 polygons

