# 3ds Max Wavefront OBJ Exporter v0.97b - (c)2007 guruware
# File Created: 03.02.2021 11:32:33

#
# object Box193
#

v  108.0545 0.0000 258.6003
v  138.7027 -0.0000 264.0932
v  139.3755 -0.0000 260.0316
v  107.6531 0.0000 254.5029
v  108.0545 3.2936 258.6003
v  107.6532 3.2936 254.5030
v  139.3755 3.2936 260.0316
v  138.7027 3.2936 264.0932
# 8 vertices

vn -0.4290 -0.6267 0.6506
vn 0.4740 -0.5771 0.6650
vn 0.6645 -0.5775 -0.4744
vn -0.6985 -0.5481 -0.4601
vn -0.4290 0.6267 0.6506
vn -0.6987 0.5481 -0.4598
vn 0.6645 0.5775 -0.4744
vn 0.4740 0.5771 0.6650
# 8 vertex normals

vt 1.0000 0.0000 0.0000
vt 1.0000 1.0000 0.0000
vt 0.0000 1.0000 0.0000
vt 0.0000 0.0000 0.0000
# 4 texture coords

o Box193
g Box193
s 2
f 4/4/4 3/3/3 2/2/2 1/1/1 
s 4
f 8/3/8 7/2/7 6/1/6 5/4/5 
s 8
f 5/3/5 6/2/6 4/1/4 1/4/1 
s 16
f 6/3/6 7/2/7 3/1/3 4/4/4 
s 32
f 7/3/7 8/2/8 2/1/2 3/4/3 
s 64
f 8/3/8 5/2/5 1/1/1 2/4/2 
# 6 polygons

