# 3ds Max Wavefront OBJ Exporter v0.97b - (c)2007 guruware
# File Created: 04.02.2021 01:42:35

#
# object Box263
#

v  -14.3662 0.0000 337.6245
v  -14.3662 3.2936 337.6245
v  -14.3662 3.2936 336.8607
v  -14.3662 0.0000 336.8607
v  16.0434 0.0000 337.6245
v  16.0434 3.2936 337.6245
v  16.0434 0.0000 336.8607
v  16.0434 3.2936 336.8607
# 8 vertices

vn -0.5774 -0.5774 0.5774
vn -0.5774 0.5774 0.5774
vn -0.5774 0.5774 -0.5774
vn -0.5774 -0.5774 -0.5774
vn 0.5774 -0.5774 0.5774
vn 0.5774 0.5774 0.5774
vn 0.5774 -0.5774 -0.5774
vn 0.5774 0.5774 -0.5774
# 8 vertex normals

vt 1.0000 0.0000 0.0000
vt 1.0000 1.0000 0.0000
vt 0.0000 1.0000 0.0000
vt 0.0000 0.0000 0.0000
vt 0.9724 -0.0000 0.0000
vt 0.9724 1.0000 0.0000
vt 0.0000 0.0276 0.0000
vt 1.0000 0.0276 0.0000
vt 0.0276 0.0000 0.0000
vt 0.0276 1.0000 0.0000
vt 0.3721 0.6479 0.0000
vt 0.7182 0.6479 0.0000
vt 0.7182 0.2538 0.0000
vt 0.3721 0.2538 0.0000
# 14 texture coords

o Box263
g Box263
s 32
f 1/1/1 2/2/2 3/3/3 4/4/4 
s 64
f 5/5/5 6/6/6 2/3/2 1/4/1 
s 2
f 7/7/7 5/8/5 1/2/1 4/3/4 
s 4
f 2/3/2 6/7/6 8/8/8 3/2/3 
s 16
f 7/9/7 4/1/4 3/2/3 8/10/8 
s 1
f 8/11/8 6/12/6 5/13/5 7/14/7 
# 6 polygons

