# 3ds Max Wavefront OBJ Exporter v0.97b - (c)2007 guruware
# File Created: 02.02.2021 19:18:52

#
# object Box031
#

v  319.6013 0.0000 184.6917
v  319.6013 3.2936 184.6917
v  319.6013 3.2936 196.7866
v  319.6013 0.0000 196.7866
v  315.4844 3.2936 184.6917
v  315.4844 3.2936 196.7866
v  315.4844 0.0000 184.6917
v  315.4844 0.0000 196.7866
# 8 vertices

vn 0.5774 -0.5774 -0.5774
vn 0.5774 0.5774 -0.5774
vn 0.5774 0.5774 0.5774
vn 0.5774 -0.5774 0.5774
vn -0.5774 0.5774 -0.5774
vn -0.5774 0.5774 0.5774
vn -0.5774 -0.5774 -0.5774
vn -0.5774 -0.5774 0.5774
# 8 vertex normals

vt 0.7814 0.0000 0.0000
vt 0.7814 1.0000 0.0000
vt 0.7687 1.0000 0.0000
vt 0.7687 0.0000 0.0000
vt 1.0000 0.7814 0.0000
vt 0.0000 0.7814 0.0000
vt -0.0000 0.7687 0.0000
vt 1.0000 0.7687 0.0000
vt 0.0594 0.0000 0.0000
vt 0.0251 0.0000 0.0000
vt 0.0251 1.0000 0.0000
vt 0.0594 1.0000 0.0000
vt 0.2186 0.0000 0.0000
vt 0.2313 0.0000 0.0000
vt 0.2313 1.0000 0.0000
vt 0.2186 1.0000 0.0000
vt 0.0000 0.7687 0.0000
vt 0.5940 0.3068 0.0000
vt 0.7047 0.3068 0.0000
vt 0.7047 0.0718 0.0000
vt 0.5940 0.0718 0.0000
# 21 texture coords

o Box031
g Box031
s 16
f 1/1/1 2/2/2 3/3/3 4/4/4 
s 4
f 2/5/2 5/6/5 6/7/6 3/8/3 
s 1
f 1/9/1 7/10/7 5/11/5 2/12/2 
s 64
f 7/13/7 8/14/8 6/15/6 5/16/5 
s 2
f 1/6/1 4/17/4 8/8/8 7/5/7 
s 1
f 3/18/3 6/19/6 8/20/8 4/21/4 
# 6 polygons

