# 3ds Max Wavefront OBJ Exporter v0.97b - (c)2007 guruware
# File Created: 02.02.2021 20:32:16

#
# object Box021
#

v  293.0372 0.0000 259.0762
v  245.4320 0.0000 259.0762
v  245.4320 0.0000 254.9592
v  293.0372 0.0000 254.9593
v  293.0372 3.2936 259.0762
v  293.0372 3.2936 254.9593
v  245.4320 3.2936 254.9592
v  245.4320 3.2936 259.0762
# 8 vertices

vn 0.5774 -0.5774 0.5774
vn -0.5774 -0.5774 0.5774
vn -0.5774 -0.5774 -0.5774
vn 0.5774 -0.5774 -0.5774
vn 0.5774 0.5774 0.5774
vn 0.5774 0.5774 -0.5774
vn -0.5774 0.5774 -0.5774
vn -0.5774 0.5774 0.5774
# 8 vertex normals

vt 1.0000 0.0000 0.0000
vt 1.0000 1.0000 0.0000
vt 0.0000 1.0000 0.0000
vt 0.0000 0.0000 0.0000
# 4 texture coords

o Box021
g Box021
s 2
f 1/1/1 2/2/2 3/3/3 4/4/4 
s 4
f 5/4/5 6/1/6 7/2/7 8/3/8 
s 8
f 1/4/1 4/1/4 6/2/6 5/3/5 
s 16
f 4/4/4 3/1/3 7/2/7 6/3/6 
s 32
f 3/4/3 2/1/2 8/2/8 7/3/7 
s 64
f 2/4/2 1/1/1 5/2/5 8/3/8 
# 6 polygons

#
# object Box022
#

v  293.0372 0.0000 231.1665
v  245.4320 0.0000 231.1664
v  245.4320 0.0000 227.0495
v  293.0372 0.0000 227.0495
v  293.0372 3.2936 231.1665
v  293.0372 3.2936 227.0495
v  245.4320 3.2936 227.0495
v  245.4320 3.2936 231.1664
# 8 vertices

vn 0.5774 -0.5774 0.5774
vn -0.5774 -0.5774 0.5774
vn -0.5774 -0.5774 -0.5774
vn 0.5774 -0.5774 -0.5774
vn 0.5774 0.5774 0.5774
vn 0.5774 0.5774 -0.5774
vn -0.5774 0.5774 -0.5774
vn -0.5774 0.5774 0.5774
# 8 vertex normals

vt 1.0000 0.0000 0.0000
vt 1.0000 1.0000 0.0000
vt 0.0000 1.0000 0.0000
vt 0.0000 0.0000 0.0000
# 4 texture coords

o Box022
g Box022
s 2
f 9/5/9 10/6/10 11/7/11 12/8/12 
s 4
f 13/8/13 14/5/14 15/6/15 16/7/16 
s 8
f 9/8/9 12/5/12 14/6/14 13/7/13 
s 16
f 12/8/12 11/5/11 15/6/15 14/7/14 
s 32
f 11/8/11 10/5/10 16/6/16 15/7/15 
s 64
f 10/8/10 9/5/9 13/6/13 16/7/16 
# 6 polygons

#
# object Box023
#

v  293.0372 0.0000 259.0762
v  298.1207 0.0000 259.0762
v  298.1207 3.2936 259.0762
v  293.0372 3.2936 259.0762
v  293.0372 0.0000 227.0495
v  298.1207 0.0000 227.0495
v  293.0372 3.2936 227.0495
v  298.1207 3.2936 227.0495
# 8 vertices

vn -0.5774 -0.5774 0.5774
vn 0.5774 -0.5774 0.5774
vn 0.5774 0.5774 0.5774
vn -0.5774 0.5774 0.5774
vn -0.5774 -0.5774 -0.5774
vn 0.5774 -0.5774 -0.5774
vn -0.5774 0.5774 -0.5774
vn 0.5774 0.5774 -0.5774
# 8 vertex normals

vt 0.0000 0.0000 0.0000
vt 1.0000 0.0000 0.0000
vt 1.0000 1.0000 0.0000
vt 0.0000 1.0000 0.0000
vt 1.0000 0.9657 0.0000
vt -0.0000 0.9657 0.0000
vt 0.9657 0.0000 0.0000
vt 0.9657 1.0000 0.0000
vt 0.0343 1.0000 0.0000
vt 0.0343 0.0000 0.0000
vt 0.8932 1.0000 0.0000
vt 0.8932 0.0000 0.0000
# 12 texture coords

o Box023
g Box023
s 8
f 17/9/17 18/10/18 19/11/19 20/12/20 
s 2
f 21/13/21 22/14/22 18/9/18 17/10/17 
s 4
f 23/14/23 20/9/20 19/10/19 24/13/24 
s 16
f 18/9/18 22/15/22 24/16/24 19/12/19 
s 64
f 17/10/17 20/11/20 23/17/23 21/18/21 
s 1
f 23/19/23 24/11/24 22/10/22 21/20/21 
# 6 polygons

#
# object Box024
#

v  240.3486 0.0000 259.0762
v  245.4321 0.0000 259.0762
v  245.4321 3.2936 259.0762
v  240.3486 3.2936 259.0762
v  240.3486 0.0000 227.0495
v  245.4321 0.0000 227.0495
v  240.3486 3.2936 227.0495
v  245.4321 3.2936 227.0495
# 8 vertices

vn -0.5774 -0.5774 0.5774
vn 0.5774 -0.5774 0.5774
vn 0.5774 0.5774 0.5774
vn -0.5774 0.5774 0.5774
vn -0.5774 -0.5774 -0.5774
vn 0.5774 -0.5774 -0.5774
vn -0.5774 0.5774 -0.5774
vn 0.5774 0.5774 -0.5774
# 8 vertex normals

vt 0.0000 0.0000 0.0000
vt 1.0000 0.0000 0.0000
vt 1.0000 1.0000 0.0000
vt 0.0000 1.0000 0.0000
vt 1.0000 0.9657 0.0000
vt -0.0000 0.9657 0.0000
vt 0.9657 0.0000 0.0000
vt 0.9657 1.0000 0.0000
vt 0.0343 1.0000 0.0000
vt 0.0343 0.0000 0.0000
vt 0.8932 1.0000 0.0000
vt 0.8932 0.0000 0.0000
# 12 texture coords

o Box024
g Box024
s 8
f 25/21/25 26/22/26 27/23/27 28/24/28 
s 2
f 29/25/29 30/26/30 26/21/26 25/22/25 
s 4
f 31/26/31 28/21/28 27/22/27 32/25/32 
s 16
f 26/21/26 30/27/30 32/28/32 27/24/27 
s 64
f 25/22/25 28/23/28 31/29/31 29/30/29 
s 1
f 31/31/31 32/23/32 30/22/30 29/32/29 
# 6 polygons

