# 3ds Max Wavefront OBJ Exporter v0.97b - (c)2007 guruware
# File Created: 02.02.2021 20:19:04

#
# object roca057
#

v  185.8065 2.0670 265.8793
v  186.3952 0.9167 266.0518
v  185.1896 1.3738 265.5219
v  185.5597 0.7568 268.1696
v  184.9681 0.6359 267.8180
v  185.8555 0.1511 267.3438
v  184.3306 2.2932 266.6871
v  183.8153 1.9277 266.8159
v  184.0121 1.9340 267.3692
v  186.6134 2.1531 267.1230
v  186.6107 1.5413 268.0269
v  187.0429 1.5381 267.6526
v  184.3954 0.0262 266.3760
v  184.7031 0.8979 265.3969
v  184.8768 0.0480 265.6151
v  184.3081 1.0399 267.4439
v  183.7271 1.6915 266.5751
v  186.7442 0.1569 266.6583
v  187.1586 0.9412 267.1187
v  185.9862 0.4730 265.8433
v  185.3771 0.0152 265.7220
v  185.2757 0.1205 266.9177
v  186.6598 0.8031 266.2728
v  186.5053 0.0988 266.3804
v  185.5052 1.9030 268.2348
v  184.7411 2.4036 267.8197
v  184.3229 0.9684 266.0510
v  184.1225 0.2794 266.6111
v  184.0614 1.6952 266.1188
v  185.7062 2.3836 267.2641
v  184.9311 2.6608 267.4377
v  185.9019 2.8724 266.3973
v  185.7291 2.6590 266.1199
v  185.4710 2.8952 266.6787
v  186.9731 1.4477 266.6610
v  186.9128 0.4614 266.7252
v  184.2332 0.3483 266.9412
v  185.7943 0.0409 265.8763
v  186.0302 0.1339 267.2426
v  185.1301 0.4398 265.5186
v  184.9329 2.1076 266.0623
v  186.0950 2.4671 266.1856
v  186.7643 1.6074 266.4143
v  186.3584 1.6359 266.0896
v  186.0880 1.5341 268.3746
v  187.2053 1.2356 267.2455
v  184.5422 1.4335 265.4176
v  185.2361 1.9986 265.6283
v  185.1196 2.8737 266.9673
v  184.4904 0.6144 267.5538
# 50 vertices

vn 0.4116 0.2488 -0.8768
vn 0.5482 -0.0156 -0.8362
vn 0.2671 0.0910 -0.9594
vn -0.0493 -0.4974 0.8661
vn -0.3922 -0.5338 0.7491
vn 0.0366 -0.8983 0.4379
vn -0.5482 0.7959 -0.2572
vn -0.8519 0.5222 0.0380
vn -0.7946 0.2755 0.5410
vn 0.6467 0.7443 0.1664
vn 0.5963 0.1426 0.7900
vn 0.8322 0.1805 0.5243
vn -0.5151 -0.8506 -0.1059
vn -0.3628 -0.1480 -0.9200
vn -0.2941 -0.7008 -0.6499
vn -0.7348 -0.1589 0.6594
vn -0.9744 0.1327 -0.1813
vn 0.6650 -0.7466 -0.0167
vn 0.9000 -0.3992 0.1749
vn 0.4747 -0.1514 -0.8670
vn 0.2016 -0.8028 -0.5611
vn -0.1019 -0.9601 0.2605
vn 0.7172 -0.1148 -0.6873
vn 0.4774 -0.7806 -0.4034
vn -0.0827 0.4412 0.8936
vn -0.3956 0.5685 0.7213
vn -0.8293 -0.2229 -0.5125
vn -0.8518 -0.5238 -0.0088
vn -0.6659 0.4630 -0.5850
vn 0.3367 0.8009 0.4952
vn -0.1577 0.9055 0.3939
vn 0.3465 0.9172 -0.1969
vn 0.0082 0.6828 -0.7306
vn -0.0473 0.9987 -0.0162
vn 0.8790 0.2591 -0.4002
vn 0.8915 -0.3361 -0.3036
vn -0.6518 -0.6050 0.4574
vn 0.3082 -0.7867 -0.5349
vn 0.2730 -0.8730 0.4041
vn 0.2133 -0.1780 -0.9606
vn -0.4186 0.7290 -0.5416
vn 0.6277 0.4725 -0.6186
vn 0.7657 0.3090 -0.5641
vn 0.5357 0.1536 -0.8303
vn 0.3030 0.1348 0.9434
vn 0.9827 0.0312 0.1825
vn -0.4511 0.1959 -0.8707
vn -0.0262 0.5103 -0.8596
vn -0.1554 0.9838 0.0890
vn -0.5394 -0.4799 0.6919
# 50 vertex normals

o roca057
g roca057
s 1
f 1//1 2//2 3//3 
f 4//4 5//5 6//6 
f 7//7 8//8 9//9 
f 10//10 11//11 12//12 
f 13//13 14//14 15//15 
f 16//16 9//9 17//17 
f 18//18 19//19 11//11 
f 2//2 20//20 3//3 
f 13//13 21//21 22//22 
f 23//23 24//24 20//20 
f 25//25 11//11 10//10 
f 5//5 4//4 26//26 
f 27//27 28//28 17//17 
f 7//7 29//29 8//8 
f 30//30 31//31 25//25 
f 32//32 33//33 34//34 
f 10//10 12//12 35//35 
f 36//36 35//35 19//19 
f 16//16 17//17 28//28 
f 13//13 22//22 37//37 
f 38//38 24//24 39//39 
f 39//39 18//18 11//11 
f 40//40 3//3 20//20 
f 41//41 29//29 7//7 
f 42//42 10//10 43//43 
f 42//42 33//33 32//32 
f 15//15 40//40 21//21 
f 15//15 21//21 13//13 
f 36//36 23//23 35//35 
f 43//43 2//2 44//44 
f 11//11 4//4 39//39 
f 4//4 45//45 25//25 
f 26//26 31//31 9//9 
f 26//26 9//9 16//16 
f 12//12 46//46 35//35 
f 12//12 11//11 46//46 
f 17//17 47//47 27//27 
f 48//48 14//14 47//47 
f 7//7 49//49 33//33 
f 9//9 31//31 7//7 
f 33//33 41//41 7//7 
f 1//1 48//48 33//33 
f 42//42 1//1 33//33 
f 43//43 44//44 42//42 
f 34//34 31//31 30//30 
f 33//33 49//49 34//34 
f 28//28 14//14 13//13 
f 13//13 37//37 28//28 
f 30//30 25//25 10//10 
f 32//32 10//10 42//42 
f 22//22 6//6 5//5 
f 22//22 38//38 39//39 
f 40//40 20//20 21//21 
f 24//24 38//38 20//20 
f 24//24 18//18 39//39 
f 24//24 23//23 36//36 
f 4//4 11//11 45//45 
f 45//45 11//11 25//25 
f 31//31 26//26 25//25 
f 4//4 25//25 26//26 
f 3//3 14//14 48//48 
f 1//1 3//3 48//48 
f 49//49 31//31 34//34 
f 31//31 49//49 7//7 
f 3//3 40//40 14//14 
f 15//15 14//14 40//40 
f 37//37 16//16 28//28 
f 5//5 26//26 16//16 
f 8//8 17//17 9//9 
f 29//29 17//17 8//8 
f 46//46 11//11 19//19 
f 46//46 19//19 35//35 
f 32//32 30//30 10//10 
f 32//32 34//34 30//30 
f 28//28 27//27 14//14 
f 47//47 14//14 27//27 
f 43//43 35//35 23//23 
f 10//10 35//35 43//43 
f 29//29 41//41 48//48 
f 33//33 48//48 41//41 
f 24//24 36//36 18//18 
f 36//36 19//19 18//18 
f 6//6 22//22 39//39 
f 4//4 6//6 39//39 
f 38//38 21//21 20//20 
f 21//21 38//38 22//22 
f 50//50 5//5 16//16 
f 50//50 22//22 5//5 
f 23//23 20//20 2//2 
f 43//43 23//23 2//2 
f 47//47 29//29 48//48 
f 29//29 47//47 17//17 
f 37//37 50//50 16//16 
f 22//22 50//50 37//37 
f 42//42 44//44 1//1 
f 44//44 2//2 1//1 
# 0 polygons - 96 triangles

#
# object roca058
#

v  185.3194 1.2584 262.2320
v  184.7710 2.0932 261.5478
v  184.3691 1.7015 261.9881
v  184.8304 2.4418 259.3364
v  185.8029 1.8846 259.3683
v  184.3907 1.2305 259.3772
v  185.8640 1.1339 262.1928
v  186.5628 0.9282 261.5488
v  185.8842 1.6403 261.7180
v  185.0040 0.0006 260.4679
v  184.1660 0.0869 259.8617
v  185.1535 0.3717 259.6077
v  183.6408 2.0411 261.0442
v  185.7956 2.5443 260.1230
v  183.9527 0.9036 260.9178
v  183.7109 0.4473 259.9147
v  183.4131 1.8740 260.4398
v  183.3410 1.2682 259.9226
v  183.3214 1.1873 260.4836
v  186.7747 1.2358 260.6446
v  186.2757 0.5083 261.1989
v  186.5631 1.1318 260.0408
v  186.1746 1.6107 259.9604
v  186.1591 0.5998 261.9802
v  184.2624 1.6163 261.9386
v  185.1195 0.9852 261.9760
v  184.0619 2.7125 259.7071
v  183.8129 1.8417 259.5316
v  184.1407 1.3014 259.4147
v  183.4688 0.7340 259.9416
v  183.9763 0.6904 259.6244
v  186.0107 0.2641 260.8665
v  185.9677 0.5850 259.9937
v  185.3356 1.1498 259.5251
v  186.0691 0.7608 259.6248
v  183.9349 1.6395 261.6826
v  183.6229 2.1882 259.7319
v  183.6915 2.4271 260.1909
v  185.4918 2.4799 260.8628
v  186.2803 1.8561 260.3979
v  185.4534 2.8121 260.2339
v  184.3683 2.8241 259.6410
v  183.3395 0.9417 260.1551
v  186.2712 0.8145 261.9908
v  185.7567 0.9211 262.2041
v  184.5227 2.6523 259.4607
v  184.8168 0.3888 260.7773
v  185.8592 0.1457 261.4100
v  183.5315 1.5263 261.1553
v  186.4023 1.1046 259.6410
# 50 vertices

vn -0.1006 0.1196 0.9877
vn -0.0285 0.8217 0.5693
vn -0.2699 0.4289 0.8621
vn 0.1060 0.4342 -0.8946
vn 0.4756 0.2639 -0.8392
vn -0.0732 -0.1673 -0.9832
vn 0.3818 0.3134 0.8695
vn 0.9320 -0.0438 0.3597
vn 0.4831 0.6702 0.5635
vn -0.0693 -0.9912 0.1131
vn -0.3773 -0.8841 -0.2756
vn 0.1812 -0.6309 -0.7544
vn -0.6473 0.6335 0.4240
vn 0.6889 0.7036 -0.1741
vn -0.5194 -0.6840 0.5122
vn -0.6628 -0.7214 -0.2008
vn -0.9478 0.3105 0.0729
vn -0.8764 -0.0185 -0.4812
vn -0.9201 -0.2696 0.2841
vn 0.9964 0.0831 -0.0146
vn 0.7483 -0.6629 0.0244
vn 0.9296 -0.1313 -0.3445
vn 0.7598 0.5158 -0.3957
vn 0.3697 -0.6515 0.6625
vn -0.5494 -0.2042 0.8102
vn -0.3899 -0.6227 0.6784
vn -0.4965 0.8078 -0.3177
vn -0.4676 0.0714 -0.8810
vn -0.3230 -0.1047 -0.9406
vn -0.7879 -0.4674 -0.4010
vn -0.3548 -0.3141 -0.8806
vn 0.5464 -0.8202 -0.1693
vn 0.5137 -0.8089 -0.2862
vn 0.0915 -0.2009 -0.9753
vn 0.4273 -0.5878 -0.6870
vn -0.6817 -0.0186 0.7314
vn -0.7589 0.3669 -0.5379
vn -0.6258 0.7655 0.1496
vn 0.3069 0.8377 0.4518
vn 0.7975 0.6015 -0.0468
vn 0.2700 0.9616 0.0498
vn -0.1731 0.9380 -0.3002
vn -0.9010 -0.4222 0.0997
vn 0.7029 -0.0284 0.7107
vn -0.0261 -0.4259 0.9044
vn -0.0193 0.5916 -0.8060
vn -0.3951 -0.7419 0.5418
vn 0.1572 -0.9250 0.3460
vn -0.8451 -0.1585 0.5105
vn 0.7584 -0.1196 -0.6407
# 50 vertex normals

o roca058
g roca058
s 1
f 51//51 52//52 53//53 
f 54//54 55//55 56//56 
f 57//57 58//58 59//59 
f 60//60 61//61 62//62 
f 53//53 52//52 63//63 
f 64//64 55//55 54//54 
f 60//60 65//65 66//66 
f 67//67 68//68 69//69 
f 70//70 71//71 72//72 
f 73//73 55//55 64//64 
f 71//71 58//58 74//74 
f 51//51 75//75 76//76 
f 63//63 52//52 77//77 
f 78//78 54//54 79//79 
f 79//79 80//80 78//78 
f 81//81 56//56 62//62 
f 82//82 83//83 72//72 
f 84//84 55//55 85//85 
f 65//65 76//76 75//75 
f 86//86 53//53 63//63 
f 87//87 88//88 77//77 
f 67//67 87//87 68//68 
f 64//64 89//89 90//90 
f 91//91 92//92 89//89 
f 66//66 65//65 93//93 
f 80//80 79//79 81//81 
f 94//94 58//58 57//57 
f 95//95 76//76 74//74 
f 91//91 54//54 92//92 
f 96//96 54//54 78//78 
f 60//60 83//83 82//82 
f 65//65 97//97 98//98 
f 75//75 86//86 65//65 
f 67//67 69//69 99//99 
f 85//85 62//62 84//84 
f 60//60 62//62 83//83 
f 52//52 51//51 59//59 
f 92//92 52//52 89//89 
f 71//71 70//70 58//58 
f 58//58 70//70 59//59 
f 55//55 73//73 100//100 
f 85//85 55//55 100//100 
f 63//63 77//77 88//88 
f 63//63 67//67 99//99 
f 99//99 69//69 65//65 
f 69//69 93//93 65//65 
f 98//98 71//71 74//74 
f 60//60 82//82 98//98 
f 59//59 89//89 52//52 
f 89//89 59//59 90//90 
f 68//68 93//93 69//69 
f 78//78 80//80 68//68 
f 90//90 70//70 72//72 
f 90//90 59//59 70//70 
f 64//64 54//54 91//91 
f 64//64 91//91 89//89 
f 68//68 87//87 78//78 
f 87//87 77//77 78//78 
f 59//59 51//51 57//57 
f 95//95 51//51 76//76 
f 78//78 77//77 96//96 
f 52//52 92//92 77//77 
f 76//76 65//65 98//98 
f 74//74 76//76 98//98 
f 61//61 81//81 62//62 
f 66//66 80//80 81//81 
f 62//62 85//85 83//83 
f 85//85 72//72 83//83 
f 55//55 84//84 56//56 
f 84//84 62//62 56//56 
f 74//74 58//58 94//94 
f 74//74 94//94 95//95 
f 86//86 99//99 65//65 
f 86//86 63//63 99//99 
f 67//67 88//88 87//87 
f 88//88 67//67 63//63 
f 61//61 60//60 66//66 
f 66//66 81//81 61//61 
f 90//90 100//100 73//73 
f 64//64 90//90 73//73 
f 54//54 96//96 92//92 
f 77//77 92//92 96//96 
f 75//75 51//51 53//53 
f 75//75 53//53 86//86 
f 60//60 97//97 65//65 
f 60//60 98//98 97//97 
f 54//54 56//56 79//79 
f 81//81 79//79 56//56 
f 51//51 95//95 57//57 
f 95//95 94//94 57//57 
f 71//71 98//98 82//82 
f 71//71 82//82 72//72 
f 66//66 93//93 80//80 
f 80//80 93//93 68//68 
f 85//85 100//100 72//72 
f 90//90 72//72 100//100 
# 0 polygons - 96 triangles

