# 3ds Max Wavefront OBJ Exporter v0.97b - (c)2007 guruware
# File Created: 02.02.2021 20:16:34

#
# object roca055
#

v  202.4049 1.2584 268.3792
v  201.8566 2.0932 267.6951
v  201.4547 1.7015 268.1354
v  201.9159 2.4418 265.4837
v  202.8884 1.8846 265.5155
v  201.4763 1.2305 265.5245
v  202.9496 1.1339 268.3401
v  203.6484 0.9282 267.6960
v  202.9698 1.6403 267.8653
v  202.0895 0.0006 266.6152
v  201.2516 0.0869 266.0089
v  202.2391 0.3717 265.7550
v  200.7263 2.0411 267.1915
v  202.8811 2.5443 266.2703
v  201.0382 0.9036 267.0651
v  200.7964 0.4473 266.0620
v  200.4986 1.8740 266.5871
v  200.4266 1.2682 266.0699
v  200.4070 1.1873 266.6309
v  203.8603 1.2358 266.7918
v  203.3612 0.5083 267.3461
v  203.6486 1.1318 266.1880
v  203.2601 1.6107 266.1076
v  203.2447 0.5998 268.1275
v  201.3480 1.6163 268.0859
v  202.2051 0.9852 268.1232
v  201.1474 2.7125 265.8543
v  200.8984 1.8417 265.6788
v  201.2262 1.3014 265.5620
v  200.5544 0.7340 266.0889
v  201.0619 0.6904 265.7716
v  203.0963 0.2641 267.0137
v  203.0533 0.5850 266.1410
v  202.4212 1.1498 265.6724
v  203.1546 0.7608 265.7721
v  201.0204 1.6395 267.8299
v  200.7085 2.1882 265.8792
v  200.7770 2.4271 266.3382
v  202.5773 2.4799 267.0101
v  203.3658 1.8561 266.5451
v  202.5389 2.8121 266.3812
v  201.4538 2.8241 265.7883
v  200.4251 0.9417 266.3024
v  203.3567 0.8145 268.1380
v  202.8423 0.9211 268.3513
v  201.6082 2.6523 265.6080
v  201.9023 0.3888 266.9246
v  202.9447 0.1457 267.5573
v  200.6171 1.5263 267.3026
v  203.4878 1.1046 265.7883
# 50 vertices

vn -0.1006 0.1196 0.9877
vn -0.0285 0.8217 0.5693
vn -0.2699 0.4289 0.8621
vn 0.1060 0.4342 -0.8946
vn 0.4756 0.2639 -0.8392
vn -0.0732 -0.1673 -0.9832
vn 0.3818 0.3134 0.8695
vn 0.9320 -0.0438 0.3597
vn 0.4831 0.6702 0.5635
vn -0.0693 -0.9912 0.1131
vn -0.3773 -0.8841 -0.2756
vn 0.1812 -0.6309 -0.7544
vn -0.6473 0.6335 0.4240
vn 0.6889 0.7036 -0.1741
vn -0.5194 -0.6840 0.5122
vn -0.6628 -0.7214 -0.2008
vn -0.9478 0.3105 0.0729
vn -0.8764 -0.0185 -0.4812
vn -0.9201 -0.2696 0.2841
vn 0.9964 0.0831 -0.0146
vn 0.7483 -0.6629 0.0244
vn 0.9296 -0.1313 -0.3445
vn 0.7598 0.5158 -0.3957
vn 0.3697 -0.6515 0.6625
vn -0.5494 -0.2042 0.8102
vn -0.3899 -0.6227 0.6784
vn -0.4965 0.8078 -0.3177
vn -0.4676 0.0714 -0.8810
vn -0.3230 -0.1047 -0.9406
vn -0.7879 -0.4674 -0.4010
vn -0.3548 -0.3141 -0.8806
vn 0.5464 -0.8202 -0.1693
vn 0.5137 -0.8089 -0.2862
vn 0.0915 -0.2009 -0.9753
vn 0.4273 -0.5878 -0.6870
vn -0.6817 -0.0186 0.7314
vn -0.7589 0.3669 -0.5379
vn -0.6258 0.7655 0.1496
vn 0.3069 0.8377 0.4518
vn 0.7975 0.6015 -0.0468
vn 0.2700 0.9616 0.0498
vn -0.1731 0.9380 -0.3002
vn -0.9010 -0.4222 0.0997
vn 0.7029 -0.0284 0.7107
vn -0.0261 -0.4259 0.9044
vn -0.0193 0.5916 -0.8060
vn -0.3951 -0.7419 0.5418
vn 0.1572 -0.9250 0.3460
vn -0.8451 -0.1585 0.5105
vn 0.7584 -0.1196 -0.6407
# 50 vertex normals

o roca055
g roca055
s 1
f 1//1 2//2 3//3 
f 4//4 5//5 6//6 
f 7//7 8//8 9//9 
f 10//10 11//11 12//12 
f 3//3 2//2 13//13 
f 14//14 5//5 4//4 
f 10//10 15//15 16//16 
f 17//17 18//18 19//19 
f 20//20 21//21 22//22 
f 23//23 5//5 14//14 
f 21//21 8//8 24//24 
f 1//1 25//25 26//26 
f 13//13 2//2 27//27 
f 28//28 4//4 29//29 
f 29//29 30//30 28//28 
f 31//31 6//6 12//12 
f 32//32 33//33 22//22 
f 34//34 5//5 35//35 
f 15//15 26//26 25//25 
f 36//36 3//3 13//13 
f 37//37 38//38 27//27 
f 17//17 37//37 18//18 
f 14//14 39//39 40//40 
f 41//41 42//42 39//39 
f 16//16 15//15 43//43 
f 30//30 29//29 31//31 
f 44//44 8//8 7//7 
f 45//45 26//26 24//24 
f 41//41 4//4 42//42 
f 46//46 4//4 28//28 
f 10//10 33//33 32//32 
f 15//15 47//47 48//48 
f 25//25 36//36 15//15 
f 17//17 19//19 49//49 
f 35//35 12//12 34//34 
f 10//10 12//12 33//33 
f 2//2 1//1 9//9 
f 42//42 2//2 39//39 
f 21//21 20//20 8//8 
f 8//8 20//20 9//9 
f 5//5 23//23 50//50 
f 35//35 5//5 50//50 
f 13//13 27//27 38//38 
f 13//13 17//17 49//49 
f 49//49 19//19 15//15 
f 19//19 43//43 15//15 
f 48//48 21//21 24//24 
f 10//10 32//32 48//48 
f 9//9 39//39 2//2 
f 39//39 9//9 40//40 
f 18//18 43//43 19//19 
f 28//28 30//30 18//18 
f 40//40 20//20 22//22 
f 40//40 9//9 20//20 
f 14//14 4//4 41//41 
f 14//14 41//41 39//39 
f 18//18 37//37 28//28 
f 37//37 27//27 28//28 
f 9//9 1//1 7//7 
f 45//45 1//1 26//26 
f 28//28 27//27 46//46 
f 2//2 42//42 27//27 
f 26//26 15//15 48//48 
f 24//24 26//26 48//48 
f 11//11 31//31 12//12 
f 16//16 30//30 31//31 
f 12//12 35//35 33//33 
f 35//35 22//22 33//33 
f 5//5 34//34 6//6 
f 34//34 12//12 6//6 
f 24//24 8//8 44//44 
f 24//24 44//44 45//45 
f 36//36 49//49 15//15 
f 36//36 13//13 49//49 
f 17//17 38//38 37//37 
f 38//38 17//17 13//13 
f 11//11 10//10 16//16 
f 16//16 31//31 11//11 
f 40//40 50//50 23//23 
f 14//14 40//40 23//23 
f 4//4 46//46 42//42 
f 27//27 42//42 46//46 
f 25//25 1//1 3//3 
f 25//25 3//3 36//36 
f 10//10 47//47 15//15 
f 10//10 48//48 47//47 
f 4//4 6//6 29//29 
f 31//31 29//29 6//6 
f 1//1 45//45 7//7 
f 45//45 44//44 7//7 
f 21//21 48//48 32//32 
f 21//21 32//32 22//22 
f 16//16 43//43 30//30 
f 30//30 43//43 18//18 
f 35//35 50//50 22//22 
f 40//40 22//22 50//50 
# 0 polygons - 96 triangles

#
# object roca056
#

v  202.1421 2.2373 259.9364
v  202.7012 1.1118 259.5898
v  201.4113 1.6395 259.6239
v  202.5898 0.3442 261.7361
v  201.9113 0.2962 261.5762
v  202.5741 -0.0000 260.7274
v  201.0192 2.1672 261.2079
v  200.5571 1.7571 261.3922
v  200.9225 1.6218 261.8316
v  203.3112 2.0194 260.8258
v  203.5731 1.1856 261.4797
v  203.8602 1.3041 260.9997
v  200.8752 0.0754 260.2891
v  200.8892 1.1935 259.5389
v  201.0848 0.3253 259.4496
v  201.1851 0.7558 261.5606
v  200.3849 1.5913 261.1383
v  203.1922 0.2327 259.8200
v  203.7691 0.8807 260.3162
v  202.2266 0.7230 259.4127
v  201.5907 0.2878 259.3755
v  201.8868 0.0596 260.5207
v  203.0174 0.9547 259.6735
v  202.8739 0.2413 259.6297
v  202.6123 1.4259 262.1243
v  201.7789 1.9846 262.1314
v  200.7449 1.0661 260.2740
v  200.7050 0.2424 260.6593
v  200.5532 1.7342 260.6175
v  202.5102 2.1608 261.3100
v  201.8467 2.3444 261.7935
v  202.4371 2.8751 260.5938
v  202.1741 2.7375 260.3405
v  202.1220 2.8008 260.9946
v  203.4690 1.4834 260.0990
v  203.3873 0.5151 259.9088
v  200.9197 0.2240 260.9413
v  202.0360 0.2898 259.3873
v  202.7056 0.0190 260.5746
v  201.3110 0.7399 259.3866
v  201.3776 2.1863 260.3962
v  202.5323 2.5520 260.2293
v  203.1992 1.6943 259.9864
v  202.7117 1.7912 259.8313
v  203.1913 1.0601 261.9621
v  203.8679 1.1314 260.4959
v  200.7686 1.6953 259.7552
v  201.5186 2.2134 259.8751
v  201.8824 2.6855 261.3640
v  201.3734 0.3253 261.4855
# 50 vertices

vn 0.1166 0.4963 -0.8603
vn 0.2467 0.2374 -0.9396
vn -0.0540 0.3604 -0.9312
vn 0.2109 -0.7157 0.6658
vn -0.1528 -0.7347 0.6609
vn 0.1349 -0.9808 0.1410
vn -0.5646 0.8096 0.1606
vn -0.7687 0.4524 0.4521
vn -0.5630 0.0812 0.8224
vn 0.6994 0.7001 0.1437
vn 0.8258 -0.0500 0.5617
vn 0.9645 0.0695 0.2548
vn -0.5603 -0.8126 -0.1603
vn -0.6475 0.0910 -0.7566
vn -0.5207 -0.5107 -0.6842
vn -0.4883 -0.3658 0.7923
vn -0.9734 0.1319 0.1872
vn 0.5886 -0.6825 -0.4333
vn 0.8888 -0.3897 -0.2413
vn 0.1609 0.1119 -0.9806
vn -0.0281 -0.6100 -0.7919
vn -0.0562 -0.9984 0.0082
vn 0.4499 0.1094 -0.8863
vn 0.2845 -0.6188 -0.7322
vn 0.2315 0.1776 0.9565
vn -0.1141 0.3323 0.9362
vn -0.9599 -0.1134 -0.2566
vn -0.8320 -0.5404 0.1255
vn -0.7973 0.5733 -0.1888
vn 0.5155 0.6509 0.5573
vn 0.0203 0.7562 0.6540
vn 0.3060 0.9511 -0.0415
vn -0.1973 0.8552 -0.4793
vn -0.0039 0.9623 0.2720
vn 0.7131 0.3983 -0.5769
vn 0.7287 -0.1995 -0.6551
vn -0.4958 -0.7359 0.4612
vn 0.0818 -0.5967 -0.7983
vn 0.3485 -0.9364 0.0407
vn -0.1176 0.0997 -0.9880
vn -0.5373 0.8286 -0.1572
vn 0.4147 0.6512 -0.6355
vn 0.5553 0.4856 -0.6752
vn 0.2445 0.3979 -0.8842
vn 0.5980 -0.1127 0.7935
vn 0.9892 0.0258 -0.1443
vn -0.6992 0.4040 -0.5899
vn -0.2795 0.7228 -0.6320
vn -0.0727 0.9144 0.3982
vn -0.3079 -0.6741 0.6714
# 50 vertex normals

o roca056
g roca056
s 1
f 51//51 52//52 53//53 
f 54//54 55//55 56//56 
f 57//57 58//58 59//59 
f 60//60 61//61 62//62 
f 63//63 64//64 65//65 
f 66//66 59//59 67//67 
f 68//68 69//69 61//61 
f 52//52 70//70 53//53 
f 63//63 71//71 72//72 
f 73//73 74//74 70//70 
f 75//75 61//61 60//60 
f 55//55 54//54 76//76 
f 77//77 78//78 67//67 
f 57//57 79//79 58//58 
f 80//80 81//81 75//75 
f 82//82 83//83 84//84 
f 60//60 62//62 85//85 
f 86//86 85//85 69//69 
f 66//66 67//67 78//78 
f 63//63 72//72 87//87 
f 88//88 74//74 89//89 
f 89//89 68//68 61//61 
f 90//90 53//53 70//70 
f 91//91 79//79 57//57 
f 92//92 60//60 93//93 
f 92//92 83//83 82//82 
f 65//65 90//90 71//71 
f 65//65 71//71 63//63 
f 86//86 73//73 85//85 
f 93//93 52//52 94//94 
f 61//61 54//54 89//89 
f 54//54 95//95 75//75 
f 76//76 81//81 59//59 
f 76//76 59//59 66//66 
f 62//62 96//96 85//85 
f 62//62 61//61 96//96 
f 67//67 97//97 77//77 
f 98//98 64//64 97//97 
f 57//57 99//99 83//83 
f 59//59 81//81 57//57 
f 83//83 91//91 57//57 
f 51//51 98//98 83//83 
f 92//92 51//51 83//83 
f 93//93 94//94 92//92 
f 84//84 81//81 80//80 
f 83//83 99//99 84//84 
f 78//78 64//64 63//63 
f 63//63 87//87 78//78 
f 80//80 75//75 60//60 
f 82//82 60//60 92//92 
f 72//72 56//56 55//55 
f 72//72 88//88 89//89 
f 90//90 70//70 71//71 
f 74//74 88//88 70//70 
f 74//74 68//68 89//89 
f 74//74 73//73 86//86 
f 54//54 61//61 95//95 
f 95//95 61//61 75//75 
f 81//81 76//76 75//75 
f 54//54 75//75 76//76 
f 53//53 64//64 98//98 
f 51//51 53//53 98//98 
f 99//99 81//81 84//84 
f 81//81 99//99 57//57 
f 53//53 90//90 64//64 
f 65//65 64//64 90//90 
f 87//87 66//66 78//78 
f 55//55 76//76 66//66 
f 58//58 67//67 59//59 
f 79//79 67//67 58//58 
f 96//96 61//61 69//69 
f 96//96 69//69 85//85 
f 82//82 80//80 60//60 
f 82//82 84//84 80//80 
f 78//78 77//77 64//64 
f 97//97 64//64 77//77 
f 93//93 85//85 73//73 
f 60//60 85//85 93//93 
f 79//79 91//91 98//98 
f 83//83 98//98 91//91 
f 74//74 86//86 68//68 
f 86//86 69//69 68//68 
f 56//56 72//72 89//89 
f 54//54 56//56 89//89 
f 88//88 71//71 70//70 
f 71//71 88//88 72//72 
f 100//100 55//55 66//66 
f 100//100 72//72 55//55 
f 73//73 70//70 52//52 
f 93//93 73//73 52//52 
f 97//97 79//79 98//98 
f 79//79 97//97 67//67 
f 87//87 100//100 66//66 
f 72//72 100//100 87//87 
f 92//92 94//94 51//51 
f 94//94 52//52 51//51 
# 0 polygons - 96 triangles

