# 3ds Max Wavefront OBJ Exporter v0.97b - (c)2007 guruware
# File Created: 03.02.2021 00:13:03

#
# object Box202
#

v  416.3216 0.0000 229.7772
v  416.3216 3.2936 229.7772
v  416.3216 3.2936 233.8941
v  416.3216 0.0000 233.8941
v  319.6013 0.0000 229.7771
v  319.6013 0.0000 233.8941
v  319.6013 3.2936 229.7771
v  319.6013 3.2936 233.8941
# 8 vertices

vn 0.5774 -0.5774 -0.5774
vn 0.5774 0.5774 -0.5774
vn 0.5773 0.5774 0.5774
vn 0.5773 -0.5774 0.5774
vn -0.5773 -0.5774 -0.5774
vn -0.5774 -0.5774 0.5774
vn -0.5773 0.5774 -0.5774
vn -0.5774 0.5774 0.5774
# 8 vertex normals

vt 0.0000 0.0000 0.0000
vt 0.0000 1.0000 0.0000
vt 0.0343 1.0000 0.0000
vt 0.0343 0.0000 0.0000
vt 0.0000 0.9932 0.0000
vt 0.0000 0.0409 0.0000
vt 1.0000 0.0409 0.0000
vt 1.0000 0.9932 0.0000
vt 0.9932 1.0000 0.0000
vt 0.0409 1.0000 0.0000
vt 0.0409 0.0000 0.0000
vt 0.9932 0.0000 0.0000
vt 0.0068 1.0000 0.0000
vt 0.0068 -0.0000 0.0000
vt 0.9591 -0.0000 0.0000
vt 0.9591 1.0000 0.0000
vt 0.9657 1.0000 0.0000
vt 1.0000 1.0000 0.0000
vt 1.0000 0.0000 0.0000
vt 0.9657 0.0000 0.0000
# 20 texture coords

o Box202
g Box202
s 1
f 1/1/1 2/2/2 3/3/3 4/4/4 
s 2
f 5/5/5 1/6/1 4/7/4 6/8/6 
s 4
f 7/8/7 8/5/8 3/6/3 2/7/2 
s 16
f 7/9/7 2/10/2 1/11/1 5/12/5 
s 64
f 8/13/8 6/14/6 4/15/4 3/16/3 
s 1
f 8/17/8 7/18/7 5/19/5 6/20/6 
# 6 polygons

