# 3ds Max Wavefront OBJ Exporter v0.97b - (c)2007 guruware
# File Created: 03.02.2021 04:05:27

#
# object Suelo_006
#

v  520.9841 -1.0066 150.5992
v  520.9841 -1.0066 275.9645
v  416.3216 -1.0066 275.9645
v  416.3216 -1.0066 150.5992
v  520.9841 0.0000 150.5992
v  416.3216 0.0000 150.5992
v  416.3216 0.0000 275.9645
v  520.9841 0.0000 275.9645
# 8 vertices

vn 0.5774 -0.5774 -0.5774
vn 0.5774 -0.5774 0.5774
vn -0.5774 -0.5774 0.5774
vn -0.5774 -0.5774 -0.5774
vn 0.5774 0.5774 -0.5774
vn -0.5774 0.5774 -0.5774
vn -0.5774 0.5774 0.5774
vn 0.5774 0.5774 0.5774
# 8 vertex normals

vt 1.0000 0.0000 0.0000
vt 1.0000 1.0000 0.0000
vt 0.0000 1.0000 0.0000
vt 0.0000 0.0000 0.0000
# 4 texture coords

o Suelo_006
g Suelo_006
s 2
f 1/1/1 2/2/2 3/3/3 4/4/4 
s 4
f 5/4/5 6/1/6 7/2/7 8/3/8 
s 8
f 1/4/1 4/1/4 6/2/6 5/3/5 
s 16
f 4/4/4 3/1/3 7/2/7 6/3/6 
s 32
f 3/4/3 2/1/2 8/2/8 7/3/7 
s 64
f 2/4/2 1/1/1 5/2/5 8/3/8 
# 6 polygons

#
# object Suelo_010
#

v  510.0943 -1.0164 275.9645
v  510.0943 -1.0164 364.9813
v  427.2114 -1.0164 364.9813
v  427.2114 -1.0164 275.9645
v  510.0943 0.0097 275.9645
v  427.2114 0.0097 275.9645
v  427.2114 0.0097 364.9813
v  510.0943 0.0097 364.9813
# 8 vertices

vn 0.5774 -0.5774 -0.5774
vn 0.5774 -0.5774 0.5774
vn -0.5774 -0.5774 0.5774
vn -0.5774 -0.5774 -0.5774
vn 0.5774 0.5774 -0.5774
vn -0.5774 0.5774 -0.5774
vn -0.5774 0.5774 0.5774
vn 0.5774 0.5774 0.5774
# 8 vertex normals

vt 1.0000 0.0000 0.0000
vt 1.0000 1.0000 0.0000
vt 0.0000 1.0000 0.0000
vt 0.0000 0.0000 0.0000
# 4 texture coords

o Suelo_010
g Suelo_010
s 2
f 9/5/9 10/6/10 11/7/11 12/8/12 
s 4
f 13/8/13 14/5/14 15/6/15 16/7/16 
s 8
f 9/8/9 12/5/12 14/6/14 13/7/13 
s 16
f 12/8/12 11/5/11 15/6/15 14/7/14 
s 32
f 11/8/11 10/5/10 16/6/16 15/7/15 
s 64
f 10/8/10 9/5/9 13/6/13 16/7/16 
# 6 polygons

#
# object Suelo_031
#

v  416.3216 -1.0066 246.8755
v  319.6014 -1.0066 246.8755
v  319.6019 -1.0066 165.3070
v  416.3221 -1.0066 165.3070
v  416.3216 0.0000 246.8755
v  416.3221 0.0000 165.3070
v  319.6019 0.0000 165.3070
v  319.6014 0.0000 246.8755
# 8 vertices

vn 0.5773 -0.5773 0.5774
vn -0.5774 -0.5774 0.5773
vn -0.5773 -0.5773 -0.5774
vn 0.5774 -0.5774 -0.5773
vn 0.5773 0.5773 0.5774
vn 0.5774 0.5774 -0.5773
vn -0.5773 0.5773 -0.5774
vn -0.5774 0.5774 0.5773
# 8 vertex normals

vt 1.0000 0.0000 0.0000
vt 1.0000 1.0000 0.0000
vt 0.0000 1.0000 0.0000
vt 0.0000 0.0000 0.0000
# 4 texture coords

o Suelo_031
g Suelo_031
s 2
f 17/9/17 18/10/18 19/11/19 20/12/20 
s 4
f 21/12/21 22/9/22 23/10/23 24/11/24 
s 8
f 17/12/17 20/9/20 22/10/22 21/11/21 
s 16
f 20/12/20 19/9/19 23/10/23 22/11/22 
s 32
f 19/12/19 18/9/18 24/10/24 23/11/23 
s 64
f 18/12/18 17/9/17 21/10/21 24/11/24 
# 6 polygons

#
# object Suelo_032
#

v  498.7344 -1.0164 61.5825
v  498.7344 -1.0164 150.5992
v  438.5714 -1.0164 150.5992
v  438.5714 -1.0164 61.5824
v  498.7344 0.0097 61.5825
v  438.5714 0.0097 61.5824
v  438.5714 0.0097 150.5992
v  498.7344 0.0097 150.5992
# 8 vertices

vn 0.5774 -0.5774 -0.5774
vn 0.5774 -0.5774 0.5774
vn -0.5774 -0.5774 0.5774
vn -0.5774 -0.5774 -0.5774
vn 0.5774 0.5774 -0.5774
vn -0.5774 0.5774 -0.5774
vn -0.5774 0.5774 0.5774
vn 0.5774 0.5774 0.5774
# 8 vertex normals

vt 1.0000 0.0000 0.0000
vt 1.0000 1.0000 0.0000
vt 0.0000 1.0000 0.0000
vt 0.0000 0.0000 0.0000
# 4 texture coords

o Suelo_032
g Suelo_032
s 2
f 25/13/25 26/14/26 27/15/27 28/16/28 
s 4
f 29/16/29 30/13/30 31/14/31 32/15/32 
s 8
f 25/16/25 28/13/28 30/14/30 29/15/29 
s 16
f 28/16/28 27/13/27 31/14/31 30/15/30 
s 32
f 27/16/27 26/13/26 32/14/32 31/15/31 
s 64
f 26/16/26 25/13/25 29/14/29 32/15/32 
# 6 polygons

#
# object Suelo_033
#

v  604.0997 -1.0066 254.1087
v  520.9839 -1.0066 254.1087
v  520.9844 -1.0066 180.4413
v  604.1002 -1.0066 180.4413
v  604.0997 0.0000 254.1087
v  604.1002 0.0000 180.4413
v  520.9844 0.0000 180.4413
v  520.9839 0.0000 254.1087
# 8 vertices

vn 0.5773 -0.5773 0.5774
vn -0.5774 -0.5774 0.5773
vn -0.5773 -0.5773 -0.5774
vn 0.5774 -0.5774 -0.5773
vn 0.5773 0.5773 0.5774
vn 0.5774 0.5774 -0.5773
vn -0.5773 0.5773 -0.5774
vn -0.5774 0.5774 0.5773
# 8 vertex normals

vt 1.0000 0.0000 0.0000
vt 1.0000 1.0000 0.0000
vt 0.0000 1.0000 0.0000
vt 0.0000 0.0000 0.0000
# 4 texture coords

o Suelo_033
g Suelo_033
s 2
f 33/17/33 34/18/34 35/19/35 36/20/36 
s 4
f 37/20/37 38/17/38 39/18/39 40/19/40 
s 8
f 33/20/33 36/17/36 38/18/38 37/19/37 
s 16
f 36/20/36 35/17/35 39/18/39 38/19/38 
s 32
f 35/20/35 34/17/34 40/18/40 39/19/39 
s 64
f 34/20/34 33/17/33 37/18/37 40/19/40 
# 6 polygons

