# 3ds Max Wavefront OBJ Exporter v0.97b - (c)2007 guruware
# File Created: 03.02.2021 04:36:43

#
# object Box078
#

v  493.0467 3.2936 275.9646
v  493.0467 0.0000 275.9646
v  488.9298 0.0000 275.9646
v  488.9298 3.2936 275.9646
v  493.0467 0.0000 364.9813
v  488.9298 0.0000 364.9813
v  488.9298 3.2936 364.9813
v  493.0467 3.2936 364.9813
# 8 vertices

vn 0.5774 0.5774 -0.5774
vn 0.5774 -0.5774 -0.5774
vn -0.5774 -0.5774 -0.5774
vn -0.5774 0.5774 -0.5774
vn 0.5774 -0.5774 0.5774
vn -0.5774 -0.5774 0.5774
vn -0.5774 0.5774 0.5774
vn 0.5774 0.5774 0.5774
# 8 vertex normals

vt 0.7216 0.4212 0.0000
vt 0.7216 0.0000 0.0000
vt 0.4744 0.0000 0.0000
vt 0.4744 0.4212 0.0000
vt -0.0000 0.0287 0.0000
vt 1.0000 0.0287 0.0000
vt 1.0000 0.9404 0.0000
vt 0.0000 0.9404 0.0000
vt 0.9713 1.0000 0.0000
vt 0.0596 1.0000 0.0000
vt 0.0596 0.0000 0.0000
vt 0.9713 0.0000 0.0000
vt 0.0287 1.0000 0.0000
vt 0.0287 -0.0000 0.0000
vt 0.9404 -0.0000 0.0000
vt 0.9404 1.0000 0.0000
vt 0.0000 0.0287 0.0000
vt 0.2784 0.4212 0.0000
vt 0.5256 0.4212 0.0000
vt 0.5256 0.0000 0.0000
vt 0.2784 0.0000 0.0000
# 21 texture coords

o Box078
g Box078
s 1
f 1/1/1 2/2/2 3/3/3 4/4/4 
s 2
f 5/5/5 6/6/6 3/7/3 2/8/2 
s 64
f 7/9/7 4/10/4 3/11/3 6/12/6 
s 16
f 8/13/8 5/14/5 2/15/2 1/16/1 
s 4
f 8/6/8 1/7/1 4/8/4 7/17/7 
s 1
f 8/18/8 7/19/7 6/20/6 5/21/5 
# 6 polygons

