# 3ds Max Wavefront OBJ Exporter v0.97b - (c)2007 guruware
# File Created: 04.02.2021 16:32:22

#
# object Box074
#

v  670.7510 0.0000 175.9320
v  670.7510 0.4811 175.9321
v  671.1499 0.4811 175.9320
v  671.1499 0.0000 175.9320
v  670.7510 0.4811 249.9917
v  671.1499 0.4811 249.9917
v  671.1499 0.0000 249.9917
v  670.7510 0.0000 249.9917
# 8 vertices

vn -0.5774 -0.5773 -0.5774
vn -0.5774 0.5774 -0.5773
vn 0.5773 0.5774 -0.5774
vn 0.5773 -0.5773 -0.5774
vn -0.5773 0.5774 0.5774
vn 0.5774 0.5773 0.5774
vn 0.5774 -0.5774 0.5773
vn -0.5773 -0.5774 0.5774
# 8 vertex normals

vt 0.2953 0.0718 0.0000
vt 0.2953 0.3068 0.0000
vt 0.4060 0.3068 0.0000
vt 0.4060 0.0718 0.0000
vt 1.0000 0.4783 0.0000
vt 0.0000 0.4783 0.0000
vt -0.0000 0.1153 0.0000
vt 1.0000 0.1153 0.0000
vt 0.4783 1.0000 0.0000
vt 0.1153 1.0000 0.0000
vt 0.1153 0.0000 0.0000
vt 0.4783 0.0000 0.0000
vt 0.5217 1.0000 0.0000
vt 0.5217 0.0000 0.0000
vt 0.8847 -0.0000 0.0000
vt 0.8847 1.0000 0.0000
vt 0.0000 0.1153 0.0000
vt 0.3786 0.4935 0.0000
vt 0.3786 0.4037 0.0000
vt 0.1970 0.4037 0.0000
vt 0.1970 0.4935 0.0000
# 21 texture coords

o Box074
g Box074
s 1
f 1/1/1 2/2/2 3/3/3 4/4/4 
s 4
f 3/5/3 2/6/2 5/7/5 6/8/6 
s 16
f 3/9/3 6/10/6 7/11/7 4/12/4 
s 64
f 2/13/2 1/14/1 8/15/8 5/16/5 
s 2
f 4/6/4 7/17/7 8/8/8 1/5/1 
s 1
f 5/18/5 8/19/8 7/20/7 6/21/6 
# 6 polygons

