# 3ds Max Wavefront OBJ Exporter v0.97b - (c)2007 guruware
# File Created: 04.02.2021 16:28:33

#
# object Box055
#

v  412.3511 6.2585 379.3773
v  415.1929 6.0643 383.4358
v  415.1929 7.3994 383.4358
v  412.3511 7.5936 379.3773
v  412.9474 7.5936 378.9598
v  415.7892 7.3994 383.0182
v  415.7892 6.0643 383.0182
v  412.9474 6.2585 378.9598
v  410.0814 6.1005 376.1358
v  410.0814 7.4357 376.1358
v  410.6777 7.4357 375.7183
v  410.6777 6.1005 375.7183
v  417.5293 7.4357 386.7725
v  418.1256 7.4357 386.3550
v  418.1256 6.1005 386.3550
v  417.5293 6.1005 386.7725
v  417.5293 6.4819 386.7725
v  417.5293 7.0543 386.7725
v  418.1256 7.0543 386.3550
v  418.1256 6.4819 386.3550
v  417.6996 7.4357 386.6533
v  417.9553 7.4357 386.4742
v  417.9553 6.1005 386.4742
v  417.6996 6.1005 386.6533
v  416.0484 0.0000 385.9267
v  416.0484 8.3333 385.9267
v  415.8297 8.3333 385.6143
v  415.5013 8.3333 385.1454
v  415.2826 8.3333 384.8330
v  415.2826 0.0000 384.8330
v  416.6447 0.0000 385.5092
v  415.8788 0.0000 384.4155
v  415.8789 8.3333 384.4155
v  416.0976 8.3333 384.7279
v  416.4259 8.3333 385.1968
v  416.6447 8.3333 385.5092
v  415.4529 8.3333 384.7137
v  415.7086 8.3333 384.5347
v  416.2556 8.5338 385.3160
v  415.9273 8.5338 384.8471
v  415.6716 8.5338 385.0262
v  416.0000 8.5338 385.4950
v  416.4744 8.3333 385.6284
v  416.2187 8.3333 385.8074
v  412.3511 3.5284 379.3773
v  415.1929 3.6322 383.4358
v  415.1929 4.9673 383.4358
v  412.3511 4.8636 379.3773
v  412.9057 4.8636 378.9890
v  415.6953 4.9673 383.0840
v  415.6953 3.6322 383.0840
v  412.9057 3.5284 378.9890
v  410.0814 3.5022 376.1358
v  410.0814 4.8373 376.1358
v  410.6777 4.8373 375.7183
v  410.6777 3.5022 375.7183
v  417.5293 4.8373 386.7725
v  418.1256 4.8373 386.3550
v  418.1256 3.5022 386.3550
v  417.5293 3.5022 386.7725
v  417.5293 3.8835 386.7725
v  417.5293 4.4560 386.7725
v  418.1256 4.4560 386.3550
v  418.1256 3.8835 386.3550
v  417.6996 4.8373 386.6533
v  417.9553 4.8373 386.4742
v  417.9553 3.5022 386.4742
v  417.6996 3.5022 386.6533
v  411.1872 0.0000 378.9843
v  411.1872 8.3333 378.9843
v  410.9685 8.3333 378.6718
v  410.6402 8.3333 378.2029
v  410.4214 8.3333 377.8906
v  410.4214 0.0000 377.8906
v  411.7835 0.0000 378.5667
v  411.0177 0.0000 377.4730
v  411.0177 8.3333 377.4730
v  411.2365 8.3333 377.7854
v  411.5648 8.3333 378.2543
v  411.7835 8.3333 378.5667
v  410.5917 8.3333 377.7713
v  410.8474 8.3333 377.5923
v  411.3945 8.5338 378.3736
v  411.0661 8.5338 377.9047
v  410.8105 8.5338 378.0837
v  411.1388 8.5338 378.5526
v  411.6132 8.3333 378.6860
v  411.3575 8.3333 378.8650
v  416.9815 6.7681 384.6185
v  416.9266 6.7681 384.4968
v  416.8778 7.0354 384.5310
v  416.9530 7.0354 384.6384
v  416.9530 6.5008 384.6384
v  416.8778 6.5008 384.5310
v  417.0533 6.7681 384.7816
v  416.8026 6.5008 384.4235
v  416.7023 6.7681 384.2804
v  416.8310 6.7681 384.4036
v  416.8026 7.0354 384.4235
v  416.7828 7.0354 384.4373
v  416.9333 7.0354 384.6522
v  417.0335 6.7681 384.7954
v  416.9333 6.5008 384.6522
v  416.7828 6.5008 384.4373
v  416.6826 6.7681 384.2942
v  416.9815 4.1666 384.6185
v  416.9266 4.1666 384.4968
v  416.8778 4.4339 384.5310
v  416.9530 4.4339 384.6384
v  416.9530 3.8994 384.6384
v  416.8778 3.8994 384.5310
v  417.0533 4.1666 384.7816
v  416.8026 3.8994 384.4235
v  416.7023 4.1666 384.2804
v  416.8310 4.1666 384.4036
v  416.8026 4.4339 384.4235
v  416.7828 4.4339 384.4373
v  416.9333 4.4339 384.6522
v  417.0335 4.1666 384.7954
v  416.9333 3.8994 384.6522
v  416.7828 3.8994 384.4373
v  416.6826 4.1666 384.2942
v  412.1203 6.7681 377.6761
v  412.0654 6.7681 377.5544
v  412.0167 7.0354 377.5885
v  412.0919 7.0354 377.6960
v  412.0919 6.5008 377.6960
v  412.0167 6.5008 377.5885
v  412.1921 6.7681 377.8391
v  411.9414 6.5008 377.4811
v  411.8412 6.7681 377.3379
v  411.9698 6.7681 377.4612
v  411.9414 7.0354 377.4811
v  411.9217 7.0354 377.4949
v  412.0721 7.0354 377.7098
v  412.1724 6.7681 377.8530
v  412.0721 6.5008 377.7098
v  411.9217 6.5008 377.4949
v  411.8214 6.7681 377.3517
v  412.1203 4.1666 377.6761
v  412.0654 4.1666 377.5544
v  412.0167 4.4339 377.5885
v  412.0919 4.4339 377.6960
v  412.0919 3.8994 377.6960
v  412.0167 3.8994 377.5885
v  412.1921 4.1666 377.8391
v  411.9414 3.8994 377.4811
v  411.8412 4.1666 377.3379
v  411.9698 4.1666 377.4612
v  411.9414 4.4339 377.4811
v  411.9217 4.4339 377.4949
v  412.0721 4.4339 377.7098
v  412.1724 4.1666 377.8530
v  412.0721 3.8994 377.7098
v  411.9217 3.8994 377.4949
v  411.8214 4.1666 377.3517
# 156 vertices

vn -0.5903 -0.6930 0.4138
vn -0.5820 -0.7149 0.3875
vn -0.5769 0.6985 0.4235
vn -0.5687 0.7200 0.3977
vn 0.5681 0.7201 -0.3983
vn 0.5953 0.6985 -0.3972
vn 0.5632 -0.7149 -0.4144
vn 0.5907 -0.6931 -0.4131
vn -0.5736 0.0000 -0.8192
vn -0.5762 -0.7040 0.4151
vn -0.8192 0.0000 0.5736
vn -0.5822 0.7101 0.3960
vn -0.6142 0.6923 0.3788
vn -0.5428 -0.7195 0.4333
vn 0.5712 0.7101 -0.4117
vn 0.8192 -0.0000 -0.5736
vn 0.5872 -0.7040 -0.3995
vn 0.5928 -0.7195 -0.3619
vn 0.5661 0.6923 -0.4476
vn -0.0077 0.9999 -0.0111
vn 0.0077 -0.9999 0.0111
vn -0.1418 -0.5774 0.8041
vn -0.1418 0.5774 0.8041
vn -0.7827 0.2952 0.5480
vn -0.8041 0.5774 -0.1418
vn -0.8041 -0.5773 -0.1418
vn 0.8041 -0.5774 0.1418
vn 0.1418 -0.5774 -0.8041
vn 0.1418 0.5774 -0.8041
vn 0.7827 0.2952 -0.5480
vn 0.8041 0.5773 0.1418
vn -0.5168 0.4337 -0.7381
vn -0.5413 -0.3305 -0.7731
vn 0.5105 0.8598 -0.0081
vn 0.1822 0.8598 -0.4770
vn -0.5105 0.8598 0.0081
vn -0.1822 0.8598 0.4770
vn 0.5168 0.4337 0.7381
vn -0.5687 -0.7094 0.4163
vn -0.5901 -0.6978 0.4061
vn -0.5685 0.7158 0.4054
vn -0.5897 0.7045 0.3949
vn 0.5781 0.7046 -0.4116
vn 0.5686 0.7205 -0.3970
vn 0.5763 -0.7025 -0.4176
vn 0.5908 -0.7093 -0.3846
vn -0.5900 -0.7172 0.3707
vn -0.5686 0.6955 0.4393
vn -0.5851 0.7049 0.4010
vn -0.5732 -0.7094 0.4101
vn 0.6007 0.6895 -0.4047
vn 0.8027 -0.0000 -0.5964
vn 0.5437 -0.7105 -0.4468
vn 0.5890 -0.7064 -0.3926
vn 0.5846 0.7019 -0.4068
vn 0.0278 0.9988 0.0396
vn -0.0278 -0.9988 -0.0396
vn 0.9134 -0.0000 -0.4071
vn 0.5355 0.7567 -0.3750
vn 0.7250 0.6879 0.0341
vn 0.7250 -0.6879 0.0342
vn 0.5355 -0.7567 -0.3750
vn 0.9364 -0.0000 0.3510
vn 0.2157 -0.6879 -0.6930
vn -0.0096 -0.0000 -1.0000
vn 0.6950 -0.0000 -0.7191
vn 0.2158 0.6879 -0.6930
vn -0.3153 0.8353 -0.4503
vn 0.3154 0.8353 0.4504
vn 0.5736 0.0000 0.8192
vn 0.3153 -0.8353 0.4503
vn -0.3153 -0.8354 -0.4503
vn 0.5355 -0.7568 -0.3749
vn 0.9364 0.0000 0.3510
vn -0.0095 0.0000 -1.0000
vn 0.5736 -0.0000 0.8192
vn -0.5736 -0.0000 -0.8192
# 77 vertex normals

vt 0.1856 0.5040 0.0000
vt 0.3238 0.4958 0.0000
vt 0.3238 0.5523 0.0000
vt 0.1856 0.5606 0.0000
vt 0.1276 0.9201 0.0000
vt 0.2658 0.9283 0.0000
vt 0.2658 0.9848 0.0000
vt 0.1276 0.9766 0.0000
vt 0.2816 0.9038 0.0000
vt 0.3381 0.9038 0.0000
vt 0.3381 0.9241 0.0000
vt 0.2816 0.9241 0.0000
vt 0.1850 0.6697 0.0000
vt 0.3234 0.6697 0.0000
vt 0.3234 0.6900 0.0000
vt 0.1850 0.6900 0.0000
vt 0.1886 0.6929 0.0000
vt 0.3270 0.6929 0.0000
vt 0.3270 0.7132 0.0000
vt 0.1886 0.7132 0.0000
vt 0.2755 0.9038 0.0000
vt 0.2755 0.9241 0.0000
vt 0.2190 0.9241 0.0000
vt 0.2190 0.9038 0.0000
vt 0.4374 0.4973 0.0000
vt 0.4374 0.5135 0.0000
vt 0.4374 0.5377 0.0000
vt 0.4374 0.5539 0.0000
vt 0.0752 0.5539 0.0000
vt 0.0752 0.4973 0.0000
vt 0.3794 0.9268 0.0000
vt 0.3794 0.9429 0.0000
vt 0.3794 0.9671 0.0000
vt 0.3794 0.9833 0.0000
vt 0.0173 0.9833 0.0000
vt 0.0173 0.9268 0.0000
vt 0.4367 0.6697 0.0000
vt 0.4367 0.6755 0.0000
vt 0.4367 0.6842 0.0000
vt 0.4367 0.6900 0.0000
vt 0.0752 0.6900 0.0000
vt 0.0752 0.6697 0.0000
vt 0.4367 0.6929 0.0000
vt 0.4367 0.7132 0.0000
vt 0.0752 0.7132 0.0000
vt 0.0752 0.7074 0.0000
vt 0.0752 0.6987 0.0000
vt 0.0752 0.6929 0.0000
vt 0.4281 0.8321 0.0000
vt 0.0752 0.8321 0.0000
vt 0.0752 0.8215 0.0000
vt 0.0752 0.8055 0.0000
vt 0.0752 0.7949 0.0000
vt 0.4281 0.7949 0.0000
vt 0.4415 0.6256 0.0000
vt 0.4788 0.6256 0.0000
vt 0.4788 0.9785 0.0000
vt 0.4681 0.9785 0.0000
vt 0.4522 0.9785 0.0000
vt 0.4415 0.9785 0.0000
vt 0.4810 0.9341 0.0000
vt 0.4810 0.8969 0.0000
vt 0.5013 0.8969 0.0000
vt 0.5013 0.9341 0.0000
vt 0.0752 0.8343 0.0000
vt 0.4281 0.8343 0.0000
vt 0.4281 0.8401 0.0000
vt 0.4281 0.8488 0.0000
vt 0.4281 0.8546 0.0000
vt 0.0752 0.8546 0.0000
vt 0.4520 0.6082 0.0000
vt 0.4520 0.5922 0.0000
vt 0.4607 0.5922 0.0000
vt 0.4607 0.6082 0.0000
vt 0.0752 0.8575 0.0000
vt 0.4281 0.8575 0.0000
vt 0.4281 0.8778 0.0000
vt 0.0752 0.8778 0.0000
vt 0.0752 0.8720 0.0000
vt 0.0752 0.8633 0.0000
vt 0.4462 0.6082 0.0000
vt 0.4462 0.5922 0.0000
vt 0.4665 0.5922 0.0000
vt 0.4665 0.6082 0.0000
vt 0.4520 0.5816 0.0000
vt 0.4607 0.5816 0.0000
vt 0.4607 0.6188 0.0000
vt 0.4520 0.6188 0.0000
vt 0.4462 0.5816 0.0000
vt 0.4462 0.6188 0.0000
vt 0.4665 0.6188 0.0000
vt 0.4665 0.5816 0.0000
vt 0.0161 0.7499 0.0000
vt 0.0205 0.6117 0.0000
vt 0.0770 0.6117 0.0000
vt 0.0726 0.7499 0.0000
vt 0.1926 0.5628 0.0000
vt 0.3307 0.5584 0.0000
vt 0.3307 0.6149 0.0000
vt 0.1926 0.6193 0.0000
vt 0.4595 0.4958 0.0000
vt 0.4595 0.5523 0.0000
vt 0.4392 0.5523 0.0000
vt 0.4392 0.4958 0.0000
vt 0.1879 0.6465 0.0000
vt 0.3261 0.6465 0.0000
vt 0.3261 0.6636 0.0000
vt 0.1879 0.6654 0.0000
vt 0.1909 0.6233 0.0000
vt 0.3292 0.6233 0.0000
vt 0.3292 0.6422 0.0000
vt 0.1909 0.6404 0.0000
vt 0.4062 0.9372 0.0000
vt 0.3859 0.9372 0.0000
vt 0.3859 0.8806 0.0000
vt 0.4062 0.8806 0.0000
vt 0.0150 0.4981 0.0000
vt 0.0311 0.4981 0.0000
vt 0.0554 0.4981 0.0000
vt 0.0715 0.4981 0.0000
vt 0.0715 0.8602 0.0000
vt 0.0150 0.8602 0.0000
vt 0.4443 0.5639 0.0000
vt 0.4443 0.5800 0.0000
vt 0.4443 0.6043 0.0000
vt 0.4443 0.6204 0.0000
vt 0.0822 0.6204 0.0000
vt 0.0822 0.5639 0.0000
vt 0.4395 0.6465 0.0000
vt 0.4395 0.6523 0.0000
vt 0.4395 0.6610 0.0000
vt 0.4395 0.6668 0.0000
vt 0.0776 0.6668 0.0000
vt 0.0776 0.6465 0.0000
vt 0.4395 0.6233 0.0000
vt 0.4395 0.6436 0.0000
vt 0.0776 0.6436 0.0000
vt 0.0776 0.6378 0.0000
vt 0.0776 0.6291 0.0000
vt 0.0776 0.6233 0.0000
vt 0.0752 0.7555 0.0000
vt 0.4281 0.7555 0.0000
vt 0.4281 0.7661 0.0000
vt 0.4281 0.7821 0.0000
vt 0.4281 0.7927 0.0000
vt 0.0752 0.7927 0.0000
vt 0.0752 0.7533 0.0000
vt 0.0752 0.7160 0.0000
vt 0.4281 0.7160 0.0000
vt 0.4281 0.7267 0.0000
vt 0.4281 0.7426 0.0000
vt 0.4281 0.7533 0.0000
vt 0.3859 0.9758 0.0000
vt 0.3859 0.9386 0.0000
vt 0.4062 0.9386 0.0000
vt 0.4062 0.9758 0.0000
vt 0.4833 0.8510 0.0000
vt 0.4833 0.4981 0.0000
vt 0.4891 0.4981 0.0000
vt 0.4978 0.4981 0.0000
vt 0.5036 0.4981 0.0000
vt 0.5036 0.8510 0.0000
vt 0.4868 0.9675 0.0000
vt 0.4868 0.9516 0.0000
vt 0.4955 0.9516 0.0000
vt 0.4955 0.9675 0.0000
vt 0.0150 0.8806 0.0000
vt 0.3678 0.8806 0.0000
vt 0.3678 0.9009 0.0000
vt 0.0150 0.9009 0.0000
vt 0.0150 0.8952 0.0000
vt 0.0150 0.8864 0.0000
vt 0.4810 0.9675 0.0000
vt 0.4810 0.9516 0.0000
vt 0.5013 0.9516 0.0000
vt 0.5013 0.9675 0.0000
vt 0.4868 0.9409 0.0000
vt 0.4955 0.9409 0.0000
vt 0.4955 0.9782 0.0000
vt 0.4868 0.9782 0.0000
vt 0.4810 0.9409 0.0000
vt 0.4810 0.9782 0.0000
vt 0.5013 0.9782 0.0000
vt 0.5013 0.9409 0.0000
vt 0.6461 0.1516 0.0000
vt 0.6608 0.1152 0.0000
vt 0.7733 0.1607 0.0000
vt 0.7586 0.1970 0.0000
vt 0.5336 0.1061 0.0000
vt 0.5483 0.0697 0.0000
vt 0.6265 0.2000 0.0000
vt 0.5630 0.0333 0.0000
vt 0.6951 0.0303 0.0000
vt 0.6755 0.0788 0.0000
vt 0.7880 0.1243 0.0000
vt 0.7447 0.2808 0.0000
vt 0.7447 0.2023 0.0000
vt 0.7519 0.2023 0.0000
vt 0.7519 0.2415 0.0000
vt 0.7519 0.2808 0.0000
vt 0.7763 0.4795 0.0000
vt 0.6549 0.4795 0.0000
vt 0.6549 0.4722 0.0000
vt 0.7763 0.4722 0.0000
vt 0.5336 0.4795 0.0000
vt 0.5336 0.4722 0.0000
vt 0.7208 0.0434 0.0000
vt 0.7992 0.0434 0.0000
vt 0.7992 0.0506 0.0000
vt 0.7600 0.0506 0.0000
vt 0.7208 0.0506 0.0000
vt 0.7763 0.4664 0.0000
vt 0.6549 0.4664 0.0000
vt 0.6549 0.4592 0.0000
vt 0.7763 0.4592 0.0000
vt 0.5336 0.4664 0.0000
vt 0.5336 0.4592 0.0000
vt 0.5799 0.3200 0.0000
vt 0.6162 0.3038 0.0000
vt 0.6635 0.4169 0.0000
vt 0.6275 0.4321 0.0000
vt 0.5314 0.2109 0.0000
vt 0.5674 0.1957 0.0000
vt 0.5315 0.3417 0.0000
vt 0.6034 0.1805 0.0000
vt 0.6994 0.2709 0.0000
vt 0.6519 0.2896 0.0000
vt 0.6995 0.4017 0.0000
vt 0.7862 0.0376 0.0000
vt 0.7077 0.0376 0.0000
vt 0.7077 0.0303 0.0000
vt 0.7469 0.0303 0.0000
vt 0.7862 0.0303 0.0000
vt 0.7258 0.2023 0.0000
vt 0.7258 0.3345 0.0000
vt 0.7186 0.3345 0.0000
vt 0.7186 0.2023 0.0000
vt 0.7258 0.4253 0.0000
vt 0.7186 0.4253 0.0000
vt 0.9631 0.3460 0.0000
vt 0.9631 0.4245 0.0000
vt 0.9559 0.4245 0.0000
vt 0.9559 0.3852 0.0000
vt 0.9559 0.3460 0.0000
vt 0.7084 0.2023 0.0000
vt 0.7084 0.3345 0.0000
vt 0.7012 0.3345 0.0000
vt 0.7012 0.2023 0.0000
vt 0.7084 0.4253 0.0000
vt 0.7012 0.4253 0.0000
vt 0.8992 0.3470 0.0000
vt 0.8629 0.3633 0.0000
vt 0.8155 0.2502 0.0000
vt 0.8515 0.2350 0.0000
vt 0.9477 0.4561 0.0000
vt 0.9117 0.4713 0.0000
vt 0.9475 0.3253 0.0000
vt 0.8757 0.4865 0.0000
vt 0.7797 0.3961 0.0000
vt 0.8272 0.3774 0.0000
vt 0.7795 0.2653 0.0000
vt 0.7432 0.2872 0.0000
vt 0.7432 0.3657 0.0000
vt 0.7360 0.3657 0.0000
vt 0.7360 0.3264 0.0000
vt 0.7360 0.2872 0.0000
vt 0.5336 0.4461 0.0000
vt 0.6657 0.4461 0.0000
vt 0.6657 0.4533 0.0000
vt 0.5336 0.4533 0.0000
vt 0.7565 0.4461 0.0000
vt 0.7565 0.4533 0.0000
vt 0.9631 0.2654 0.0000
vt 0.9631 0.3439 0.0000
vt 0.9559 0.3439 0.0000
vt 0.9559 0.3047 0.0000
vt 0.9559 0.2654 0.0000
vt 0.9783 0.2589 0.0000
vt 0.9783 0.3911 0.0000
vt 0.9711 0.3911 0.0000
vt 0.9711 0.2589 0.0000
vt 0.9783 0.4819 0.0000
vt 0.9711 0.4819 0.0000
vt 0.9318 0.1446 0.0000
vt 0.8955 0.1608 0.0000
vt 0.8482 0.0477 0.0000
vt 0.8842 0.0325 0.0000
vt 0.9803 0.2537 0.0000
vt 0.9443 0.2689 0.0000
vt 0.9802 0.1229 0.0000
vt 0.9084 0.2840 0.0000
vt 0.8123 0.1937 0.0000
vt 0.8599 0.1749 0.0000
vt 0.8122 0.0629 0.0000
vt 0.5357 0.4353 0.0000
vt 0.5357 0.3569 0.0000
vt 0.5429 0.3569 0.0000
vt 0.5429 0.3961 0.0000
vt 0.5429 0.4353 0.0000
vt 0.7273 0.4253 0.0000
vt 0.7273 0.2931 0.0000
vt 0.7345 0.2931 0.0000
vt 0.7345 0.4253 0.0000
vt 0.7273 0.2023 0.0000
vt 0.7345 0.2023 0.0000
vt 0.7432 0.2023 0.0000
vt 0.7432 0.2808 0.0000
vt 0.7360 0.2808 0.0000
vt 0.7360 0.2415 0.0000
vt 0.7360 0.2023 0.0000
vt 0.7171 0.2023 0.0000
vt 0.7171 0.3345 0.0000
vt 0.7099 0.3345 0.0000
vt 0.7099 0.2023 0.0000
vt 0.7171 0.4253 0.0000
vt 0.7099 0.4253 0.0000
# 316 texture coords

o Box055
g Box055
s 2
f 1/1/1 2/2/2 3/3/3 4/4/4 
s 4
f 5/5/5 6/6/6 7/7/7 8/8/8 
s 8
f 9/9/9 10/10/9 11/11/9 12/12/9 
s 16
f 4/13/4 3/14/3 6/15/6 5/16/5 
s 64
f 2/17/2 1/18/1 8/19/8 7/20/7 
s off
f 13/21/9 14/22/9 15/23/9 16/24/9 
s 2
f 2/2/2 16/25/10 17/26/11 18/27/11 13/28/12 3/3/3 
f 4/4/4 10/29/13 9/30/14 1/1/1 
s 4
f 6/6/6 14/31/15 19/32/16 20/33/16 15/34/17 7/7/7 
f 8/8/8 12/35/18 11/36/19 5/5/5 
s 16
f 3/14/3 13/37/12 21/38/20 22/39/20 14/40/15 6/15/6 
f 5/16/5 11/41/19 10/42/13 4/13/4 
s 64
f 1/18/1 9/43/14 12/44/18 8/19/8 
f 7/20/7 15/45/17 23/46/21 24/47/21 16/48/10 2/17/2 
s 2
f 25/49/22 26/50/23 27/51/24 28/52/24 29/53/25 30/54/26 
s 4
f 31/55/27 32/56/28 33/57/29 34/58/30 35/59/30 36/60/31 
s 8
f 25/61/22 30/62/26 32/63/28 31/64/27 
s 16
f 30/65/26 29/66/25 37/67/32 38/68/33 33/69/29 32/70/28 
s 32
f 39/71/34 40/72/35 41/73/36 42/74/37 
s 64
f 26/75/23 25/76/22 31/77/27 36/78/31 43/79/38 44/80/38 
s 32
f 35/81/30 34/82/30 40/72/35 39/71/34 
f 28/83/24 27/84/24 42/74/37 41/73/36 
f 40/72/35 38/85/33 37/86/32 41/73/36 
f 42/74/37 44/87/38 43/88/38 39/71/34 
f 34/82/30 33/89/29 38/85/33 40/72/35 
f 39/71/34 43/88/38 36/90/31 35/81/30 
f 27/84/24 26/91/23 44/87/38 42/74/37 
f 41/73/36 37/86/32 29/92/25 28/83/24 
s 2
f 45/93/39 46/94/40 47/95/41 48/96/42 
s 4
f 49/97/43 50/98/44 51/99/45 52/100/46 
s 8
f 53/101/9 54/102/9 55/103/9 56/104/9 
s 16
f 48/105/42 47/106/41 50/107/44 49/108/43 
s 64
f 46/109/40 45/110/39 52/111/46 51/112/45 
s off
f 57/113/9 58/114/9 59/115/9 60/116/9 
s 2
f 46/94/40 60/117/47 61/118/11 62/119/11 57/120/48 47/95/41 
f 48/96/42 54/121/49 53/122/50 45/93/39 
s 4
f 50/98/44 58/123/51 63/124/52 64/125/52 59/126/53 51/99/45 
f 52/100/46 56/127/54 55/128/55 49/97/43 
s 16
f 47/106/41 57/129/48 65/130/56 66/131/56 58/132/51 50/107/44 
f 49/108/43 55/133/55 54/134/49 48/105/42 
s 64
f 45/110/39 53/135/50 56/136/54 52/111/46 
f 51/112/45 59/137/53 67/138/57 68/139/57 60/140/47 46/109/40 
s 2
f 69/141/22 70/142/23 71/143/24 72/144/24 73/145/25 74/146/26 
s 4
f 75/147/27 76/148/28 77/149/29 78/150/30 79/151/30 80/152/31 
s 8
f 69/153/22 74/154/26 76/155/28 75/156/27 
s 16
f 74/157/26 73/158/25 81/159/32 82/160/33 77/161/29 76/162/28 
s 32
f 83/163/34 84/164/35 85/165/36 86/166/37 
s 64
f 70/167/23 69/168/22 75/169/27 80/170/31 87/171/38 88/172/38 
s 32
f 79/173/30 78/174/30 84/164/35 83/163/34 
f 72/175/24 71/176/24 86/166/37 85/165/36 
f 84/164/35 82/177/33 81/178/32 85/165/36 
f 86/166/37 88/179/38 87/180/38 83/163/34 
f 78/174/30 77/181/29 82/177/33 84/164/35 
f 83/163/34 87/180/38 80/182/31 79/173/30 
f 71/176/24 70/183/23 88/179/38 86/166/37 
f 85/165/36 81/178/32 73/184/25 72/175/24 
s 1
f 89/185/58 90/186/16 91/187/59 92/188/60 
f 93/189/61 94/190/62 90/186/16 89/185/58 
s off
f 92/188/60 95/191/63 89/185/58 
f 93/189/61 89/185/58 95/191/63 
f 96/192/64 97/193/65 98/194/66 
f 98/194/66 97/193/65 99/195/67 
f 100/196/68 101/197/69 92/198/60 91/199/59 99/200/67 
f 101/201/69 102/202/70 95/203/63 92/204/60 
f 102/202/70 103/205/71 93/206/61 95/203/63 
f 103/207/71 104/208/72 96/209/64 94/210/62 93/211/61 
f 104/212/72 105/213/9 97/214/65 96/215/64 
f 105/213/9 100/216/68 99/217/67 97/214/65 
s 1
f 90/186/16 98/194/66 99/195/67 91/187/59 
f 94/190/62 96/192/64 98/194/66 90/186/16 
f 106/218/58 107/219/16 108/220/59 109/221/60 
f 110/222/61 111/223/73 107/219/16 106/218/58 
s off
f 109/221/60 112/224/74 106/218/58 
f 110/222/61 106/218/58 112/224/74 
f 113/225/64 114/226/75 115/227/66 
f 115/227/66 114/226/75 116/228/67 
f 117/229/68 118/230/69 109/231/60 108/232/59 116/233/67 
f 118/234/69 119/235/76 112/236/74 109/237/60 
f 119/235/76 120/238/71 110/239/61 112/236/74 
f 120/240/71 121/241/72 113/242/64 111/243/73 110/244/61 
f 121/245/72 122/246/77 114/247/75 113/248/64 
f 122/246/77 117/249/68 116/250/67 114/247/75 
s 1
f 107/219/16 115/227/66 116/228/67 108/220/59 
f 111/223/73 113/225/64 115/227/66 107/219/16 
f 123/251/58 124/252/16 125/253/59 126/254/60 
f 127/255/61 128/256/62 124/252/16 123/251/58 
s off
f 126/254/60 129/257/63 123/251/58 
f 127/255/61 123/251/58 129/257/63 
f 130/258/64 131/259/65 132/260/66 
f 132/260/66 131/259/65 133/261/67 
f 134/262/68 135/263/69 126/264/60 125/265/59 133/266/67 
f 135/267/69 136/268/70 129/269/63 126/270/60 
f 136/268/70 137/271/71 127/272/61 129/269/63 
f 137/273/71 138/274/72 130/275/64 128/276/62 127/277/61 
f 138/278/72 139/279/9 131/280/65 130/281/64 
f 139/279/9 134/282/68 133/283/67 131/280/65 
s 1
f 124/252/16 132/260/66 133/261/67 125/253/59 
f 128/256/62 130/258/64 132/260/66 124/252/16 
f 140/284/58 141/285/16 142/286/59 143/287/60 
f 144/288/61 145/289/73 141/285/16 140/284/58 
s off
f 143/287/60 146/290/74 140/284/58 
f 144/288/61 140/284/58 146/290/74 
f 147/291/64 148/292/75 149/293/66 
f 149/293/66 148/292/75 150/294/67 
f 151/295/68 152/296/69 143/297/60 142/298/59 150/299/67 
f 152/300/69 153/301/76 146/302/74 143/303/60 
f 153/301/76 154/304/71 144/305/61 146/302/74 
f 154/306/71 155/307/72 147/308/64 145/309/73 144/310/61 
f 155/311/72 156/312/77 148/313/75 147/314/64 
f 156/312/77 151/315/68 150/316/67 148/313/75 
s 1
f 141/285/16 149/293/66 150/294/67 142/286/59 
f 145/289/73 147/291/64 149/293/66 141/285/16 
# 96 polygons - 16 triangles

