# 3ds Max Wavefront OBJ Exporter v0.97b - (c)2007 guruware
# File Created: 04.02.2021 16:26:11

#
# object Box066
#

v  509.4962 6.2585 440.3263
v  507.8017 6.0643 444.9820
v  507.8017 7.3994 444.9820
v  509.4962 7.5936 440.3263
v  508.8122 7.5936 440.0773
v  507.1176 7.3994 444.7330
v  507.1176 6.0643 444.7330
v  508.8122 6.2585 440.0773
v  510.8496 6.1005 436.6078
v  510.8496 7.4357 436.6078
v  510.1656 7.4357 436.3588
v  510.1656 6.1005 436.3588
v  506.4085 7.4357 448.8097
v  505.7245 7.4357 448.5608
v  505.7245 6.1005 448.5608
v  506.4085 6.1005 448.8097
v  506.4085 6.4819 448.8097
v  506.4085 7.0543 448.8097
v  505.7245 7.0543 448.5608
v  505.7245 6.4819 448.5608
v  506.2131 7.4357 448.7386
v  505.9198 7.4357 448.6319
v  505.9198 6.1005 448.6319
v  506.2131 6.1005 448.7386
v  507.6200 0.0000 447.6094
v  507.6200 8.3333 447.6094
v  507.7505 8.3333 447.2511
v  507.9462 8.3333 446.7132
v  508.0767 8.3333 446.3548
v  508.0767 0.0000 446.3548
v  506.9360 0.0000 447.3605
v  507.3926 0.0000 446.1059
v  507.3926 8.3333 446.1059
v  507.2622 8.3333 446.4642
v  507.0664 8.3333 447.0021
v  506.9360 8.3333 447.3605
v  507.8813 8.3333 446.2837
v  507.5880 8.3333 446.1770
v  507.2618 8.5338 447.0732
v  507.4576 8.5338 446.5353
v  507.7509 8.5338 446.6421
v  507.5551 8.5338 447.1800
v  507.1313 8.3333 447.4316
v  507.4246 8.3333 447.5383
v  509.4962 3.5284 440.3263
v  507.8017 3.6322 444.9820
v  507.8017 4.9673 444.9820
v  509.4962 4.8636 440.3263
v  508.8600 4.8636 440.0947
v  507.2253 4.9673 444.7722
v  507.2253 3.6322 444.7722
v  508.8600 3.5284 440.0947
v  510.8496 3.5022 436.6078
v  510.8496 4.8373 436.6078
v  510.1656 4.8373 436.3588
v  510.1656 3.5022 436.3588
v  506.4085 4.8373 448.8097
v  505.7245 4.8373 448.5608
v  505.7245 3.5022 448.5608
v  506.4085 3.5022 448.8097
v  506.4085 3.8835 448.8097
v  506.4085 4.4560 448.8097
v  505.7245 4.4560 448.5608
v  505.7245 3.8835 448.5608
v  506.2131 4.8373 448.7386
v  505.9198 4.8373 448.6319
v  505.9198 3.5022 448.6319
v  506.2131 3.5022 448.7386
v  510.5187 0.0000 439.6454
v  510.5187 8.3333 439.6454
v  510.6491 8.3333 439.2870
v  510.8449 8.3333 438.7491
v  510.9753 8.3333 438.3908
v  510.9753 0.0000 438.3908
v  509.8347 0.0000 439.3964
v  510.2913 0.0000 438.1418
v  510.2913 8.3333 438.1418
v  510.1609 8.3333 438.5002
v  509.9651 8.3333 439.0381
v  509.8347 8.3333 439.3964
v  510.7800 8.3333 438.3197
v  510.4867 8.3333 438.2129
v  510.1605 8.5338 439.1092
v  510.3563 8.5338 438.5713
v  510.6495 8.5338 438.6780
v  510.4537 8.5338 439.2159
v  510.0300 8.3333 439.4676
v  510.3233 8.3333 439.5743
v  506.3801 6.7681 446.5873
v  506.4016 6.7681 446.4556
v  506.4576 7.0354 446.4760
v  506.4128 7.0354 446.5992
v  506.4128 6.5008 446.5992
v  506.4576 6.5008 446.4760
v  506.3530 6.7681 446.7634
v  506.5025 6.5008 446.3527
v  506.5623 6.7681 446.1885
v  506.4698 6.7681 446.3408
v  506.5025 7.0354 446.3527
v  506.5251 7.0354 446.3609
v  506.4354 7.0354 446.6075
v  506.3756 6.7681 446.7717
v  506.4354 6.5008 446.6075
v  506.5251 6.5008 446.3609
v  506.5849 6.7681 446.1967
v  506.3801 4.1666 446.5873
v  506.4016 4.1666 446.4556
v  506.4576 4.4339 446.4760
v  506.4128 4.4339 446.5992
v  506.4128 3.8994 446.5992
v  506.4576 3.8994 446.4760
v  506.3530 4.1666 446.7634
v  506.5025 3.8994 446.3527
v  506.5623 4.1666 446.1885
v  506.4698 4.1666 446.3408
v  506.5025 4.4339 446.3527
v  506.5251 4.4339 446.3609
v  506.4354 4.4339 446.6075
v  506.3756 4.1666 446.7717
v  506.4354 3.8994 446.6075
v  506.5251 3.8994 446.3609
v  506.5849 4.1666 446.1967
v  509.2788 6.7681 438.6233
v  509.3003 6.7681 438.4915
v  509.3563 7.0354 438.5119
v  509.3114 7.0354 438.6352
v  509.3114 6.5008 438.6352
v  509.3563 6.5008 438.5119
v  509.2516 6.7681 438.7994
v  509.4012 6.5008 438.3886
v  509.4609 6.7681 438.2244
v  509.3685 6.7681 438.3768
v  509.4012 7.0354 438.3886
v  509.4238 7.0354 438.3969
v  509.3341 7.0354 438.6434
v  509.2743 6.7681 438.8076
v  509.3341 6.5008 438.6434
v  509.4238 6.5008 438.3969
v  509.4836 6.7681 438.2327
v  509.2788 4.1666 438.6233
v  509.3003 4.1666 438.4915
v  509.3563 4.4339 438.5119
v  509.3114 4.4339 438.6352
v  509.3114 3.8994 438.6352
v  509.3563 3.8994 438.5119
v  509.2516 4.1666 438.7994
v  509.4012 3.8994 438.3886
v  509.4609 4.1666 438.2244
v  509.3685 4.1666 438.3768
v  509.4012 4.4339 438.3886
v  509.4238 4.4339 438.3969
v  509.3341 4.4339 438.6434
v  509.2743 4.1666 438.8076
v  509.3341 3.8994 438.6434
v  509.4238 3.8994 438.3969
v  509.4836 4.1666 438.2327
# 156 vertices

vn 0.6773 -0.6930 0.2469
vn 0.6625 -0.7149 0.2236
vn 0.6668 0.6985 0.2598
vn 0.6522 0.7200 0.2370
vn -0.6519 0.7201 -0.2377
vn -0.6778 0.6985 -0.2296
vn -0.6513 -0.7149 -0.2545
vn -0.6775 -0.6931 -0.2462
vn 0.3420 0.0000 -0.9397
vn 0.6640 -0.7040 0.2518
vn 0.9397 0.0000 0.3420
vn 0.6649 0.7101 0.2318
vn 0.6913 0.6923 0.2070
vn 0.6364 -0.7195 0.2781
vn -0.6583 0.7101 -0.2498
vn -0.9397 -0.0000 -0.3420
vn -0.6706 -0.7040 -0.2339
vn -0.6663 -0.7195 -0.1961
vn -0.6626 0.6923 -0.2858
vn 0.0046 0.9999 -0.0127
vn -0.0046 -0.9999 0.0127
vn 0.3451 -0.5774 0.7400
vn 0.3451 0.5774 0.7400
vn 0.8978 0.2952 0.3268
vn 0.7400 0.5774 -0.3451
vn 0.7400 -0.5774 -0.3451
vn -0.7400 -0.5774 0.3451
vn -0.3451 -0.5774 -0.7400
vn -0.3451 0.5774 -0.7400
vn -0.8978 0.2952 -0.3268
vn -0.7400 0.5773 0.3451
vn 0.3082 0.4337 -0.8467
vn 0.3228 -0.3305 -0.8869
vn -0.4952 0.8598 0.1243
vn -0.2995 0.8598 -0.4136
vn 0.4952 0.8598 -0.1243
vn 0.2995 0.8598 0.4136
vn -0.3082 0.4337 0.8467
vn 0.6571 -0.7094 0.2550
vn 0.6751 -0.6978 0.2395
vn 0.6541 0.7158 0.2444
vn 0.6718 0.7045 0.2288
vn -0.6649 0.7046 -0.2479
vn -0.6520 0.7205 -0.2363
vn -0.6647 -0.7025 -0.2542
vn -0.6702 -0.7093 -0.2186
vn 0.6659 -0.7172 0.2054
vn 0.6629 0.6955 0.2772
vn 0.6689 0.7049 0.2359
vn 0.6598 -0.7094 0.2478
vn -0.6850 0.6895 -0.2354
vn -0.9297 -0.0000 -0.3683
vn -0.6408 -0.7105 -0.2909
vn -0.6705 -0.7064 -0.2268
vn -0.6700 0.7019 -0.2416
vn -0.0166 0.9988 0.0455
vn 0.0166 -0.9988 -0.0455
vn 0.7400 -0.5773 -0.3451
vn -0.9876 -0.0000 -0.1568
vn -0.6143 0.7567 -0.2236
vn -0.6915 0.6879 0.2206
vn -0.6914 -0.6879 0.2207
vn -0.6143 -0.7567 -0.2236
vn -0.8136 -0.0000 0.5814
vn -0.3878 -0.6879 -0.6136
vn -0.2495 -0.0000 -0.9684
vn -0.8574 -0.0000 -0.5147
vn -0.3878 0.6879 -0.6135
vn 0.1880 0.8353 -0.5166
vn -0.1880 0.8353 0.5167
vn -0.3420 0.0000 0.9397
vn -0.1880 -0.8353 0.5166
vn 0.1880 -0.8354 -0.5165
vn -0.6143 -0.7568 -0.2236
vn -0.8136 0.0000 0.5814
vn -0.2496 0.0000 -0.9683
vn -0.3420 -0.0000 0.9397
vn 0.3420 -0.0000 -0.9397
# 78 vertex normals

vt 0.1856 0.5040 0.0000
vt 0.3238 0.4958 0.0000
vt 0.3238 0.5523 0.0000
vt 0.1856 0.5606 0.0000
vt 0.1276 0.9201 0.0000
vt 0.2658 0.9283 0.0000
vt 0.2658 0.9848 0.0000
vt 0.1276 0.9766 0.0000
vt 0.2816 0.9038 0.0000
vt 0.3381 0.9038 0.0000
vt 0.3381 0.9241 0.0000
vt 0.2816 0.9241 0.0000
vt 0.1850 0.6697 0.0000
vt 0.3234 0.6697 0.0000
vt 0.3234 0.6900 0.0000
vt 0.1850 0.6900 0.0000
vt 0.1886 0.6929 0.0000
vt 0.3270 0.6929 0.0000
vt 0.3270 0.7132 0.0000
vt 0.1886 0.7132 0.0000
vt 0.2755 0.9038 0.0000
vt 0.2755 0.9241 0.0000
vt 0.2190 0.9241 0.0000
vt 0.2190 0.9038 0.0000
vt 0.4374 0.4973 0.0000
vt 0.4374 0.5135 0.0000
vt 0.4374 0.5377 0.0000
vt 0.4374 0.5539 0.0000
vt 0.0752 0.5539 0.0000
vt 0.0752 0.4973 0.0000
vt 0.3794 0.9268 0.0000
vt 0.3794 0.9429 0.0000
vt 0.3794 0.9671 0.0000
vt 0.3794 0.9833 0.0000
vt 0.0173 0.9833 0.0000
vt 0.0173 0.9268 0.0000
vt 0.4367 0.6697 0.0000
vt 0.4367 0.6755 0.0000
vt 0.4367 0.6842 0.0000
vt 0.4367 0.6900 0.0000
vt 0.0752 0.6900 0.0000
vt 0.0752 0.6697 0.0000
vt 0.4367 0.6929 0.0000
vt 0.4367 0.7132 0.0000
vt 0.0752 0.7132 0.0000
vt 0.0752 0.7074 0.0000
vt 0.0752 0.6987 0.0000
vt 0.0752 0.6929 0.0000
vt 0.4281 0.8321 0.0000
vt 0.0752 0.8321 0.0000
vt 0.0752 0.8215 0.0000
vt 0.0752 0.8055 0.0000
vt 0.0752 0.7949 0.0000
vt 0.4281 0.7949 0.0000
vt 0.4415 0.6256 0.0000
vt 0.4788 0.6256 0.0000
vt 0.4788 0.9785 0.0000
vt 0.4681 0.9785 0.0000
vt 0.4522 0.9785 0.0000
vt 0.4415 0.9785 0.0000
vt 0.4810 0.9341 0.0000
vt 0.4810 0.8969 0.0000
vt 0.5013 0.8969 0.0000
vt 0.5013 0.9341 0.0000
vt 0.0752 0.8343 0.0000
vt 0.4281 0.8343 0.0000
vt 0.4281 0.8401 0.0000
vt 0.4281 0.8488 0.0000
vt 0.4281 0.8546 0.0000
vt 0.0752 0.8546 0.0000
vt 0.4520 0.6082 0.0000
vt 0.4520 0.5922 0.0000
vt 0.4607 0.5922 0.0000
vt 0.4607 0.6082 0.0000
vt 0.0752 0.8575 0.0000
vt 0.4281 0.8575 0.0000
vt 0.4281 0.8778 0.0000
vt 0.0752 0.8778 0.0000
vt 0.0752 0.8720 0.0000
vt 0.0752 0.8633 0.0000
vt 0.4462 0.6082 0.0000
vt 0.4462 0.5922 0.0000
vt 0.4665 0.5922 0.0000
vt 0.4665 0.6082 0.0000
vt 0.4520 0.5816 0.0000
vt 0.4607 0.5816 0.0000
vt 0.4607 0.6188 0.0000
vt 0.4520 0.6188 0.0000
vt 0.4462 0.5816 0.0000
vt 0.4462 0.6188 0.0000
vt 0.4665 0.6188 0.0000
vt 0.4665 0.5816 0.0000
vt 0.0161 0.7499 0.0000
vt 0.0205 0.6117 0.0000
vt 0.0770 0.6117 0.0000
vt 0.0726 0.7499 0.0000
vt 0.1926 0.5628 0.0000
vt 0.3307 0.5584 0.0000
vt 0.3307 0.6149 0.0000
vt 0.1926 0.6193 0.0000
vt 0.4595 0.4958 0.0000
vt 0.4595 0.5523 0.0000
vt 0.4392 0.5523 0.0000
vt 0.4392 0.4958 0.0000
vt 0.1879 0.6465 0.0000
vt 0.3261 0.6465 0.0000
vt 0.3261 0.6636 0.0000
vt 0.1879 0.6654 0.0000
vt 0.1909 0.6233 0.0000
vt 0.3292 0.6233 0.0000
vt 0.3292 0.6422 0.0000
vt 0.1909 0.6404 0.0000
vt 0.4062 0.9372 0.0000
vt 0.3859 0.9372 0.0000
vt 0.3859 0.8806 0.0000
vt 0.4062 0.8806 0.0000
vt 0.0150 0.4981 0.0000
vt 0.0311 0.4981 0.0000
vt 0.0554 0.4981 0.0000
vt 0.0715 0.4981 0.0000
vt 0.0715 0.8602 0.0000
vt 0.0150 0.8602 0.0000
vt 0.4443 0.5639 0.0000
vt 0.4443 0.5800 0.0000
vt 0.4443 0.6043 0.0000
vt 0.4443 0.6204 0.0000
vt 0.0822 0.6204 0.0000
vt 0.0822 0.5639 0.0000
vt 0.4395 0.6465 0.0000
vt 0.4395 0.6523 0.0000
vt 0.4395 0.6610 0.0000
vt 0.4395 0.6668 0.0000
vt 0.0776 0.6668 0.0000
vt 0.0776 0.6465 0.0000
vt 0.4395 0.6233 0.0000
vt 0.4395 0.6436 0.0000
vt 0.0776 0.6436 0.0000
vt 0.0776 0.6378 0.0000
vt 0.0776 0.6291 0.0000
vt 0.0776 0.6233 0.0000
vt 0.0752 0.7555 0.0000
vt 0.4281 0.7555 0.0000
vt 0.4281 0.7661 0.0000
vt 0.4281 0.7821 0.0000
vt 0.4281 0.7927 0.0000
vt 0.0752 0.7927 0.0000
vt 0.0752 0.7533 0.0000
vt 0.0752 0.7160 0.0000
vt 0.4281 0.7160 0.0000
vt 0.4281 0.7267 0.0000
vt 0.4281 0.7426 0.0000
vt 0.4281 0.7533 0.0000
vt 0.3859 0.9758 0.0000
vt 0.3859 0.9386 0.0000
vt 0.4062 0.9386 0.0000
vt 0.4062 0.9758 0.0000
vt 0.4833 0.8510 0.0000
vt 0.4833 0.4981 0.0000
vt 0.4891 0.4981 0.0000
vt 0.4978 0.4981 0.0000
vt 0.5036 0.4981 0.0000
vt 0.5036 0.8510 0.0000
vt 0.4868 0.9675 0.0000
vt 0.4868 0.9516 0.0000
vt 0.4955 0.9516 0.0000
vt 0.4955 0.9675 0.0000
vt 0.0150 0.8806 0.0000
vt 0.3678 0.8806 0.0000
vt 0.3678 0.9009 0.0000
vt 0.0150 0.9009 0.0000
vt 0.0150 0.8952 0.0000
vt 0.0150 0.8864 0.0000
vt 0.4810 0.9675 0.0000
vt 0.4810 0.9516 0.0000
vt 0.5013 0.9516 0.0000
vt 0.5013 0.9675 0.0000
vt 0.4868 0.9409 0.0000
vt 0.4955 0.9409 0.0000
vt 0.4955 0.9782 0.0000
vt 0.4868 0.9782 0.0000
vt 0.4810 0.9409 0.0000
vt 0.4810 0.9782 0.0000
vt 0.5013 0.9782 0.0000
vt 0.5013 0.9409 0.0000
vt 0.6461 0.1516 0.0000
vt 0.6608 0.1152 0.0000
vt 0.7733 0.1607 0.0000
vt 0.7586 0.1970 0.0000
vt 0.5336 0.1061 0.0000
vt 0.5483 0.0697 0.0000
vt 0.6265 0.2000 0.0000
vt 0.5630 0.0333 0.0000
vt 0.6951 0.0303 0.0000
vt 0.6755 0.0788 0.0000
vt 0.7880 0.1243 0.0000
vt 0.7447 0.2808 0.0000
vt 0.7447 0.2023 0.0000
vt 0.7519 0.2023 0.0000
vt 0.7519 0.2415 0.0000
vt 0.7519 0.2808 0.0000
vt 0.7763 0.4795 0.0000
vt 0.6549 0.4795 0.0000
vt 0.6549 0.4722 0.0000
vt 0.7763 0.4722 0.0000
vt 0.5336 0.4795 0.0000
vt 0.5336 0.4722 0.0000
vt 0.7208 0.0434 0.0000
vt 0.7992 0.0434 0.0000
vt 0.7992 0.0506 0.0000
vt 0.7600 0.0506 0.0000
vt 0.7208 0.0506 0.0000
vt 0.7763 0.4664 0.0000
vt 0.6549 0.4664 0.0000
vt 0.6549 0.4592 0.0000
vt 0.7763 0.4592 0.0000
vt 0.5336 0.4664 0.0000
vt 0.5336 0.4592 0.0000
vt 0.5799 0.3200 0.0000
vt 0.6162 0.3038 0.0000
vt 0.6635 0.4169 0.0000
vt 0.6275 0.4321 0.0000
vt 0.5314 0.2109 0.0000
vt 0.5674 0.1957 0.0000
vt 0.5315 0.3417 0.0000
vt 0.6034 0.1805 0.0000
vt 0.6994 0.2709 0.0000
vt 0.6519 0.2896 0.0000
vt 0.6995 0.4017 0.0000
vt 0.7862 0.0376 0.0000
vt 0.7077 0.0376 0.0000
vt 0.7077 0.0303 0.0000
vt 0.7469 0.0303 0.0000
vt 0.7862 0.0303 0.0000
vt 0.7258 0.2023 0.0000
vt 0.7258 0.3345 0.0000
vt 0.7186 0.3345 0.0000
vt 0.7186 0.2023 0.0000
vt 0.7258 0.4253 0.0000
vt 0.7186 0.4253 0.0000
vt 0.9631 0.3460 0.0000
vt 0.9631 0.4245 0.0000
vt 0.9559 0.4245 0.0000
vt 0.9559 0.3852 0.0000
vt 0.9559 0.3460 0.0000
vt 0.7084 0.2023 0.0000
vt 0.7084 0.3345 0.0000
vt 0.7012 0.3345 0.0000
vt 0.7012 0.2023 0.0000
vt 0.7084 0.4253 0.0000
vt 0.7012 0.4253 0.0000
vt 0.8992 0.3470 0.0000
vt 0.8629 0.3633 0.0000
vt 0.8155 0.2502 0.0000
vt 0.8515 0.2350 0.0000
vt 0.9477 0.4561 0.0000
vt 0.9117 0.4713 0.0000
vt 0.9475 0.3253 0.0000
vt 0.8757 0.4865 0.0000
vt 0.7797 0.3961 0.0000
vt 0.8272 0.3774 0.0000
vt 0.7795 0.2653 0.0000
vt 0.7432 0.2872 0.0000
vt 0.7432 0.3657 0.0000
vt 0.7360 0.3657 0.0000
vt 0.7360 0.3264 0.0000
vt 0.7360 0.2872 0.0000
vt 0.5336 0.4461 0.0000
vt 0.6657 0.4461 0.0000
vt 0.6657 0.4533 0.0000
vt 0.5336 0.4533 0.0000
vt 0.7565 0.4461 0.0000
vt 0.7565 0.4533 0.0000
vt 0.9631 0.2654 0.0000
vt 0.9631 0.3439 0.0000
vt 0.9559 0.3439 0.0000
vt 0.9559 0.3047 0.0000
vt 0.9559 0.2654 0.0000
vt 0.9783 0.2589 0.0000
vt 0.9783 0.3911 0.0000
vt 0.9711 0.3911 0.0000
vt 0.9711 0.2589 0.0000
vt 0.9783 0.4819 0.0000
vt 0.9711 0.4819 0.0000
vt 0.9318 0.1446 0.0000
vt 0.8955 0.1608 0.0000
vt 0.8482 0.0477 0.0000
vt 0.8842 0.0325 0.0000
vt 0.9803 0.2537 0.0000
vt 0.9443 0.2689 0.0000
vt 0.9802 0.1229 0.0000
vt 0.9084 0.2840 0.0000
vt 0.8123 0.1937 0.0000
vt 0.8599 0.1749 0.0000
vt 0.8122 0.0629 0.0000
vt 0.5357 0.4353 0.0000
vt 0.5357 0.3569 0.0000
vt 0.5429 0.3569 0.0000
vt 0.5429 0.3961 0.0000
vt 0.5429 0.4353 0.0000
vt 0.7273 0.4253 0.0000
vt 0.7273 0.2931 0.0000
vt 0.7345 0.2931 0.0000
vt 0.7345 0.4253 0.0000
vt 0.7273 0.2023 0.0000
vt 0.7345 0.2023 0.0000
vt 0.7432 0.2023 0.0000
vt 0.7432 0.2808 0.0000
vt 0.7360 0.2808 0.0000
vt 0.7360 0.2415 0.0000
vt 0.7360 0.2023 0.0000
vt 0.7171 0.2023 0.0000
vt 0.7171 0.3345 0.0000
vt 0.7099 0.3345 0.0000
vt 0.7099 0.2023 0.0000
vt 0.7171 0.4253 0.0000
vt 0.7099 0.4253 0.0000
# 316 texture coords

o Box066
g Box066
s 2
f 4/4/4 3/3/3 2/2/2 1/1/1 
s 4
f 8/8/8 7/7/7 6/6/6 5/5/5 
s 8
f 12/12/9 11/11/9 10/10/9 9/9/9 
s 16
f 5/16/5 6/15/6 3/14/3 4/13/4 
s 64
f 7/20/7 8/19/8 1/18/1 2/17/2 
s off
f 16/24/9 15/23/9 14/22/9 13/21/9 
s 2
f 3/3/3 13/28/12 18/27/11 17/26/11 16/25/10 2/2/2 
f 1/1/1 9/30/14 10/29/13 4/4/4 
s 4
f 7/7/7 15/34/17 20/33/16 19/32/16 14/31/15 6/6/6 
f 5/5/5 11/36/19 12/35/18 8/8/8 
s 16
f 6/15/6 14/40/15 22/39/20 21/38/20 13/37/12 3/14/3 
f 4/13/4 10/42/13 11/41/19 5/16/5 
s 64
f 8/19/8 12/44/18 9/43/14 1/18/1 
f 2/17/2 16/48/10 24/47/21 23/46/21 15/45/17 7/20/7 
s 2
f 30/54/26 29/53/25 28/52/24 27/51/24 26/50/23 25/49/22 
s 4
f 36/60/31 35/59/30 34/58/30 33/57/29 32/56/28 31/55/27 
s 8
f 31/64/27 32/63/28 30/62/26 25/61/22 
s 16
f 32/70/28 33/69/29 38/68/33 37/67/32 29/66/25 30/65/26 
s 32
f 42/74/37 41/73/36 40/72/35 39/71/34 
s 64
f 44/80/38 43/79/38 36/78/31 31/77/27 25/76/22 26/75/23 
s 32
f 39/71/34 40/72/35 34/82/30 35/81/30 
f 41/73/36 42/74/37 27/84/24 28/83/24 
f 41/73/36 37/86/32 38/85/33 40/72/35 
f 39/71/34 43/88/38 44/87/38 42/74/37 
f 40/72/35 38/85/33 33/89/29 34/82/30 
f 35/81/30 36/90/31 43/88/38 39/71/34 
f 42/74/37 44/87/38 26/91/23 27/84/24 
f 28/83/24 29/92/25 37/86/32 41/73/36 
s 2
f 48/96/42 47/95/41 46/94/40 45/93/39 
s 4
f 52/100/46 51/99/45 50/98/44 49/97/43 
s 8
f 56/104/9 55/103/9 54/102/9 53/101/9 
s 16
f 49/108/43 50/107/44 47/106/41 48/105/42 
s 64
f 51/112/45 52/111/46 45/110/39 46/109/40 
s off
f 60/116/9 59/115/9 58/114/9 57/113/9 
s 2
f 47/95/41 57/120/48 62/119/11 61/118/11 60/117/47 46/94/40 
f 45/93/39 53/122/50 54/121/49 48/96/42 
s 4
f 51/99/45 59/126/53 64/125/52 63/124/52 58/123/51 50/98/44 
f 49/97/43 55/128/55 56/127/54 52/100/46 
s 16
f 50/107/44 58/132/51 66/131/56 65/130/56 57/129/48 47/106/41 
f 48/105/42 54/134/49 55/133/55 49/108/43 
s 64
f 52/111/46 56/136/54 53/135/50 45/110/39 
f 46/109/40 60/140/47 68/139/57 67/138/57 59/137/53 51/112/45 
s 2
f 74/146/58 73/145/25 72/144/24 71/143/24 70/142/23 69/141/22 
s 4
f 80/152/31 79/151/30 78/150/30 77/149/29 76/148/28 75/147/27 
s 8
f 75/156/27 76/155/28 74/154/58 69/153/22 
s 16
f 76/162/28 77/161/29 82/160/33 81/159/32 73/158/25 74/157/58 
s 32
f 86/166/37 85/165/36 84/164/35 83/163/34 
s 64
f 88/172/38 87/171/38 80/170/31 75/169/27 69/168/22 70/167/23 
s 32
f 83/163/34 84/164/35 78/174/30 79/173/30 
f 85/165/36 86/166/37 71/176/24 72/175/24 
f 85/165/36 81/178/32 82/177/33 84/164/35 
f 83/163/34 87/180/38 88/179/38 86/166/37 
f 84/164/35 82/177/33 77/181/29 78/174/30 
f 79/173/30 80/182/31 87/180/38 83/163/34 
f 86/166/37 88/179/38 70/183/23 71/176/24 
f 72/175/24 73/184/25 81/178/32 85/165/36 
s 1
f 92/188/61 91/187/60 90/186/16 89/185/59 
f 89/185/59 90/186/16 94/190/63 93/189/62 
s off
f 89/185/59 95/191/64 92/188/61 
f 95/191/64 89/185/59 93/189/62 
f 98/194/67 97/193/66 96/192/65 
f 99/195/68 97/193/66 98/194/67 
f 99/200/68 91/199/60 92/198/61 101/197/70 100/196/69 
f 92/204/61 95/203/64 102/202/71 101/201/70 
f 95/203/64 93/206/62 103/205/72 102/202/71 
f 93/211/62 94/210/63 96/209/65 104/208/73 103/207/72 
f 96/215/65 97/214/66 105/213/9 104/212/73 
f 97/214/66 99/217/68 100/216/69 105/213/9 
s 1
f 91/187/60 99/195/68 98/194/67 90/186/16 
f 90/186/16 98/194/67 96/192/65 94/190/63 
f 109/221/61 108/220/60 107/219/16 106/218/59 
f 106/218/59 107/219/16 111/223/74 110/222/62 
s off
f 106/218/59 112/224/75 109/221/61 
f 112/224/75 106/218/59 110/222/62 
f 115/227/67 114/226/76 113/225/65 
f 116/228/68 114/226/76 115/227/67 
f 116/233/68 108/232/60 109/231/61 118/230/70 117/229/69 
f 109/237/61 112/236/75 119/235/77 118/234/70 
f 112/236/75 110/239/62 120/238/72 119/235/77 
f 110/244/62 111/243/74 113/242/65 121/241/73 120/240/72 
f 113/248/65 114/247/76 122/246/78 121/245/73 
f 114/247/76 116/250/68 117/249/69 122/246/78 
s 1
f 108/220/60 116/228/68 115/227/67 107/219/16 
f 107/219/16 115/227/67 113/225/65 111/223/74 
f 126/254/61 125/253/60 124/252/16 123/251/59 
f 123/251/59 124/252/16 128/256/63 127/255/62 
s off
f 123/251/59 129/257/64 126/254/61 
f 129/257/64 123/251/59 127/255/62 
f 132/260/67 131/259/66 130/258/65 
f 133/261/68 131/259/66 132/260/67 
f 133/266/68 125/265/60 126/264/61 135/263/70 134/262/69 
f 126/270/61 129/269/64 136/268/71 135/267/70 
f 129/269/64 127/272/62 137/271/72 136/268/71 
f 127/277/62 128/276/63 130/275/65 138/274/73 137/273/72 
f 130/281/65 131/280/66 139/279/9 138/278/73 
f 131/280/66 133/283/68 134/282/69 139/279/9 
s 1
f 125/253/60 133/261/68 132/260/67 124/252/16 
f 124/252/16 132/260/67 130/258/65 128/256/63 
f 143/287/61 142/286/60 141/285/16 140/284/59 
f 140/284/59 141/285/16 145/289/74 144/288/62 
s off
f 140/284/59 146/290/75 143/287/61 
f 146/290/75 140/284/59 144/288/62 
f 149/293/67 148/292/76 147/291/65 
f 150/294/68 148/292/76 149/293/67 
f 150/299/68 142/298/60 143/297/61 152/296/70 151/295/69 
f 143/303/61 146/302/75 153/301/77 152/300/70 
f 146/302/75 144/305/62 154/304/72 153/301/77 
f 144/310/62 145/309/74 147/308/65 155/307/73 154/306/72 
f 147/314/65 148/313/76 156/312/78 155/311/73 
f 148/313/76 150/316/68 151/315/69 156/312/78 
s 1
f 142/286/60 150/294/68 149/293/67 141/285/16 
f 141/285/16 149/293/67 147/291/65 145/289/74 
# 96 polygons - 16 triangles

