# 3ds Max Wavefront OBJ Exporter v0.97b - (c)2007 guruware
# File Created: 04.02.2021 03:11:59

#
# object Box272
#

v  -121.9061 -0.0000 325.7627
v  -121.9061 -0.0000 321.6457
v  -121.9061 3.2936 321.6457
v  -121.9061 3.2936 325.7627
v  -176.2965 3.2936 325.7627
v  -176.2965 -0.0000 325.7627
v  -176.2965 -0.0000 321.6457
v  -176.2965 3.2936 321.6457
# 8 vertices

vn 0.5774 -0.5774 0.5774
vn 0.5774 -0.5774 -0.5774
vn 0.5774 0.5774 -0.5774
vn 0.5774 0.5774 0.5774
vn -0.5774 0.5774 0.5774
vn -0.5774 -0.5774 0.5774
vn -0.5774 -0.5774 -0.5774
vn -0.5774 0.5774 -0.5774
# 8 vertex normals

vt 0.5844 0.2253 0.0000
vt 0.5284 0.2253 0.0000
vt 0.5284 0.3689 0.0000
vt 0.5844 0.3689 0.0000
vt 0.9176 1.0000 0.0000
vt 0.6284 1.0000 0.0000
vt 0.6284 0.0000 0.0000
vt 0.9176 0.0000 0.0000
vt 0.0824 1.0000 0.0000
vt 0.0824 0.0000 0.0000
vt 0.3716 -0.0000 0.0000
vt 0.3716 1.0000 0.0000
vt 1.0000 0.0824 0.0000
vt 1.0000 0.3716 0.0000
vt 0.0000 0.3716 0.0000
vt -0.0000 0.0824 0.0000
vt -0.0000 0.3716 0.0000
vt 0.4158 0.3467 0.0000
vt 0.2228 0.3467 0.0000
vt 0.2228 0.4680 0.0000
vt 0.4158 0.4680 0.0000
# 21 texture coords

o Box272
g Box272
s 1
f 1/1/1 2/2/2 3/3/3 4/4/4 
s 64
f 4/5/4 5/6/5 6/7/6 1/8/1 
s 16
f 3/9/3 2/10/2 7/11/7 8/12/8 
s 2
f 1/13/1 6/14/6 7/15/7 2/16/2 
s 4
f 8/14/8 5/17/5 4/16/4 3/13/3 
s 1
f 7/18/7 6/19/6 5/20/5 8/21/8 
# 6 polygons

