# 3ds Max Wavefront OBJ Exporter v0.97b - (c)2007 guruware
# File Created: 03.02.2021 18:07:52

#
# object Box146
#

v  -88.3102 -0.0000 642.4721
v  -84.1932 -0.0000 642.4721
v  -84.1932 3.2936 642.4721
v  -88.3102 3.2936 642.4721
v  -88.3102 3.2936 502.0389
v  -88.3102 -0.0000 502.0389
v  -84.1932 3.2936 502.0389
v  -84.1932 -0.0000 502.0389
# 8 vertices

vn -0.5774 -0.5774 0.5774
vn 0.5774 -0.5774 0.5774
vn 0.5774 0.5774 0.5774
vn -0.5774 0.5774 0.5774
vn -0.5774 0.5774 -0.5774
vn -0.5774 -0.5774 -0.5774
vn 0.5774 0.5774 -0.5774
vn 0.5774 -0.5774 -0.5774
# 8 vertex normals

vt 0.5510 0.1432 0.0000
vt 0.4717 0.1432 0.0000
vt 0.4717 0.3067 0.0000
vt 0.5510 0.3067 0.0000
vt 0.0285 1.0000 0.0000
vt 0.0285 0.0000 0.0000
vt 0.8788 -0.0000 0.0000
vt 0.8788 1.0000 0.0000
vt -0.0000 0.0285 0.0000
vt 1.0000 0.0285 0.0000
vt 1.0000 0.8788 0.0000
vt -0.0000 0.8788 0.0000
vt 0.9715 1.0000 0.0000
vt 0.1212 1.0000 0.0000
vt 0.1212 0.0000 0.0000
vt 0.9715 0.0000 0.0000
vt 0.4040 0.3067 0.0000
vt 0.4040 0.1432 0.0000
vt 0.3248 0.1432 0.0000
vt 0.3248 0.3067 0.0000
# 20 texture coords

o Box146
g Box146
s 1
f 1/1/1 2/2/2 3/3/3 4/4/4 
s 16
f 5/5/5 6/6/6 1/7/1 4/8/4 
s 4
f 7/9/7 5/10/5 4/11/4 3/12/3 
s 2
f 8/10/8 2/11/2 1/12/1 6/9/6 
s 64
f 7/13/7 3/14/3 2/15/2 8/16/8 
s 1
f 7/17/7 8/18/8 6/19/6 5/20/5 
# 6 polygons

