# 3ds Max Wavefront OBJ Exporter v0.97b - (c)2007 guruware
# File Created: 04.02.2021 20:41:14

#
# object Box091
#

v  -266.5575 -0.0000 325.7626
v  -216.1207 -0.0000 325.7627
v  -216.1207 3.2936 325.7627
v  -266.5575 3.2936 325.7626
v  -216.1207 3.2936 321.6457
v  -266.5575 3.2936 321.6457
v  -266.5575 -0.0000 321.6457
v  -216.1207 -0.0000 321.6457
# 8 vertices

vn -0.5774 -0.5774 0.5774
vn 0.5774 -0.5774 0.5774
vn 0.5774 0.5774 0.5774
vn -0.5774 0.5774 0.5774
vn 0.5774 0.5774 -0.5774
vn -0.5774 0.5774 -0.5774
vn -0.5774 -0.5774 -0.5774
vn 0.5774 -0.5774 -0.5774
# 8 vertex normals

vt 0.1485 -0.0000 0.0000
vt 0.4166 0.0000 0.0000
vt 0.4166 1.0000 0.0000
vt 0.1485 1.0000 0.0000
vt -0.0000 0.8515 0.0000
vt -0.0000 0.5834 0.0000
vt 1.0000 0.5834 0.0000
vt 1.0000 0.8515 0.0000
vt 0.8515 -0.0000 0.0000
vt 0.8515 1.0000 0.0000
vt 0.5834 1.0000 0.0000
vt 0.5834 0.0000 0.0000
vt 0.5842 0.3467 0.0000
vt 0.5842 0.4680 0.0000
vt 0.7772 0.4680 0.0000
vt 0.7772 0.3467 0.0000
vt 0.0000 0.8515 0.0000
vt 0.0000 0.5834 0.0000
vt 0.4716 0.2253 0.0000
vt 0.4156 0.2253 0.0000
vt 0.4156 0.3689 0.0000
vt 0.4716 0.3689 0.0000
# 22 texture coords

o Box091
g Box091
s 64
f 1/1/1 2/2/2 3/3/3 4/4/4 
s 4
f 4/5/4 3/6/3 5/7/5 6/8/6 
s 16
f 7/9/7 6/10/6 5/11/5 8/12/8 
s 1
f 8/13/8 5/14/5 3/15/3 2/16/2 
s 2
f 1/8/1 7/17/7 8/18/8 2/7/2 
s 1
f 7/19/7 1/20/1 4/21/4 6/22/6 
# 6 polygons

