# 3ds Max Wavefront OBJ Exporter v0.97b - (c)2007 guruware
# File Created: 04.02.2021 20:47:55

#
# object Box269
#

v  -172.1713 -0.0000 325.7626
v  -176.2882 -0.0000 325.7626
v  -176.2882 3.2936 325.7626
v  -172.1713 3.2936 325.7626
v  -172.1713 3.2936 340.0134
v  -172.1713 -0.0000 340.0134
v  -176.2883 -0.0000 340.0134
v  -176.2883 3.2936 340.0134
# 8 vertices

vn 0.5774 -0.5774 -0.5774
vn -0.5774 -0.5774 -0.5774
vn -0.5774 0.5774 -0.5774
vn 0.5774 0.5774 -0.5774
vn 0.5774 0.5774 0.5774
vn 0.5774 -0.5774 0.5774
vn -0.5774 -0.5774 0.5773
vn -0.5774 0.5774 0.5773
# 8 vertex normals

vt 0.0000 0.0000 0.0000
vt 1.0000 0.0000 0.0000
vt 1.0000 1.0000 0.0000
vt 0.0000 1.0000 0.0000
vt 0.0727 1.0000 0.0000
vt 0.0727 0.0000 0.0000
vt 1.0000 0.9273 0.0000
vt -0.0000 0.9273 0.0000
vt 0.9273 -0.0000 0.0000
vt 0.9273 1.0000 0.0000
vt 0.6593 0.1487 0.0000
vt 0.4865 0.1487 0.0000
vt 0.4865 0.3268 0.0000
vt 0.6593 0.3268 0.0000
# 14 texture coords

o Box269
g Box269
s 8
f 1/1/1 2/2/2 3/3/3 4/4/4 
s 64
f 4/3/4 5/5/5 6/6/6 1/2/1 
s 2
f 1/2/1 6/7/6 7/8/7 2/1/2 
s 4
f 4/1/4 3/2/3 8/7/8 5/8/5 
s 16
f 7/9/7 8/10/8 3/4/3 2/1/2 
s 1
f 7/11/7 6/12/6 5/13/5 8/14/8 
# 6 polygons

