# 3ds Max Wavefront OBJ Exporter v0.97b - (c)2007 guruware
# File Created: 04.02.2021 20:40:02

#
# object Box092
#

v  -121.9062 -0.0000 152.4985
v  -121.9062 3.2936 152.4985
v  -121.9062 3.2936 156.6154
v  -121.9062 -0.0000 156.6154
v  -266.5575 -0.0000 152.4985
v  -266.5575 3.2936 152.4985
v  -266.5575 3.2936 156.6154
v  -266.5575 -0.0000 156.6154
# 8 vertices

vn 0.5774 -0.5774 -0.5774
vn 0.5774 0.5774 -0.5774
vn 0.5774 0.5774 0.5773
vn 0.5774 -0.5774 0.5773
vn -0.5774 -0.5774 -0.5774
vn -0.5774 0.5774 -0.5774
vn -0.5774 0.5774 0.5774
vn -0.5774 -0.5774 0.5774
# 8 vertex normals

vt 0.5714 0.2253 0.0000
vt 0.5714 0.3689 0.0000
vt 0.6273 0.3689 0.0000
vt 0.6273 0.2253 0.0000
vt 0.8515 -0.0000 0.0000
vt 0.8515 1.0000 0.0000
vt 0.0824 1.0000 0.0000
vt 0.0824 0.0000 0.0000
vt -0.0000 0.8515 0.0000
vt -0.0000 0.0824 0.0000
vt 1.0000 0.0824 0.0000
vt 1.0000 0.8515 0.0000
vt 0.0000 0.8515 0.0000
vt 0.0000 0.0824 0.0000
vt 0.1485 -0.0000 0.0000
vt 0.9176 0.0000 0.0000
vt 0.9176 1.0000 0.0000
vt 0.1485 1.0000 0.0000
vt 0.4691 0.3689 0.0000
vt 0.5251 0.3689 0.0000
vt 0.5251 0.2253 0.0000
vt 0.4691 0.2253 0.0000
# 22 texture coords

o Box092
g Box092
s 1
f 1/1/1 2/2/2 3/3/3 4/4/4 
s 16
f 5/5/5 6/6/6 2/7/2 1/8/1 
s 4
f 7/9/7 3/10/3 2/11/2 6/12/6 
s 2
f 8/12/8 5/13/5 1/14/1 4/11/4 
s 64
f 8/15/8 4/16/4 3/17/3 7/18/7 
s 1
f 7/19/7 6/20/6 5/21/5 8/22/8 
# 6 polygons

