# 3ds Max Wavefront OBJ Exporter v0.97b - (c)2007 guruware
# File Created: 04.02.2021 04:13:10

#
# object Suelo_013
#

v  -162.7847 -1.0066 340.0134
v  -162.7847 -1.0066 452.7620
v  -228.5186 -1.0066 452.7620
v  -228.5186 -1.0066 340.0134
v  -162.7847 -0.0000 340.0134
v  -228.5186 -0.0000 340.0134
v  -228.5186 -0.0000 452.7620
v  -162.7847 -0.0000 452.7620
# 8 vertices

vn 0.5774 -0.5774 -0.5774
vn 0.5774 -0.5774 0.5774
vn -0.5774 -0.5774 0.5774
vn -0.5774 -0.5774 -0.5774
vn 0.5774 0.5774 -0.5774
vn -0.5774 0.5774 -0.5774
vn -0.5774 0.5774 0.5774
vn 0.5774 0.5774 0.5774
# 8 vertex normals

vt 1.0000 0.0000 0.0000
vt 1.0000 1.0000 0.0000
vt 0.0000 1.0000 0.0000
vt 0.0000 0.0000 0.0000
# 4 texture coords

o Suelo_013
g Suelo_013
s 2
f 1/1/1 2/2/2 3/3/3 4/4/4 
s 4
f 5/4/5 6/1/6 7/2/7 8/3/8 
s 8
f 1/4/1 4/1/4 6/2/6 5/3/5 
s 16
f 4/4/4 3/1/3 7/2/7 6/3/6 
s 32
f 3/4/3 2/1/2 8/2/8 7/3/7 
s 64
f 2/4/2 1/1/1 5/2/5 8/3/8 
# 6 polygons

#
# object Suelo_016
#

v  -51.0473 -1.0066 270.5695
v  -121.9062 -1.0066 270.5695
v  -121.9061 -1.0066 204.8356
v  -51.0473 -1.0066 204.8356
v  -51.0473 0.0000 270.5695
v  -51.0473 0.0000 204.8356
v  -121.9061 0.0000 204.8356
v  -121.9062 0.0000 270.5695
# 8 vertices

vn 0.5774 -0.5774 0.5774
vn -0.5774 -0.5774 0.5774
vn -0.5774 -0.5774 -0.5774
vn 0.5774 -0.5774 -0.5774
vn 0.5774 0.5774 0.5774
vn 0.5774 0.5774 -0.5774
vn -0.5774 0.5774 -0.5774
vn -0.5774 0.5774 0.5774
# 8 vertex normals

vt 1.0000 0.0000 0.0000
vt 1.0000 1.0000 0.0000
vt 0.0000 1.0000 0.0000
vt 0.0000 0.0000 0.0000
# 4 texture coords

o Suelo_016
g Suelo_016
s 2
f 9/5/9 10/6/10 11/7/11 12/8/12 
s 4
f 13/8/13 14/5/14 15/6/15 16/7/16 
s 8
f 9/8/9 12/5/12 14/6/14 13/7/13 
s 16
f 12/8/12 11/5/11 15/6/15 14/7/14 
s 32
f 11/8/11 10/5/10 16/6/16 15/7/15 
s 64
f 10/8/10 9/5/9 13/6/13 16/7/16 
# 6 polygons

#
# object Suelo_017
#

v  -121.9062 -1.0066 138.2477
v  -121.9062 -1.0066 340.0134
v  -266.5575 -1.0066 340.0134
v  -266.5575 -1.0066 138.2477
v  -121.9062 0.0000 138.2477
v  -266.5575 0.0000 138.2477
v  -266.5575 0.0000 340.0134
v  -121.9062 0.0000 340.0134
# 8 vertices

vn 0.5774 -0.5774 -0.5774
vn 0.5774 -0.5774 0.5774
vn -0.5774 -0.5774 0.5774
vn -0.5774 -0.5774 -0.5774
vn 0.5774 0.5774 -0.5774
vn -0.5774 0.5774 -0.5774
vn -0.5774 0.5774 0.5774
vn 0.5774 0.5774 0.5774
# 8 vertex normals

vt 1.0000 0.0000 0.0000
vt 1.0000 1.0000 0.0000
vt 0.0000 1.0000 0.0000
vt 0.0000 0.0000 0.0000
# 4 texture coords

o Suelo_017
g Suelo_017
s 2
f 17/9/17 18/10/18 19/11/19 20/12/20 
s 4
f 21/12/21 22/9/22 23/10/23 24/11/24 
s 8
f 17/12/17 20/9/20 22/10/22 21/11/21 
s 16
f 20/12/20 19/9/19 23/10/23 22/11/22 
s 32
f 19/12/19 18/9/18 24/10/24 23/11/23 
s 64
f 18/12/18 17/9/17 21/10/21 24/11/24 
# 6 polygons

#
# object Suelo_018
#

v  -266.5575 -1.0066 270.5695
v  -337.4164 -1.0066 270.5695
v  -337.4164 -1.0066 204.8356
v  -266.5575 -1.0066 204.8356
v  -266.5575 0.0000 270.5695
v  -266.5575 0.0000 204.8356
v  -337.4164 0.0000 204.8356
v  -337.4164 0.0000 270.5695
# 8 vertices

vn 0.5774 -0.5774 0.5774
vn -0.5774 -0.5774 0.5774
vn -0.5774 -0.5774 -0.5774
vn 0.5774 -0.5774 -0.5774
vn 0.5774 0.5774 0.5774
vn 0.5774 0.5774 -0.5774
vn -0.5774 0.5774 -0.5774
vn -0.5774 0.5774 0.5774
# 8 vertex normals

vt 1.0000 0.0000 0.0000
vt 1.0000 1.0000 0.0000
vt 0.0000 1.0000 0.0000
vt 0.0000 0.0000 0.0000
# 4 texture coords

o Suelo_018
g Suelo_018
s 2
f 25/13/25 26/14/26 27/15/27 28/16/28 
s 4
f 29/16/29 30/13/30 31/14/31 32/15/32 
s 8
f 25/16/25 28/13/28 30/14/30 29/15/29 
s 16
f 28/16/28 27/13/27 31/14/31 30/15/30 
s 32
f 27/16/27 26/13/26 32/14/32 31/15/31 
s 64
f 26/16/26 25/13/25 29/14/29 32/15/32 
# 6 polygons

#
# object Suelo_019
#

v  -337.5629 -1.0066 270.5695
v  -337.5629 -1.0066 341.4284
v  -403.2968 -1.0066 341.4284
v  -403.2968 -1.0066 270.5695
v  -337.5629 0.0000 270.5695
v  -403.2968 0.0000 270.5695
v  -403.2968 0.0000 341.4284
v  -337.5629 0.0000 341.4284
# 8 vertices

vn 0.5774 -0.5774 -0.5774
vn 0.5774 -0.5774 0.5774
vn -0.5774 -0.5774 0.5774
vn -0.5774 -0.5774 -0.5774
vn 0.5774 0.5774 -0.5774
vn -0.5774 0.5774 -0.5774
vn -0.5774 0.5774 0.5774
vn 0.5774 0.5774 0.5774
# 8 vertex normals

vt 1.0000 0.0000 0.0000
vt 1.0000 1.0000 0.0000
vt 0.0000 1.0000 0.0000
vt 0.0000 0.0000 0.0000
# 4 texture coords

o Suelo_019
g Suelo_019
s 2
f 33/17/33 34/18/34 35/19/35 36/20/36 
s 4
f 37/20/37 38/17/38 39/18/39 40/19/40 
s 8
f 33/20/33 36/17/36 38/18/38 37/19/37 
s 16
f 36/20/36 35/17/35 39/18/39 38/19/38 
s 32
f 35/20/35 34/17/34 40/18/40 39/19/39 
s 64
f 34/20/34 33/17/33 37/18/37 40/19/40 
# 6 polygons

#
# object Suelo_020
#

v  -337.4164 -1.0066 270.5695
v  -403.2967 -1.0066 270.5695
v  -403.1499 -1.0066 234.8215
v  -383.4584 -1.0066 204.8356
v  -337.4164 -1.0066 204.8356
v  -337.4164 0.0000 270.5695
v  -337.4164 0.0000 204.8356
v  -383.4584 -0.0000 204.8356
v  -403.1499 -0.0000 234.8215
v  -403.2967 0.0000 270.5695
# 10 vertices

vn 0.5774 -0.5774 0.5774
vn -0.5782 -0.5772 0.5766
vn -0.7317 -0.6625 -0.1603
vn -0.4311 -0.6033 -0.6710
vn 0.5774 -0.5774 -0.5774
vn 0.5774 0.5774 0.5774
vn 0.5774 0.5774 -0.5774
vn -0.4311 0.6033 -0.6710
vn -0.7317 0.6625 -0.1603
vn -0.5782 0.5772 0.5766
# 10 vertex normals

vt 1.0000 0.0000 0.0000
vt 1.0000 1.0000 0.0000
vt 0.4562 1.0000 0.0000
vt 0.0000 0.3443 0.0000
vt 0.0000 0.0000 0.0000
vt 1.0000 0.3443 0.0000
vt 0.5438 1.0000 0.0000
vt 0.0000 1.0000 0.0000
vt 0.3443 0.0000 0.0000
vt 0.3443 1.0000 0.0000
vt 0.4562 0.0000 0.0000
vt -95.1920 0.0004 0.0000
vt -95.1920 1.0004 0.0000
# 13 texture coords

o Suelo_020
g Suelo_020
s 1
f 41/21/41 42/22/42 43/23/43 44/24/44 45/25/45 
f 46/25/46 47/21/47 48/26/48 49/27/49 50/28/50 
s 2
f 41/25/41 45/21/45 47/22/47 46/28/46 
s 4
f 45/25/45 44/29/44 48/30/48 47/28/47 
s 2
f 43/31/43 42/21/42 50/22/50 49/23/49 
s 4
f 42/25/42 41/21/41 46/22/46 50/28/50 
s 8
f 44/32/44 43/31/43 49/23/49 48/33/48 
# 7 polygons

#
# object Suelo_035
#

v  -103.1621 -1.0066 270.5695
v  -103.1622 -1.0066 340.0134
v  -121.9061 -1.0066 340.0134
v  -121.9061 -1.0066 270.5695
v  -103.1621 -0.0000 270.5695
v  -121.9061 0.0000 270.5695
v  -121.9061 -0.0000 340.0134
v  -103.1622 -0.0000 340.0134
# 8 vertices

vn 0.5774 -0.5774 -0.5774
vn 0.5774 -0.5774 0.5774
vn -0.5774 -0.5774 0.5774
vn -0.5774 -0.5774 -0.5774
vn 0.5774 0.5774 -0.5774
vn -0.5774 0.5774 -0.5774
vn -0.5774 0.5774 0.5774
vn 0.5774 0.5774 0.5774
# 8 vertex normals

vt 1.0000 0.0000 0.0000
vt 1.0000 1.0000 0.0000
vt 0.0000 1.0000 0.0000
vt 0.0000 0.0000 0.0000
# 4 texture coords

o Suelo_035
g Suelo_035
s 2
f 51/34/51 52/35/52 53/36/53 54/37/54 
s 4
f 55/37/55 56/34/56 57/35/57 58/36/58 
s 8
f 51/37/51 54/34/54 56/35/56 55/36/55 
s 16
f 54/37/54 53/34/53 57/35/57 56/36/56 
s 32
f 53/37/53 52/34/52 58/35/58 57/36/57 
s 64
f 52/37/52 51/34/51 55/35/55 58/36/58 
# 6 polygons

#
# object Suelo_036
#

v  -103.1621 -1.0066 138.2477
v  -103.1622 -1.0066 207.6916
v  -121.9061 -1.0066 207.6916
v  -121.9061 -1.0066 138.2477
v  -103.1621 -0.0000 138.2477
v  -121.9061 0.0000 138.2477
v  -121.9061 -0.0000 207.6916
v  -103.1622 -0.0000 207.6916
# 8 vertices

vn 0.5774 -0.5774 -0.5774
vn 0.5774 -0.5774 0.5774
vn -0.5774 -0.5774 0.5774
vn -0.5774 -0.5774 -0.5774
vn 0.5774 0.5774 -0.5774
vn -0.5774 0.5774 -0.5774
vn -0.5774 0.5774 0.5774
vn 0.5774 0.5774 0.5774
# 8 vertex normals

vt 1.0000 0.0000 0.0000
vt 1.0000 1.0000 0.0000
vt 0.0000 1.0000 0.0000
vt 0.0000 0.0000 0.0000
# 4 texture coords

o Suelo_036
g Suelo_036
s 2
f 59/38/59 60/39/60 61/40/61 62/41/62 
s 4
f 63/41/63 64/38/64 65/39/65 66/40/66 
s 8
f 59/41/59 62/38/62 64/39/64 63/40/63 
s 16
f 62/41/62 61/38/61 65/39/65 64/40/64 
s 32
f 61/41/61 60/38/60 66/39/66 65/40/65 
s 64
f 60/41/60 59/38/59 63/39/63 66/40/66 
# 6 polygons

#
# object Suelo_037
#

v  -266.5575 -1.0066 138.2477
v  -266.5575 -1.0066 204.8356
v  -285.3015 -1.0066 204.8356
v  -285.3015 -1.0066 138.2477
v  -266.5575 -0.0000 138.2477
v  -285.3015 -0.0000 138.2477
v  -285.3015 -0.0000 204.8356
v  -266.5575 -0.0000 204.8356
# 8 vertices

vn 0.5774 -0.5774 -0.5774
vn 0.5774 -0.5774 0.5774
vn -0.5774 -0.5774 0.5774
vn -0.5774 -0.5774 -0.5774
vn 0.5774 0.5774 -0.5774
vn -0.5774 0.5774 -0.5774
vn -0.5774 0.5774 0.5774
vn 0.5774 0.5774 0.5774
# 8 vertex normals

vt 1.0000 0.0000 0.0000
vt 1.0000 1.0000 0.0000
vt 0.0000 1.0000 0.0000
vt 0.0000 0.0000 0.0000
# 4 texture coords

o Suelo_037
g Suelo_037
s 2
f 67/42/67 68/43/68 69/44/69 70/45/70 
s 4
f 71/45/71 72/42/72 73/43/73 74/44/74 
s 8
f 67/45/67 70/42/70 72/43/72 71/44/71 
s 16
f 70/45/70 69/42/69 73/43/73 72/44/72 
s 32
f 69/45/69 68/42/68 74/43/74 73/44/73 
s 64
f 68/45/68 67/42/67 71/43/71 74/44/74 
# 6 polygons

#
# object Suelo_038
#

v  -266.5575 -1.0066 270.5695
v  -266.5575 -1.0066 340.0134
v  -285.3015 -1.0066 340.0134
v  -285.3015 -1.0066 270.5695
v  -266.5575 -0.0000 270.5695
v  -285.3015 -0.0000 270.5695
v  -285.3015 -0.0000 340.0134
v  -266.5575 -0.0000 340.0134
# 8 vertices

vn 0.5774 -0.5774 -0.5774
vn 0.5774 -0.5774 0.5774
vn -0.5774 -0.5774 0.5774
vn -0.5774 -0.5774 -0.5774
vn 0.5774 0.5774 -0.5774
vn -0.5774 0.5774 -0.5774
vn -0.5774 0.5774 0.5774
vn 0.5774 0.5774 0.5774
# 8 vertex normals

vt 1.0000 0.0000 0.0000
vt 1.0000 1.0000 0.0000
vt 0.0000 1.0000 0.0000
vt 0.0000 0.0000 0.0000
# 4 texture coords

o Suelo_038
g Suelo_038
s 2
f 75/46/75 76/47/76 77/48/77 78/49/78 
s 4
f 79/49/79 80/46/80 81/47/81 82/48/82 
s 8
f 75/49/75 78/46/78 80/47/80 79/48/79 
s 16
f 78/49/78 77/46/77 81/47/81 80/48/80 
s 32
f 77/49/77 76/46/76 82/47/82 81/48/81 
s 64
f 76/49/76 75/46/75 79/47/79 82/48/82 
# 6 polygons

